<ttFont>
    <TTGlyph name=".notdef" xMin="55" yMin="0" xMax="520" yMax="459">
      <contour>
        <pt x="520" y="459" on="1"/>
        <pt x="520" y="0" on="1"/>
        <pt x="55" y="0" on="1"/>
        <pt x="55" y="459" on="1"/>
      </contour>
      <contour>
        <pt x="106" y="408" on="1"/>
        <pt x="106" y="51" on="1"/>
        <pt x="471" y="51" on="1"/>
        <pt x="471" y="408" on="1"/>
      </contour>
    </TTGlyph>
    <TTGlyph name="A" xMin="13" yMin="0" xMax="654" yMax="643">
      <contour>
        <pt x="561" y="0" on="1"/>
        <pt x="490" y="171" on="1"/>
        <pt x="175" y="171" on="1"/>
        <pt x="105" y="0" on="1"/>
        <pt x="13" y="0" on="1"/>
        <pt x="282" y="643" on="1"/>
        <pt x="381" y="643" on="1"/>
        <pt x="654" y="0" on="1"/>
      </contour>
      <contour>
        <pt x="330" y="543" on="1"/>
        <pt x="210" y="247" on="1"/>
        <pt x="453" y="247" on="1"/>
      </contour>
    </TTGlyph>
    <TTGlyph name="B" xMin="72" yMin="0" xMax="546" yMax="643">
      <contour>
        <pt x="546" y="178" on="1"/>
        <pt x="546" y="139" on="0"/>
        <pt x="514" y="74" on="0"/>
        <pt x="460" y="27" on="0"/>
        <pt x="390" y="0" on="0"/>
        <pt x="352" y="0" on="1"/>
        <pt x="72" y="0" on="1"/>
        <pt x="72" y="643" on="1"/>
        <pt x="330" y="643" on="1"/>
        <pt x="369" y="643" on="0"/>
        <pt x="439" y="624" on="0"/>
        <pt x="492" y="585" on="0"/>
        <pt x="523" y="525" on="0"/>
        <pt x="523" y="484" on="1"/>
        <pt x="523" y="457" on="0"/>
        <pt x="504" y="410" on="0"/>
        <pt x="472" y="374" on="0"/>
        <pt x="433" y="349" on="0"/>
        <pt x="412" y="343" on="1"/>
        <pt x="438" y="336" on="0"/>
        <pt x="487" y="306" on="0"/>
        <pt x="524" y="264" on="0"/>
        <pt x="546" y="210" on="0"/>
      </contour>
      <contour>
        <pt x="439" y="471" on="1"/>
        <pt x="439" y="491" on="0"/>
        <pt x="426" y="526" on="0"/>
        <pt x="395" y="551" on="0"/>
        <pt x="343" y="565" on="0"/>
        <pt x="303" y="565" on="1"/>
        <pt x="160" y="565" on="1"/>
        <pt x="160" y="373" on="1"/>
        <pt x="301" y="373" on="1"/>
        <pt x="341" y="373" on="0"/>
        <pt x="394" y="388" on="0"/>
        <pt x="426" y="415" on="0"/>
        <pt x="439" y="451" on="0"/>
      </contour>
      <contour>
        <pt x="459" y="189" on="1"/>
        <pt x="459" y="242" on="0"/>
        <pt x="377" y="300" on="0"/>
        <pt x="297" y="300" on="1"/>
        <pt x="160" y="300" on="1"/>
        <pt x="160" y="78" on="1"/>
        <pt x="301" y="78" on="1"/>
        <pt x="371" y="78" on="0"/>
        <pt x="459" y="139" on="0"/>
      </contour>
    </TTGlyph>
    <TTGlyph name="C" xMin="52" yMin="-14" xMax="552" yMax="655">
      <contour>
        <pt x="552" y="171" on="1"/>
        <pt x="552" y="133" on="0"/>
        <pt x="520" y="65" on="0"/>
        <pt x="460" y="15" on="0"/>
        <pt x="373" y="-14" on="0"/>
        <pt x="318" y="-14" on="1"/>
        <pt x="243" y="-14" on="0"/>
        <pt x="141" y="40" on="0"/>
        <pt x="79" y="131" on="0"/>
        <pt x="52" y="251" on="0"/>
        <pt x="52" y="316" on="1"/>
        <pt x="52" y="381" on="0"/>
        <pt x="79" y="503" on="0"/>
        <pt x="141" y="598" on="0"/>
        <pt x="243" y="655" on="0"/>
        <pt x="319" y="655" on="1"/>
        <pt x="380" y="655" on="0"/>
        <pt x="467" y="626" on="0"/>
        <pt x="523" y="575" on="0"/>
        <pt x="549" y="508" on="0"/>
        <pt x="549" y="471" on="1"/>
        <pt x="459" y="471" on="1"/>
        <pt x="459" y="528" on="0"/>
        <pt x="395" y="585" on="0"/>
        <pt x="319" y="585" on="1"/>
        <pt x="232" y="585" on="0"/>
        <pt x="144" y="454" on="0"/>
        <pt x="144" y="316" on="1"/>
        <pt x="144" y="244" on="0"/>
        <pt x="167" y="145" on="0"/>
        <pt x="212" y="84" on="0"/>
        <pt x="275" y="58" on="0"/>
        <pt x="316" y="58" on="1"/>
        <pt x="347" y="58" on="0"/>
        <pt x="401" y="70" on="0"/>
        <pt x="440" y="97" on="0"/>
        <pt x="462" y="140" on="0"/>
        <pt x="462" y="171" on="1"/>
        <pt x="552" y="171" on="1"/>
      </contour>
    </TTGlyph>
    <TTGlyph name="D" xMin="72" yMin="0" xMax="588" yMax="643">
      <contour>
        <pt x="588" y="322" on="1"/>
        <pt x="588" y="263" on="0"/>
        <pt x="557" y="148" on="0"/>
        <pt x="484" y="57" on="0"/>
        <pt x="362" y="0" on="0"/>
        <pt x="271" y="0" on="1"/>
        <pt x="72" y="0" on="1"/>
        <pt x="72" y="643" on="1"/>
        <pt x="271" y="643" on="1"/>
        <pt x="362" y="643" on="0"/>
        <pt x="484" y="589" on="0"/>
        <pt x="557" y="499" on="0"/>
        <pt x="588" y="383" on="0"/>
      </contour>
      <contour>
        <pt x="499" y="322" on="1"/>
        <pt x="499" y="441" on="0"/>
        <pt x="378" y="565" on="0"/>
        <pt x="273" y="565" on="1"/>
        <pt x="160" y="565" on="1"/>
        <pt x="160" y="78" on="1"/>
        <pt x="273" y="78" on="1"/>
        <pt x="378" y="78" on="0"/>
        <pt x="499" y="204" on="0"/>
      </contour>
    </TTGlyph>
    <TTGlyph name="E" xMin="72" yMin="0" xMax="478" yMax="643">
      <contour>
        <pt x="72" y="0" on="1"/>
        <pt x="72" y="643" on="1"/>
        <pt x="469" y="643" on="1"/>
        <pt x="469" y="565" on="1"/>
        <pt x="160" y="565" on="1"/>
        <pt x="160" y="367" on="1"/>
        <pt x="460" y="367" on="1"/>
        <pt x="460" y="291" on="1"/>
        <pt x="160" y="291" on="1"/>
        <pt x="160" y="78" on="1"/>
        <pt x="478" y="78" on="1"/>
        <pt x="478" y="0" on="1"/>
      </contour>
    </TTGlyph>
    <TTGlyph name="F" xMin="72" yMin="0" xMax="445" yMax="643">
      <contour>
        <pt x="160" y="291" on="1"/>
        <pt x="160" y="0" on="1"/>
        <pt x="72" y="0" on="1"/>
        <pt x="72" y="643" on="1"/>
        <pt x="445" y="643" on="1"/>
        <pt x="445" y="565" on="1"/>
        <pt x="160" y="565" on="1"/>
        <pt x="160" y="367" on="1"/>
        <pt x="427" y="367" on="1"/>
        <pt x="427" y="291" on="1"/>
      </contour>
    </TTGlyph>
    <TTGlyph name="G" xMin="52" yMin="-14" xMax="610" yMax="655">
      <contour>
        <pt x="606" y="31" on="1"/>
        <pt x="576" y="20" on="0"/>
        <pt x="511" y="4" on="0"/>
        <pt x="448" y="-8" on="0"/>
        <pt x="392" y="-14" on="0"/>
        <pt x="372" y="-14" on="1"/>
        <pt x="270" y="-14" on="0"/>
        <pt x="144" y="53" on="0"/>
        <pt x="75" y="158" on="0"/>
        <pt x="52" y="285" on="0"/>
        <pt x="52" y="346" on="1"/>
        <pt x="52" y="411" on="0"/>
        <pt x="95" y="524" on="0"/>
        <pt x="176" y="607" on="0"/>
        <pt x="292" y="655" on="0"/>
        <pt x="364" y="655" on="1"/>
        <pt x="428" y="655" on="0"/>
        <pt x="521" y="621" on="0"/>
        <pt x="581" y="569" on="0"/>
        <pt x="610" y="509" on="0"/>
        <pt x="610" y="483" on="1"/>
        <pt x="520" y="483" on="1"/>
        <pt x="520" y="497" on="0"/>
        <pt x="499" y="530" on="0"/>
        <pt x="460" y="558" on="0"/>
        <pt x="406" y="577" on="0"/>
        <pt x="372" y="577" on="1"/>
        <pt x="311" y="577" on="0"/>
        <pt x="225" y="542" on="0"/>
        <pt x="170" y="479" on="0"/>
        <pt x="145" y="394" on="0"/>
        <pt x="145" y="345" on="1"/>
        <pt x="145" y="291" on="0"/>
        <pt x="167" y="190" on="0"/>
        <pt x="217" y="113" on="0"/>
        <pt x="300" y="66" on="0"/>
        <pt x="361" y="66" on="1"/>
        <pt x="401" y="66" on="0"/>
        <pt x="482" y="76" on="0"/>
        <pt x="517" y="87" on="1"/>
        <pt x="517" y="265" on="1"/>
        <pt x="370" y="265" on="1"/>
        <pt x="370" y="343" on="1"/>
        <pt x="606" y="343" on="1"/>
        <pt x="606" y="31" on="1"/>
      </contour>
    </TTGlyph>
    <TTGlyph name="H" xMin="72" yMin="0" xMax="561" yMax="643">
      <contour>
        <pt x="469" y="0" on="1"/>
        <pt x="469" y="291" on="1"/>
        <pt x="160" y="291" on="1"/>
        <pt x="160" y="0" on="1"/>
        <pt x="72" y="0" on="1"/>
        <pt x="72" y="643" on="1"/>
        <pt x="160" y="643" on="1"/>
        <pt x="160" y="367" on="1"/>
        <pt x="469" y="367" on="1"/>
        <pt x="469" y="643" on="1"/>
        <pt x="561" y="643" on="1"/>
        <pt x="561" y="0" on="1"/>
      </contour>
    </TTGlyph>
    <TTGlyph name="I" xMin="72" yMin="0" xMax="160" yMax="643">
      <contour>
        <pt x="72" y="0" on="1"/>
        <pt x="72" y="643" on="1"/>
        <pt x="160" y="643" on="1"/>
        <pt x="160" y="0" on="1"/>
      </contour>
    </TTGlyph>
    <TTGlyph name="J" xMin="52" yMin="-14" xMax="435" yMax="643">
      <contour>
        <pt x="435" y="192" on="1"/>
        <pt x="435" y="146" on="0"/>
        <pt x="406" y="70" on="0"/>
        <pt x="354" y="16" on="0"/>
        <pt x="281" y="-14" on="0"/>
        <pt x="238" y="-14" on="1"/>
        <pt x="196" y="-14" on="0"/>
        <pt x="127" y="14" on="0"/>
        <pt x="79" y="63" on="0"/>
        <pt x="52" y="131" on="0"/>
        <pt x="52" y="172" on="1"/>
        <pt x="141" y="172" on="1"/>
        <pt x="141" y="140" on="0"/>
        <pt x="158" y="99" on="0"/>
        <pt x="186" y="75" on="0"/>
        <pt x="223" y="66" on="0"/>
        <pt x="243" y="66" on="1"/>
        <pt x="263" y="66" on="0"/>
        <pt x="300" y="81" on="0"/>
        <pt x="328" y="112" on="0"/>
        <pt x="345" y="160" on="0"/>
        <pt x="345" y="192" on="1"/>
        <pt x="345" y="643" on="1"/>
        <pt x="435" y="643" on="1"/>
        <pt x="435" y="192" on="1"/>
      </contour>
    </TTGlyph>
    <TTGlyph name="K" xMin="72" yMin="0" xMax="570" yMax="643">
      <contour>
        <pt x="450" y="0" on="1"/>
        <pt x="160" y="339" on="1"/>
        <pt x="160" y="0" on="1"/>
        <pt x="72" y="0" on="1"/>
        <pt x="72" y="643" on="1"/>
        <pt x="160" y="643" on="1"/>
        <pt x="160" y="369" on="1"/>
        <pt x="426" y="643" on="1"/>
        <pt x="537" y="643" on="1"/>
        <pt x="264" y="366" on="1"/>
        <pt x="570" y="0" on="1"/>
      </contour>
    </TTGlyph>
    <TTGlyph name="L" xMin="72" yMin="0" xMax="445" yMax="643">
      <contour>
        <pt x="72" y="0" on="1"/>
        <pt x="72" y="643" on="1"/>
        <pt x="160" y="643" on="1"/>
        <pt x="160" y="78" on="1"/>
        <pt x="445" y="78" on="1"/>
        <pt x="445" y="0" on="1"/>
      </contour>
    </TTGlyph>
    <TTGlyph name="M" xMin="72" yMin="0" xMax="727" yMax="643">
      <contour>
        <pt x="639" y="0" on="1"/>
        <pt x="639" y="558" on="1"/>
        <pt x="433" y="0" on="1"/>
        <pt x="363" y="0" on="1"/>
        <pt x="160" y="553" on="1"/>
        <pt x="160" y="0" on="1"/>
        <pt x="72" y="0" on="1"/>
        <pt x="72" y="643" on="1"/>
        <pt x="213" y="643" on="1"/>
        <pt x="399" y="124" on="1"/>
        <pt x="586" y="643" on="1"/>
        <pt x="727" y="643" on="1"/>
        <pt x="727" y="0" on="1"/>
      </contour>
    </TTGlyph>
    <TTGlyph name="N" xMin="72" yMin="0" xMax="573" yMax="643">
      <contour>
        <pt x="444" y="0" on="1"/>
        <pt x="160" y="526" on="1"/>
        <pt x="160" y="0" on="1"/>
        <pt x="72" y="0" on="1"/>
        <pt x="72" y="643" on="1"/>
        <pt x="198" y="643" on="1"/>
        <pt x="483" y="115" on="1"/>
        <pt x="483" y="643" on="1"/>
        <pt x="573" y="643" on="1"/>
        <pt x="573" y="0" on="1"/>
      </contour>
    </TTGlyph>
    <TTGlyph name="O" xMin="52" yMin="-14" xMax="636" yMax="655">
      <contour>
        <pt x="636" y="334" on="1"/>
        <pt x="636" y="265" on="0"/>
        <pt x="601" y="139" on="0"/>
        <pt x="529" y="43" on="0"/>
        <pt x="419" y="-14" on="0"/>
        <pt x="345" y="-14" on="1"/>
        <pt x="271" y="-14" on="0"/>
        <pt x="161" y="43" on="0"/>
        <pt x="88" y="139" on="0"/>
        <pt x="52" y="265" on="0"/>
        <pt x="52" y="334" on="1"/>
        <pt x="52" y="403" on="0"/>
        <pt x="88" y="520" on="0"/>
        <pt x="161" y="606" on="0"/>
        <pt x="271" y="655" on="0"/>
        <pt x="345" y="655" on="1"/>
        <pt x="419" y="655" on="0"/>
        <pt x="529" y="606" on="0"/>
        <pt x="601" y="520" on="0"/>
        <pt x="636" y="403" on="0"/>
      </contour>
      <contour>
        <pt x="543" y="334" on="1"/>
        <pt x="543" y="385" on="0"/>
        <pt x="525" y="473" on="0"/>
        <pt x="480" y="539" on="0"/>
        <pt x="403" y="577" on="0"/>
        <pt x="345" y="577" on="1"/>
        <pt x="286" y="577" on="0"/>
        <pt x="209" y="539" on="0"/>
        <pt x="164" y="473" on="0"/>
        <pt x="145" y="385" on="0"/>
        <pt x="145" y="334" on="1"/>
        <pt x="145" y="283" on="0"/>
        <pt x="164" y="187" on="0"/>
        <pt x="209" y="112" on="0"/>
        <pt x="286" y="66" on="0"/>
        <pt x="345" y="66" on="1"/>
        <pt x="403" y="66" on="0"/>
        <pt x="480" y="112" on="0"/>
        <pt x="525" y="187" on="0"/>
        <pt x="543" y="283" on="0"/>
      </contour>
    </TTGlyph>
    <TTGlyph name="P" xMin="72" yMin="0" xMax="501" yMax="643">
      <contour>
        <pt x="501" y="457" on="1"/>
        <pt x="501" y="396" on="0"/>
        <pt x="458" y="324" on="0"/>
        <pt x="388" y="285" on="0"/>
        <pt x="299" y="273" on="0"/>
        <pt x="253" y="273" on="1"/>
        <pt x="160" y="273" on="1"/>
        <pt x="160" y="0" on="1"/>
        <pt x="72" y="0" on="1"/>
        <pt x="72" y="643" on="1"/>
        <pt x="253" y="643" on="1"/>
        <pt x="299" y="643" on="0"/>
        <pt x="388" y="630" on="0"/>
        <pt x="458" y="591" on="0"/>
        <pt x="501" y="518" on="0"/>
      </contour>
      <contour>
        <pt x="415" y="457" on="1"/>
        <pt x="415" y="517" on="0"/>
        <pt x="337" y="565" on="0"/>
        <pt x="256" y="565" on="1"/>
        <pt x="160" y="565" on="1"/>
        <pt x="160" y="351" on="1"/>
        <pt x="256" y="351" on="1"/>
        <pt x="337" y="351" on="0"/>
        <pt x="415" y="397" on="0"/>
      </contour>
    </TTGlyph>
    <TTGlyph name="Q" xMin="52" yMin="-14" xMax="672" yMax="655">
      <contour>
        <pt x="430" y="0" on="1"/>
        <pt x="404" y="-7" on="0"/>
        <pt x="365" y="-14" on="0"/>
        <pt x="345" y="-14" on="1"/>
        <pt x="271" y="-14" on="0"/>
        <pt x="161" y="43" on="0"/>
        <pt x="88" y="139" on="0"/>
        <pt x="52" y="265" on="0"/>
        <pt x="52" y="334" on="1"/>
        <pt x="52" y="403" on="0"/>
        <pt x="88" y="520" on="0"/>
        <pt x="161" y="606" on="0"/>
        <pt x="271" y="655" on="0"/>
        <pt x="345" y="655" on="1"/>
        <pt x="419" y="655" on="0"/>
        <pt x="529" y="606" on="0"/>
        <pt x="601" y="520" on="0"/>
        <pt x="636" y="403" on="0"/>
        <pt x="636" y="334" on="1"/>
        <pt x="636" y="250" on="0"/>
        <pt x="588" y="104" on="0"/>
        <pt x="540" y="61" on="1"/>
        <pt x="672" y="61" on="1"/>
        <pt x="672" y="0" on="1"/>
      </contour>
      <contour>
        <pt x="543" y="334" on="1"/>
        <pt x="543" y="385" on="0"/>
        <pt x="525" y="473" on="0"/>
        <pt x="480" y="539" on="0"/>
        <pt x="403" y="577" on="0"/>
        <pt x="345" y="577" on="1"/>
        <pt x="286" y="577" on="0"/>
        <pt x="209" y="539" on="0"/>
        <pt x="164" y="473" on="0"/>
        <pt x="145" y="385" on="0"/>
        <pt x="145" y="334" on="1"/>
        <pt x="145" y="283" on="0"/>
        <pt x="164" y="187" on="0"/>
        <pt x="209" y="112" on="0"/>
        <pt x="286" y="66" on="0"/>
        <pt x="345" y="66" on="1"/>
        <pt x="403" y="66" on="0"/>
        <pt x="480" y="112" on="0"/>
        <pt x="525" y="187" on="0"/>
        <pt x="543" y="283" on="0"/>
      </contour>
    </TTGlyph>
    <TTGlyph name="R" xMin="72" yMin="0" xMax="523" yMax="643">
      <contour>
        <pt x="432" y="0" on="1"/>
        <pt x="424" y="33" on="0"/>
        <pt x="417" y="72" on="0"/>
        <pt x="412" y="102" on="0"/>
        <pt x="407" y="131" on="0"/>
        <pt x="402" y="154" on="1"/>
        <pt x="391" y="204" on="0"/>
        <pt x="371" y="260" on="0"/>
        <pt x="337" y="287" on="0"/>
        <pt x="283" y="292" on="0"/>
        <pt x="238" y="292" on="1"/>
        <pt x="160" y="292" on="1"/>
        <pt x="160" y="0" on="1"/>
        <pt x="72" y="0" on="1"/>
        <pt x="72" y="643" on="1"/>
        <pt x="274" y="643" on="1"/>
        <pt x="388" y="643" on="0"/>
        <pt x="507" y="565" on="0"/>
        <pt x="507" y="466" on="1"/>
        <pt x="507" y="442" on="0"/>
        <pt x="487" y="401" on="0"/>
        <pt x="454" y="367" on="0"/>
        <pt x="411" y="339" on="0"/>
        <pt x="387" y="328" on="1"/>
        <pt x="415" y="322" on="0"/>
        <pt x="456" y="291" on="0"/>
        <pt x="469" y="259" on="1"/>
        <pt x="476" y="241" on="0"/>
        <pt x="484" y="185" on="0"/>
        <pt x="493" y="118" on="0"/>
        <pt x="508" y="40" on="0"/>
        <pt x="523" y="0" on="1"/>
      </contour>
      <contour>
        <pt x="417" y="466" on="1"/>
        <pt x="417" y="495" on="0"/>
        <pt x="396" y="533" on="0"/>
        <pt x="359" y="556" on="0"/>
        <pt x="306" y="565" on="0"/>
        <pt x="273" y="565" on="1"/>
        <pt x="160" y="565" on="1"/>
        <pt x="160" y="369" on="1"/>
        <pt x="273" y="369" on="1"/>
        <pt x="338" y="369" on="0"/>
        <pt x="417" y="411" on="0"/>
      </contour>
    </TTGlyph>
    <TTGlyph name="S" xMin="52" yMin="-14" xMax="535" yMax="655">
      <contour>
        <pt x="535" y="178" on="1"/>
        <pt x="535" y="122" on="0"/>
        <pt x="486" y="48" on="0"/>
        <pt x="408" y="4" on="0"/>
        <pt x="312" y="-14" on="0"/>
        <pt x="265" y="-14" on="1"/>
        <pt x="220" y="-14" on="0"/>
        <pt x="142" y="15" on="0"/>
        <pt x="85" y="69" on="0"/>
        <pt x="52" y="145" on="0"/>
        <pt x="52" y="192" on="1"/>
        <pt x="144" y="192" on="1"/>
        <pt x="144" y="166" on="0"/>
        <pt x="162" y="120" on="0"/>
        <pt x="193" y="86" on="0"/>
        <pt x="237" y="66" on="0"/>
        <pt x="264" y="66" on="1"/>
        <pt x="291" y="66" on="0"/>
        <pt x="355" y="71" on="0"/>
        <pt x="410" y="92" on="0"/>
        <pt x="447" y="134" on="0"/>
        <pt x="447" y="171" on="1"/>
        <pt x="447" y="222" on="0"/>
        <pt x="390" y="270" on="0"/>
        <pt x="304" y="292" on="0"/>
        <pt x="204" y="306" on="0"/>
        <pt x="118" y="340" on="0"/>
        <pt x="61" y="411" on="0"/>
        <pt x="61" y="480" on="1"/>
        <pt x="61" y="522" on="0"/>
        <pt x="102" y="587" on="0"/>
        <pt x="165" y="632" on="0"/>
        <pt x="243" y="655" on="0"/>
        <pt x="280" y="655" on="1"/>
        <pt x="323" y="655" on="0"/>
        <pt x="405" y="637" on="0"/>
        <pt x="470" y="597" on="0"/>
        <pt x="510" y="530" on="0"/>
        <pt x="510" y="481" on="1"/>
        <pt x="420" y="481" on="1"/>
        <pt x="420" y="514" on="0"/>
        <pt x="395" y="552" on="0"/>
        <pt x="354" y="571" on="0"/>
        <pt x="302" y="577" on="0"/>
        <pt x="276" y="577" on="1"/>
        <pt x="249" y="577" on="0"/>
        <pt x="204" y="567" on="0"/>
        <pt x="170" y="544" on="0"/>
        <pt x="151" y="505" on="0"/>
        <pt x="151" y="477" on="1"/>
        <pt x="151" y="446" on="0"/>
        <pt x="184" y="408" on="0"/>
        <pt x="238" y="385" on="0"/>
        <pt x="307" y="371" on="0"/>
        <pt x="379" y="356" on="0"/>
        <pt x="448" y="333" on="0"/>
        <pt x="502" y="292" on="0"/>
        <pt x="535" y="227" on="0"/>
      </contour>
    </TTGlyph>
    <TTGlyph name="T" xMin="18" yMin="0" xMax="528" yMax="643">
      <contour>
        <pt x="318" y="565" on="1"/>
        <pt x="318" y="0" on="1"/>
        <pt x="228" y="0" on="1"/>
        <pt x="228" y="565" on="1"/>
        <pt x="18" y="565" on="1"/>
        <pt x="18" y="643" on="1"/>
        <pt x="528" y="643" on="1"/>
        <pt x="528" y="565" on="1"/>
      </contour>
    </TTGlyph>
    <TTGlyph name="U" xMin="72" yMin="-14" xMax="585" yMax="643">
      <contour>
        <pt x="585" y="286" on="1"/>
        <pt x="585" y="206" on="0"/>
        <pt x="555" y="92" on="0"/>
        <pt x="492" y="20" on="0"/>
        <pt x="395" y="-14" on="0"/>
        <pt x="328" y="-14" on="1"/>
        <pt x="260" y="-14" on="0"/>
        <pt x="164" y="20" on="0"/>
        <pt x="101" y="92" on="0"/>
        <pt x="72" y="206" on="0"/>
        <pt x="72" y="286" on="1"/>
        <pt x="72" y="643" on="1"/>
        <pt x="160" y="643" on="1"/>
        <pt x="160" y="286" on="1"/>
        <pt x="160" y="214" on="0"/>
        <pt x="187" y="127" on="0"/>
        <pt x="233" y="80" on="0"/>
        <pt x="294" y="66" on="0"/>
        <pt x="328" y="66" on="1"/>
        <pt x="361" y="66" on="0"/>
        <pt x="421" y="80" on="0"/>
        <pt x="467" y="126" on="0"/>
        <pt x="495" y="213" on="0"/>
        <pt x="495" y="286" on="1"/>
        <pt x="495" y="643" on="1"/>
        <pt x="585" y="643" on="1"/>
        <pt x="585" y="286" on="1"/>
      </contour>
    </TTGlyph>
    <TTGlyph name="V" xMin="13" yMin="0" xMax="568" yMax="643">
      <contour>
        <pt x="340" y="0" on="1"/>
        <pt x="241" y="0" on="1"/>
        <pt x="13" y="643" on="1"/>
        <pt x="114" y="643" on="1"/>
        <pt x="291" y="115" on="1"/>
        <pt x="468" y="643" on="1"/>
        <pt x="568" y="643" on="1"/>
      </contour>
    </TTGlyph>
    <TTGlyph name="W" xMin="13" yMin="0" xMax="852" yMax="643">
      <contour>
        <pt x="661" y="0" on="1"/>
        <pt x="580" y="0" on="1"/>
        <pt x="432" y="535" on="1"/>
        <pt x="283" y="0" on="1"/>
        <pt x="204" y="0" on="1"/>
        <pt x="13" y="643" on="1"/>
        <pt x="108" y="643" on="1"/>
        <pt x="243" y="133" on="1"/>
        <pt x="379" y="643" on="1"/>
        <pt x="486" y="643" on="1"/>
        <pt x="622" y="133" on="1"/>
        <pt x="757" y="643" on="1"/>
        <pt x="852" y="643" on="1"/>
      </contour>
    </TTGlyph>
    <TTGlyph name="X" xMin="21" yMin="0" xMax="604" yMax="643">
      <contour>
        <pt x="490" y="0" on="1"/>
        <pt x="307" y="279" on="1"/>
        <pt x="127" y="0" on="1"/>
        <pt x="21" y="0" on="1"/>
        <pt x="258" y="343" on="1"/>
        <pt x="52" y="643" on="1"/>
        <pt x="166" y="643" on="1"/>
        <pt x="319" y="406" on="1"/>
        <pt x="468" y="643" on="1"/>
        <pt x="573" y="643" on="1"/>
        <pt x="367" y="343" on="1"/>
        <pt x="604" y="0" on="1"/>
      </contour>
    </TTGlyph>
    <TTGlyph name="Y" xMin="13" yMin="0" xMax="579" yMax="643">
      <contour>
        <pt x="340" y="256" on="1"/>
        <pt x="340" y="0" on="1"/>
        <pt x="252" y="0" on="1"/>
        <pt x="252" y="256" on="1"/>
        <pt x="13" y="643" on="1"/>
        <pt x="123" y="643" on="1"/>
        <pt x="301" y="334" on="1"/>
        <pt x="478" y="643" on="1"/>
        <pt x="579" y="643" on="1"/>
      </contour>
    </TTGlyph>
    <TTGlyph name="Z" xMin="40" yMin="0" xMax="508" yMax="643">
      <contour>
        <pt x="40" y="0" on="1"/>
        <pt x="40" y="97" on="1"/>
        <pt x="402" y="565" on="1"/>
        <pt x="57" y="565" on="1"/>
        <pt x="57" y="643" on="1"/>
        <pt x="499" y="643" on="1"/>
        <pt x="499" y="544" on="1"/>
        <pt x="138" y="78" on="1"/>
        <pt x="508" y="78" on="1"/>
        <pt x="508" y="0" on="1"/>
      </contour>
    </TTGlyph>
    <TTGlyph name="a" xMin="43" yMin="-12" xMax="439" yMax="456">
      <contour>
        <pt x="360" y="0" on="1"/>
        <pt x="356" y="17" on="0"/>
        <pt x="351" y="47" on="0"/>
        <pt x="349" y="64" on="1"/>
        <pt x="318" y="25" on="0"/>
        <pt x="258" y="-12" on="0"/>
        <pt x="214" y="-12" on="1"/>
        <pt x="185" y="-12" on="0"/>
        <pt x="125" y="4" on="0"/>
        <pt x="75" y="36" on="0"/>
        <pt x="43" y="84" on="0"/>
        <pt x="43" y="117" on="1"/>
        <pt x="43" y="168" on="0"/>
        <pt x="89" y="231" on="0"/>
        <pt x="160" y="267" on="0"/>
        <pt x="246" y="280" on="0"/>
        <pt x="285" y="280" on="1"/>
        <pt x="346" y="280" on="1"/>
        <pt x="349" y="305" on="0"/>
        <pt x="344" y="347" on="0"/>
        <pt x="322" y="378" on="0"/>
        <pt x="281" y="396" on="0"/>
        <pt x="249" y="396" on="1"/>
        <pt x="232" y="396" on="0"/>
        <pt x="197" y="389" on="0"/>
        <pt x="168" y="372" on="0"/>
        <pt x="150" y="345" on="0"/>
        <pt x="150" y="325" on="1"/>
        <pt x="67" y="325" on="1"/>
        <pt x="67" y="364" on="0"/>
        <pt x="98" y="415" on="0"/>
        <pt x="149" y="445" on="0"/>
        <pt x="213" y="456" on="0"/>
        <pt x="246" y="456" on="1"/>
        <pt x="268" y="456" on="0"/>
        <pt x="321" y="451" on="0"/>
        <pt x="370" y="435" on="0"/>
        <pt x="409" y="406" on="0"/>
        <pt x="418" y="381" on="1"/>
        <pt x="421" y="373" on="0"/>
        <pt x="425" y="348" on="0"/>
        <pt x="426" y="318" on="0"/>
        <pt x="427" y="285" on="0"/>
        <pt x="427" y="271" on="1"/>
        <pt x="427" y="125" on="1"/>
        <pt x="427" y="110" on="0"/>
        <pt x="428" y="74" on="0"/>
        <pt x="431" y="39" on="0"/>
        <pt x="435" y="9" on="0"/>
        <pt x="439" y="0" on="1"/>
      </contour>
      <contour>
        <pt x="345" y="219" on="1"/>
        <pt x="337" y="220" on="0"/>
        <pt x="309" y="222" on="0"/>
        <pt x="300" y="222" on="1"/>
        <pt x="278" y="222" on="0"/>
        <pt x="218" y="214" on="0"/>
        <pt x="164" y="193" on="0"/>
        <pt x="126" y="156" on="0"/>
        <pt x="126" y="127" on="1"/>
        <pt x="126" y="90" on="0"/>
        <pt x="178" y="48" on="0"/>
        <pt x="214" y="48" on="1"/>
        <pt x="256" y="48" on="0"/>
        <pt x="307" y="75" on="0"/>
        <pt x="335" y="122" on="0"/>
        <pt x="345" y="184" on="0"/>
      </contour>
    </TTGlyph>
    <TTGlyph name="ampersand" xMin="52" yMin="-12" xMax="675" yMax="655">
      <contour>
        <pt x="550" y="0" on="1"/>
        <pt x="480" y="63" on="1"/>
        <pt x="444" y="34" on="0"/>
        <pt x="336" y="-12" on="0"/>
        <pt x="271" y="-12" on="1"/>
        <pt x="227" y="-12" on="0"/>
        <pt x="147" y="16" on="0"/>
        <pt x="87" y="67" on="0"/>
        <pt x="52" y="140" on="0"/>
        <pt x="52" y="184" on="1"/>
        <pt x="52" y="225" on="0"/>
        <pt x="75" y="285" on="0"/>
        <pt x="114" y="330" on="0"/>
        <pt x="165" y="362" on="0"/>
        <pt x="193" y="375" on="1"/>
        <pt x="165" y="405" on="0"/>
        <pt x="124" y="477" on="0"/>
        <pt x="124" y="513" on="1"/>
        <pt x="124" y="544" on="0"/>
        <pt x="148" y="596" on="0"/>
        <pt x="191" y="634" on="0"/>
        <pt x="249" y="655" on="0"/>
        <pt x="283" y="655" on="1"/>
        <pt x="319" y="655" on="0"/>
        <pt x="379" y="638" on="0"/>
        <pt x="422" y="606" on="0"/>
        <pt x="447" y="560" on="0"/>
        <pt x="447" y="532" on="1"/>
        <pt x="447" y="498" on="0"/>
        <pt x="419" y="446" on="0"/>
        <pt x="377" y="407" on="0"/>
        <pt x="328" y="378" on="0"/>
        <pt x="307" y="366" on="1"/>
        <pt x="347" y="316" on="0"/>
        <pt x="430" y="229" on="0"/>
        <pt x="475" y="184" on="1"/>
        <pt x="491" y="229" on="0"/>
        <pt x="492" y="315" on="0"/>
        <pt x="486" y="366" on="1"/>
        <pt x="579" y="366" on="1"/>
        <pt x="581" y="297" on="0"/>
        <pt x="559" y="183" on="0"/>
        <pt x="531" y="129" on="1"/>
        <pt x="539" y="118" on="0"/>
        <pt x="575" y="84" on="0"/>
        <pt x="617" y="46" on="0"/>
        <pt x="660" y="11" on="0"/>
        <pt x="675" y="0" on="1"/>
      </contour>
      <contour>
        <pt x="373" y="524" on="1"/>
        <pt x="373" y="551" on="0"/>
        <pt x="326" y="589" on="0"/>
        <pt x="295" y="589" on="1"/>
        <pt x="249" y="589" on="0"/>
        <pt x="211" y="547" on="0"/>
        <pt x="211" y="520" on="1"/>
        <pt x="211" y="494" on="0"/>
        <pt x="239" y="443" on="0"/>
        <pt x="264" y="412" on="1"/>
        <pt x="310" y="431" on="0"/>
        <pt x="373" y="492" on="0"/>
      </contour>
      <contour>
        <pt x="432" y="116" on="1"/>
        <pt x="380" y="163" on="0"/>
        <pt x="280" y="270" on="0"/>
        <pt x="235" y="324" on="1"/>
        <pt x="217" y="319" on="0"/>
        <pt x="183" y="292" on="0"/>
        <pt x="157" y="254" on="0"/>
        <pt x="142" y="209" on="0"/>
        <pt x="142" y="187" on="1"/>
        <pt x="142" y="170" on="0"/>
        <pt x="161" y="127" on="0"/>
        <pt x="196" y="89" on="0"/>
        <pt x="245" y="63" on="0"/>
        <pt x="274" y="63" on="1"/>
        <pt x="315" y="63" on="0"/>
        <pt x="396" y="84" on="0"/>
      </contour>
    </TTGlyph>
    <TTGlyph name="asciicircum" xMin="0" yMin="613" xMax="453" yMax="867">
      <contour>
        <pt x="426" y="613" on="1"/>
        <pt x="226" y="811" on="1"/>
        <pt x="27" y="613" on="1"/>
        <pt x="0" y="640" on="1"/>
        <pt x="226" y="867" on="1"/>
        <pt x="453" y="640" on="1"/>
      </contour>
    </TTGlyph>
    <TTGlyph name="asciitilde" xMin="55" yMin="178" xMax="507" yMax="282">
      <contour>
        <pt x="507" y="238" on="1"/>
        <pt x="473" y="206" on="0"/>
        <pt x="405" y="178" on="0"/>
        <pt x="373" y="178" on="1"/>
        <pt x="343" y="178" on="0"/>
        <pt x="292" y="198" on="0"/>
        <pt x="248" y="221" on="0"/>
        <pt x="210" y="241" on="0"/>
        <pt x="193" y="241" on="1"/>
        <pt x="181" y="241" on="0"/>
        <pt x="158" y="237" on="0"/>
        <pt x="131" y="225" on="0"/>
        <pt x="95" y="202" on="0"/>
        <pt x="70" y="183" on="1"/>
        <pt x="55" y="220" on="1"/>
        <pt x="93" y="253" on="0"/>
        <pt x="155" y="282" on="0"/>
        <pt x="193" y="282" on="1"/>
        <pt x="219" y="282" on="0"/>
        <pt x="260" y="262" on="0"/>
        <pt x="301" y="239" on="0"/>
        <pt x="344" y="219" on="0"/>
        <pt x="373" y="219" on="1"/>
        <pt x="399" y="219" on="0"/>
        <pt x="444" y="239" on="0"/>
        <pt x="481" y="268" on="1"/>
        <pt x="507" y="238" on="1"/>
      </contour>
    </TTGlyph>
    <TTGlyph name="asterisk" xMin="55" yMin="211" xMax="509" yMax="701">
      <contour>
        <pt x="479" y="308" on="1"/>
        <pt x="311" y="407" on="1"/>
        <pt x="311" y="211" on="1"/>
        <pt x="255" y="211" on="1"/>
        <pt x="255" y="407" on="1"/>
        <pt x="84" y="308" on="1"/>
        <pt x="55" y="358" on="1"/>
        <pt x="226" y="456" on="1"/>
        <pt x="55" y="555" on="1"/>
        <pt x="84" y="602" on="1"/>
        <pt x="252" y="505" on="1"/>
        <pt x="252" y="701" on="1"/>
        <pt x="311" y="701" on="1"/>
        <pt x="311" y="506" on="1"/>
        <pt x="479" y="602" on="1"/>
        <pt x="509" y="555" on="1"/>
        <pt x="337" y="456" on="1"/>
        <pt x="509" y="358" on="1"/>
      </contour>
    </TTGlyph>
    <TTGlyph name="at" xMin="52" yMin="-159" xMax="837" yMax="637">
      <contour>
        <pt x="837" y="265" on="1"/>
        <pt x="837" y="216" on="0"/>
        <pt x="810" y="127" on="0"/>
        <pt x="762" y="59" on="0"/>
        <pt x="696" y="18" on="0"/>
        <pt x="657" y="18" on="1"/>
        <pt x="615" y="18" on="0"/>
        <pt x="558" y="62" on="0"/>
        <pt x="540" y="103" on="1"/>
        <pt x="518" y="64" on="0"/>
        <pt x="458" y="22" on="0"/>
        <pt x="406" y="22" on="1"/>
        <pt x="372" y="22" on="0"/>
        <pt x="314" y="54" on="0"/>
        <pt x="271" y="110" on="0"/>
        <pt x="247" y="186" on="0"/>
        <pt x="247" y="231" on="1"/>
        <pt x="247" y="279" on="0"/>
        <pt x="271" y="356" on="0"/>
        <pt x="314" y="410" on="0"/>
        <pt x="372" y="438" on="0"/>
        <pt x="406" y="438" on="1"/>
        <pt x="448" y="438" on="0"/>
        <pt x="503" y="414" on="0"/>
        <pt x="531" y="379" on="1"/>
        <pt x="531" y="432" on="1"/>
        <pt x="612" y="432" on="1"/>
        <pt x="612" y="132" on="1"/>
        <pt x="612" y="119" on="0"/>
        <pt x="623" y="105" on="0"/>
        <pt x="639" y="98" on="0"/>
        <pt x="657" y="96" on="0"/>
        <pt x="664" y="96" on="1"/>
        <pt x="676" y="96" on="0"/>
        <pt x="706" y="112" on="0"/>
        <pt x="733" y="151" on="0"/>
        <pt x="751" y="216" on="0"/>
        <pt x="751" y="265" on="1"/>
        <pt x="751" y="347" on="0"/>
        <pt x="707" y="459" on="0"/>
        <pt x="626" y="528" on="0"/>
        <pt x="513" y="558" on="0"/>
        <pt x="444" y="558" on="1"/>
        <pt x="393" y="558" on="0"/>
        <pt x="285" y="529" on="0"/>
        <pt x="196" y="459" on="0"/>
        <pt x="138" y="344" on="0"/>
        <pt x="138" y="259" on="1"/>
        <pt x="138" y="181" on="0"/>
        <pt x="177" y="56" on="0"/>
        <pt x="256" y="-31" on="0"/>
        <pt x="375" y="-78" on="0"/>
        <pt x="454" y="-78" on="1"/>
        <pt x="480" y="-78" on="0"/>
        <pt x="517" y="-78" on="0"/>
        <pt x="550" y="-75" on="0"/>
        <pt x="583" y="-68" on="0"/>
        <pt x="606" y="-62" on="1"/>
        <pt x="606" y="-135" on="1"/>
        <pt x="582" y="-144" on="0"/>
        <pt x="547" y="-153" on="0"/>
        <pt x="515" y="-158" on="0"/>
        <pt x="483" y="-159" on="0"/>
        <pt x="462" y="-159" on="1"/>
        <pt x="387" y="-159" on="0"/>
        <pt x="240" y="-120" on="0"/>
        <pt x="124" y="-25" on="0"/>
        <pt x="52" y="136" on="0"/>
        <pt x="52" y="258" on="1"/>
        <pt x="52" y="348" on="0"/>
        <pt x="118" y="489" on="0"/>
        <pt x="226" y="586" on="0"/>
        <pt x="365" y="637" on="0"/>
        <pt x="438" y="637" on="1"/>
        <pt x="528" y="637" on="0"/>
        <pt x="675" y="590" on="0"/>
        <pt x="780" y="496" on="0"/>
        <pt x="837" y="357" on="0"/>
      </contour>
      <contour>
        <pt x="528" y="237" on="1"/>
        <pt x="528" y="265" on="0"/>
        <pt x="516" y="316" on="0"/>
        <pt x="492" y="354" on="0"/>
        <pt x="455" y="376" on="0"/>
        <pt x="430" y="376" on="1"/>
        <pt x="404" y="376" on="0"/>
        <pt x="367" y="353" on="0"/>
        <pt x="344" y="314" on="0"/>
        <pt x="333" y="264" on="0"/>
        <pt x="333" y="237" on="1"/>
        <pt x="333" y="209" on="0"/>
        <pt x="341" y="154" on="0"/>
        <pt x="363" y="111" on="0"/>
        <pt x="400" y="84" on="0"/>
        <pt x="430" y="84" on="1"/>
        <pt x="455" y="84" on="0"/>
        <pt x="492" y="110" on="0"/>
        <pt x="516" y="153" on="0"/>
        <pt x="528" y="208" on="0"/>
      </contour>
    </TTGlyph>
    <TTGlyph name="b" xMin="61" yMin="-12" xMax="481" yMax="643">
      <contour>
        <pt x="481" y="241" on="1"/>
        <pt x="481" y="179" on="0"/>
        <pt x="447" y="85" on="0"/>
        <pt x="393" y="21" on="0"/>
        <pt x="326" y="-12" on="0"/>
        <pt x="292" y="-12" on="1"/>
        <pt x="239" y="-12" on="0"/>
        <pt x="165" y="27" on="0"/>
        <pt x="142" y="52" on="1"/>
        <pt x="142" y="0" on="1"/>
        <pt x="61" y="0" on="1"/>
        <pt x="61" y="643" on="1"/>
        <pt x="139" y="643" on="1"/>
        <pt x="139" y="384" on="1"/>
        <pt x="148" y="396" on="0"/>
        <pt x="173" y="422" on="0"/>
        <pt x="210" y="443" on="0"/>
        <pt x="259" y="456" on="0"/>
        <pt x="291" y="456" on="1"/>
        <pt x="346" y="456" on="0"/>
        <pt x="419" y="412" on="0"/>
        <pt x="463" y="346" on="0"/>
        <pt x="481" y="271" on="0"/>
      </contour>
      <contour>
        <pt x="394" y="232" on="1"/>
        <pt x="394" y="265" on="0"/>
        <pt x="381" y="328" on="0"/>
        <pt x="352" y="376" on="0"/>
        <pt x="305" y="405" on="0"/>
        <pt x="270" y="405" on="1"/>
        <pt x="237" y="405" on="0"/>
        <pt x="188" y="375" on="0"/>
        <pt x="156" y="326" on="0"/>
        <pt x="141" y="264" on="0"/>
        <pt x="141" y="232" on="1"/>
        <pt x="141" y="141" on="0"/>
        <pt x="205" y="48" on="0"/>
        <pt x="268" y="48" on="1"/>
        <pt x="295" y="48" on="0"/>
        <pt x="341" y="73" on="0"/>
        <pt x="375" y="121" on="0"/>
        <pt x="394" y="189" on="0"/>
      </contour>
    </TTGlyph>
    <TTGlyph name="backslash" xMin="55" yMin="-212" xMax="439" yMax="813">
      <contour>
        <pt x="402" y="-212" on="1"/>
        <pt x="55" y="775" on="1"/>
        <pt x="93" y="813" on="1"/>
        <pt x="439" y="-174" on="1"/>
      </contour>
    </TTGlyph>
    <TTGlyph name="bar" xMin="130" yMin="-230" xMax="177" yMax="709">
      <contour>
        <pt x="130" y="-230" on="1"/>
        <pt x="130" y="709" on="1"/>
        <pt x="177" y="709" on="1"/>
        <pt x="177" y="-230" on="1"/>
      </contour>
    </TTGlyph>
    <TTGlyph name="braceleft" xMin="70" yMin="-443" xMax="351" yMax="892">
      <contour>
        <pt x="351" y="-443" on="1"/>
        <pt x="291" y="-443" on="0"/>
        <pt x="222" y="-367" on="0"/>
        <pt x="188" y="-235" on="0"/>
        <pt x="180" y="-56" on="0"/>
        <pt x="180" y="46" on="1"/>
        <pt x="180" y="85" on="0"/>
        <pt x="146" y="137" on="0"/>
        <pt x="104" y="176" on="0"/>
        <pt x="70" y="207" on="0"/>
        <pt x="70" y="225" on="1"/>
        <pt x="70" y="242" on="0"/>
        <pt x="104" y="273" on="0"/>
        <pt x="146" y="312" on="0"/>
        <pt x="180" y="365" on="0"/>
        <pt x="180" y="403" on="1"/>
        <pt x="180" y="505" on="0"/>
        <pt x="188" y="684" on="0"/>
        <pt x="222" y="816" on="0"/>
        <pt x="291" y="892" on="0"/>
        <pt x="351" y="892" on="1"/>
        <pt x="351" y="843" on="1"/>
        <pt x="312" y="843" on="0"/>
        <pt x="265" y="783" on="0"/>
        <pt x="239" y="667" on="0"/>
        <pt x="231" y="497" on="0"/>
        <pt x="231" y="388" on="1"/>
        <pt x="231" y="346" on="0"/>
        <pt x="197" y="289" on="0"/>
        <pt x="155" y="252" on="0"/>
        <pt x="121" y="231" on="0"/>
        <pt x="121" y="225" on="1"/>
        <pt x="121" y="219" on="0"/>
        <pt x="155" y="198" on="0"/>
        <pt x="197" y="160" on="0"/>
        <pt x="231" y="103" on="0"/>
        <pt x="231" y="61" on="1"/>
        <pt x="231" y="-48" on="0"/>
        <pt x="239" y="-217" on="0"/>
        <pt x="265" y="-333" on="0"/>
        <pt x="312" y="-393" on="0"/>
        <pt x="351" y="-393" on="1"/>
        <pt x="351" y="-443" on="1"/>
      </contour>
    </TTGlyph>
    <TTGlyph name="braceright" xMin="55" yMin="-443" xMax="336" yMax="892">
      <contour>
        <pt x="336" y="225" on="1"/>
        <pt x="336" y="207" on="0"/>
        <pt x="302" y="176" on="0"/>
        <pt x="260" y="137" on="0"/>
        <pt x="226" y="85" on="0"/>
        <pt x="226" y="46" on="1"/>
        <pt x="226" y="-56" on="0"/>
        <pt x="218" y="-235" on="0"/>
        <pt x="184" y="-367" on="0"/>
        <pt x="115" y="-443" on="0"/>
        <pt x="55" y="-443" on="1"/>
        <pt x="55" y="-393" on="1"/>
        <pt x="94" y="-393" on="0"/>
        <pt x="141" y="-333" on="0"/>
        <pt x="167" y="-217" on="0"/>
        <pt x="175" y="-48" on="0"/>
        <pt x="175" y="61" on="1"/>
        <pt x="175" y="103" on="0"/>
        <pt x="209" y="160" on="0"/>
        <pt x="251" y="198" on="0"/>
        <pt x="285" y="219" on="0"/>
        <pt x="285" y="225" on="1"/>
        <pt x="285" y="231" on="0"/>
        <pt x="251" y="252" on="0"/>
        <pt x="209" y="289" on="0"/>
        <pt x="175" y="346" on="0"/>
        <pt x="175" y="388" on="1"/>
        <pt x="175" y="497" on="0"/>
        <pt x="167" y="667" on="0"/>
        <pt x="141" y="783" on="0"/>
        <pt x="94" y="843" on="0"/>
        <pt x="55" y="843" on="1"/>
        <pt x="55" y="892" on="1"/>
        <pt x="115" y="892" on="0"/>
        <pt x="184" y="816" on="0"/>
        <pt x="218" y="684" on="0"/>
        <pt x="226" y="505" on="0"/>
        <pt x="226" y="403" on="1"/>
        <pt x="226" y="365" on="0"/>
        <pt x="260" y="312" on="0"/>
        <pt x="302" y="273" on="0"/>
        <pt x="336" y="242" on="0"/>
      </contour>
    </TTGlyph>
    <TTGlyph name="bracketleft" xMin="94" yMin="-177" xMax="259" yMax="643">
      <contour>
        <pt x="94" y="-177" on="1"/>
        <pt x="94" y="643" on="1"/>
        <pt x="259" y="643" on="1"/>
        <pt x="259" y="597" on="1"/>
        <pt x="171" y="597" on="1"/>
        <pt x="171" y="-132" on="1"/>
        <pt x="259" y="-132" on="1"/>
        <pt x="259" y="-177" on="1"/>
      </contour>
    </TTGlyph>
    <TTGlyph name="bracketright" xMin="94" yMin="-177" xMax="259" yMax="643">
      <contour>
        <pt x="94" y="-177" on="1"/>
        <pt x="94" y="-132" on="1"/>
        <pt x="183" y="-132" on="1"/>
        <pt x="183" y="597" on="1"/>
        <pt x="94" y="597" on="1"/>
        <pt x="94" y="643" on="1"/>
        <pt x="259" y="643" on="1"/>
        <pt x="259" y="-177" on="1"/>
      </contour>
    </TTGlyph>
    <TTGlyph name="c" xMin="45" yMin="-12" xMax="420" yMax="456">
      <contour>
        <pt x="420" y="150" on="1"/>
        <pt x="420" y="120" on="0"/>
        <pt x="402" y="61" on="0"/>
        <pt x="360" y="16" on="0"/>
        <pt x="291" y="-12" on="0"/>
        <pt x="241" y="-12" on="1"/>
        <pt x="141" y="-12" on="0"/>
        <pt x="45" y="105" on="0"/>
        <pt x="45" y="222" on="1"/>
        <pt x="45" y="340" on="0"/>
        <pt x="132" y="456" on="0"/>
        <pt x="232" y="456" on="1"/>
        <pt x="283" y="456" on="0"/>
        <pt x="355" y="434" on="0"/>
        <pt x="400" y="394" on="0"/>
        <pt x="418" y="339" on="0"/>
        <pt x="415" y="306" on="1"/>
        <pt x="336" y="306" on="1"/>
        <pt x="340" y="332" on="0"/>
        <pt x="324" y="367" on="0"/>
        <pt x="291" y="388" on="0"/>
        <pt x="248" y="396" on="0"/>
        <pt x="226" y="396" on="1"/>
        <pt x="205" y="396" on="0"/>
        <pt x="167" y="378" on="0"/>
        <pt x="140" y="337" on="0"/>
        <pt x="124" y="270" on="0"/>
        <pt x="124" y="222" on="1"/>
        <pt x="124" y="126" on="0"/>
        <pt x="185" y="48" on="0"/>
        <pt x="241" y="48" on="1"/>
        <pt x="270" y="48" on="0"/>
        <pt x="308" y="69" on="0"/>
        <pt x="331" y="100" on="0"/>
        <pt x="340" y="135" on="0"/>
        <pt x="340" y="150" on="1"/>
        <pt x="420" y="150" on="1"/>
      </contour>
    </TTGlyph>
    <TTGlyph name="circledash" xMin="54" yMin="-30" xMax="580" yMax="493">
      <component glyphName="u1700" x="0" y="0" flags="0x0"/>
    </TTGlyph>
    <TTGlyph name="colon" xMin="40" yMin="-15" xMax="159" yMax="459">
      <contour>
        <pt x="159" y="400" on="1"/>
        <pt x="159" y="377" on="0"/>
        <pt x="123" y="343" on="0"/>
        <pt x="100" y="343" on="1"/>
        <pt x="77" y="343" on="0"/>
        <pt x="40" y="377" on="0"/>
        <pt x="40" y="400" on="1"/>
        <pt x="40" y="424" on="0"/>
        <pt x="77" y="459" on="0"/>
        <pt x="100" y="459" on="1"/>
        <pt x="123" y="459" on="0"/>
        <pt x="159" y="424" on="0"/>
      </contour>
      <contour>
        <pt x="159" y="43" on="1"/>
        <pt x="159" y="20" on="0"/>
        <pt x="123" y="-15" on="0"/>
        <pt x="100" y="-15" on="1"/>
        <pt x="77" y="-15" on="0"/>
        <pt x="40" y="20" on="0"/>
        <pt x="40" y="43" on="1"/>
        <pt x="40" y="67" on="0"/>
        <pt x="77" y="100" on="0"/>
        <pt x="100" y="100" on="1"/>
        <pt x="123" y="100" on="0"/>
        <pt x="159" y="67" on="0"/>
      </contour>
    </TTGlyph>
    <TTGlyph name="comma" xMin="40" yMin="-151" xMax="191" yMax="133">
      <contour>
        <pt x="191" y="53" on="1"/>
        <pt x="191" y="15" on="0"/>
        <pt x="172" y="-54" on="0"/>
        <pt x="142" y="-108" on="0"/>
        <pt x="105" y="-145" on="0"/>
        <pt x="88" y="-151" on="1"/>
        <pt x="74" y="-142" on="1"/>
        <pt x="104" y="-121" on="0"/>
        <pt x="140" y="-49" on="0"/>
        <pt x="140" y="-4" on="1"/>
        <pt x="140" y="11" on="0"/>
        <pt x="139" y="22" on="0"/>
        <pt x="137" y="27" on="1"/>
        <pt x="134" y="24" on="0"/>
        <pt x="116" y="15" on="0"/>
        <pt x="95" y="6" on="0"/>
        <pt x="73" y="0" on="0"/>
        <pt x="65" y="0" on="1"/>
        <pt x="57" y="0" on="0"/>
        <pt x="47" y="11" on="0"/>
        <pt x="42" y="27" on="0"/>
        <pt x="40" y="45" on="0"/>
        <pt x="40" y="53" on="1"/>
        <pt x="40" y="71" on="0"/>
        <pt x="53" y="100" on="0"/>
        <pt x="75" y="121" on="0"/>
        <pt x="102" y="133" on="0"/>
        <pt x="116" y="133" on="1"/>
        <pt x="145" y="133" on="0"/>
        <pt x="191" y="92" on="0"/>
      </contour>
    </TTGlyph>
    <TTGlyph name="d" xMin="45" yMin="-12" xMax="463" yMax="643">
      <contour>
        <pt x="384" y="0" on="1"/>
        <pt x="384" y="51" on="1"/>
        <pt x="365" y="29" on="0"/>
        <pt x="297" y="-12" on="0"/>
        <pt x="252" y="-12" on="1"/>
        <pt x="213" y="-12" on="0"/>
        <pt x="139" y="22" on="0"/>
        <pt x="80" y="82" on="0"/>
        <pt x="45" y="165" on="0"/>
        <pt x="45" y="214" on="1"/>
        <pt x="45" y="254" on="0"/>
        <pt x="64" y="340" on="0"/>
        <pt x="107" y="411" on="0"/>
        <pt x="177" y="456" on="0"/>
        <pt x="229" y="456" on="1"/>
        <pt x="277" y="456" on="0"/>
        <pt x="358" y="422" on="0"/>
        <pt x="384" y="387" on="1"/>
        <pt x="384" y="643" on="1"/>
        <pt x="463" y="643" on="1"/>
        <pt x="463" y="0" on="1"/>
      </contour>
      <contour>
        <pt x="381" y="219" on="1"/>
        <pt x="381" y="255" on="0"/>
        <pt x="361" y="322" on="0"/>
        <pt x="324" y="373" on="0"/>
        <pt x="273" y="403" on="0"/>
        <pt x="243" y="403" on="1"/>
        <pt x="211" y="403" on="0"/>
        <pt x="166" y="370" on="0"/>
        <pt x="138" y="319" on="0"/>
        <pt x="126" y="255" on="0"/>
        <pt x="126" y="225" on="1"/>
        <pt x="126" y="190" on="0"/>
        <pt x="144" y="127" on="0"/>
        <pt x="178" y="80" on="0"/>
        <pt x="226" y="52" on="0"/>
        <pt x="255" y="52" on="1"/>
        <pt x="288" y="52" on="0"/>
        <pt x="336" y="83" on="0"/>
        <pt x="366" y="132" on="0"/>
        <pt x="381" y="191" on="0"/>
      </contour>
    </TTGlyph>
    <TTGlyph name="dollar" xMin="31" yMin="-93" xMax="466" yMax="708">
      <contour>
        <pt x="466" y="172" on="1"/>
        <pt x="466" y="121" on="0"/>
        <pt x="434" y="53" on="0"/>
        <pt x="380" y="10" on="0"/>
        <pt x="310" y="-10" on="0"/>
        <pt x="273" y="-12" on="1"/>
        <pt x="273" y="-93" on="1"/>
        <pt x="228" y="-93" on="1"/>
        <pt x="228" y="-14" on="1"/>
        <pt x="178" y="-14" on="0"/>
        <pt x="104" y="15" on="0"/>
        <pt x="55" y="68" on="0"/>
        <pt x="31" y="141" on="0"/>
        <pt x="31" y="186" on="1"/>
        <pt x="121" y="186" on="1"/>
        <pt x="121" y="162" on="0"/>
        <pt x="131" y="117" on="0"/>
        <pt x="155" y="84" on="0"/>
        <pt x="196" y="64" on="0"/>
        <pt x="228" y="64" on="1"/>
        <pt x="228" y="286" on="1"/>
        <pt x="190" y="296" on="0"/>
        <pt x="121" y="317" on="0"/>
        <pt x="69" y="354" on="0"/>
        <pt x="39" y="415" on="0"/>
        <pt x="39" y="465" on="1"/>
        <pt x="39" y="501" on="0"/>
        <pt x="63" y="564" on="0"/>
        <pt x="111" y="610" on="0"/>
        <pt x="182" y="636" on="0"/>
        <pt x="228" y="636" on="1"/>
        <pt x="228" y="708" on="1"/>
        <pt x="273" y="708" on="1"/>
        <pt x="273" y="637" on="1"/>
        <pt x="318" y="637" on="0"/>
        <pt x="382" y="609" on="0"/>
        <pt x="422" y="561" on="0"/>
        <pt x="441" y="499" on="0"/>
        <pt x="441" y="466" on="1"/>
        <pt x="351" y="466" on="1"/>
        <pt x="351" y="519" on="0"/>
        <pt x="318" y="558" on="0"/>
        <pt x="273" y="558" on="1"/>
        <pt x="273" y="363" on="1"/>
        <pt x="296" y="358" on="0"/>
        <pt x="362" y="344" on="0"/>
        <pt x="423" y="306" on="0"/>
        <pt x="466" y="235" on="0"/>
      </contour>
      <contour>
        <pt x="228" y="558" on="1"/>
        <pt x="192" y="558" on="0"/>
        <pt x="153" y="542" on="0"/>
        <pt x="133" y="516" on="0"/>
        <pt x="129" y="481" on="0"/>
        <pt x="129" y="462" on="1"/>
        <pt x="129" y="434" on="0"/>
        <pt x="142" y="405" on="0"/>
        <pt x="168" y="388" on="0"/>
        <pt x="204" y="380" on="0"/>
        <pt x="228" y="373" on="1"/>
      </contour>
      <contour>
        <pt x="376" y="166" on="1"/>
        <pt x="376" y="202" on="0"/>
        <pt x="361" y="243" on="0"/>
        <pt x="333" y="266" on="0"/>
        <pt x="295" y="276" on="0"/>
        <pt x="273" y="282" on="1"/>
        <pt x="273" y="66" on="1"/>
        <pt x="326" y="67" on="0"/>
        <pt x="376" y="109" on="0"/>
      </contour>
    </TTGlyph>
    <TTGlyph name="e" xMin="45" yMin="-12" xMax="451" yMax="456">
      <contour>
        <pt x="448" y="142" on="1"/>
        <pt x="443" y="115" on="0"/>
        <pt x="416" y="60" on="0"/>
        <pt x="368" y="16" on="0"/>
        <pt x="296" y="-12" on="0"/>
        <pt x="247" y="-12" on="1"/>
        <pt x="191" y="-12" on="0"/>
        <pt x="114" y="32" on="0"/>
        <pt x="66" y="101" on="0"/>
        <pt x="45" y="184" on="0"/>
        <pt x="45" y="222" on="1"/>
        <pt x="45" y="264" on="0"/>
        <pt x="66" y="347" on="0"/>
        <pt x="114" y="414" on="0"/>
        <pt x="194" y="456" on="0"/>
        <pt x="253" y="456" on="1"/>
        <pt x="318" y="456" on="0"/>
        <pt x="396" y="412" on="0"/>
        <pt x="438" y="349" on="0"/>
        <pt x="451" y="278" on="0"/>
        <pt x="451" y="252" on="1"/>
        <pt x="451" y="242" on="0"/>
        <pt x="450" y="220" on="0"/>
        <pt x="448" y="210" on="1"/>
        <pt x="130" y="210" on="1"/>
        <pt x="130" y="175" on="0"/>
        <pt x="143" y="116" on="0"/>
        <pt x="171" y="71" on="0"/>
        <pt x="217" y="46" on="0"/>
        <pt x="249" y="46" on="1"/>
        <pt x="280" y="46" on="0"/>
        <pt x="321" y="65" on="0"/>
        <pt x="348" y="94" on="0"/>
        <pt x="361" y="127" on="0"/>
        <pt x="363" y="142" on="1"/>
      </contour>
      <contour>
        <pt x="363" y="268" on="1"/>
        <pt x="366" y="292" on="0"/>
        <pt x="358" y="340" on="0"/>
        <pt x="332" y="377" on="0"/>
        <pt x="285" y="400" on="0"/>
        <pt x="249" y="400" on="1"/>
        <pt x="216" y="400" on="0"/>
        <pt x="173" y="373" on="0"/>
        <pt x="146" y="333" on="0"/>
        <pt x="133" y="287" on="0"/>
        <pt x="130" y="268" on="1"/>
      </contour>
    </TTGlyph>
    <TTGlyph name="eight" xMin="39" yMin="-12" xMax="460" yMax="655">
      <contour>
        <pt x="460" y="165" on="1"/>
        <pt x="460" y="115" on="0"/>
        <pt x="420" y="48" on="0"/>
        <pt x="359" y="6" on="0"/>
        <pt x="284" y="-12" on="0"/>
        <pt x="249" y="-12" on="1"/>
        <pt x="214" y="-12" on="0"/>
        <pt x="140" y="6" on="0"/>
        <pt x="79" y="48" on="0"/>
        <pt x="39" y="115" on="0"/>
        <pt x="39" y="165" on="1"/>
        <pt x="39" y="202" on="0"/>
        <pt x="62" y="260" on="0"/>
        <pt x="97" y="302" on="0"/>
        <pt x="140" y="331" on="0"/>
        <pt x="160" y="340" on="1"/>
        <pt x="142" y="349" on="0"/>
        <pt x="106" y="376" on="0"/>
        <pt x="76" y="414" on="0"/>
        <pt x="57" y="465" on="0"/>
        <pt x="57" y="498" on="1"/>
        <pt x="57" y="538" on="0"/>
        <pt x="92" y="598" on="0"/>
        <pt x="147" y="636" on="0"/>
        <pt x="216" y="655" on="0"/>
        <pt x="249" y="655" on="1"/>
        <pt x="283" y="655" on="0"/>
        <pt x="352" y="636" on="0"/>
        <pt x="407" y="598" on="0"/>
        <pt x="442" y="538" on="0"/>
        <pt x="442" y="498" on="1"/>
        <pt x="442" y="468" on="0"/>
        <pt x="423" y="417" on="0"/>
        <pt x="393" y="377" on="0"/>
        <pt x="355" y="348" on="0"/>
        <pt x="336" y="340" on="1"/>
        <pt x="354" y="333" on="0"/>
        <pt x="397" y="305" on="0"/>
        <pt x="435" y="261" on="0"/>
        <pt x="460" y="202" on="0"/>
      </contour>
      <contour>
        <pt x="360" y="480" on="1"/>
        <pt x="360" y="530" on="0"/>
        <pt x="302" y="586" on="0"/>
        <pt x="249" y="586" on="1"/>
        <pt x="197" y="586" on="0"/>
        <pt x="139" y="530" on="0"/>
        <pt x="139" y="480" on="1"/>
        <pt x="139" y="456" on="0"/>
        <pt x="157" y="416" on="0"/>
        <pt x="187" y="388" on="0"/>
        <pt x="227" y="373" on="0"/>
        <pt x="249" y="373" on="1"/>
        <pt x="271" y="373" on="0"/>
        <pt x="312" y="388" on="0"/>
        <pt x="342" y="416" on="0"/>
        <pt x="360" y="456" on="0"/>
      </contour>
      <contour>
        <pt x="373" y="183" on="1"/>
        <pt x="373" y="237" on="0"/>
        <pt x="310" y="306" on="0"/>
        <pt x="249" y="306" on="1"/>
        <pt x="190" y="306" on="0"/>
        <pt x="123" y="237" on="0"/>
        <pt x="123" y="183" on="1"/>
        <pt x="123" y="129" on="0"/>
        <pt x="182" y="57" on="0"/>
        <pt x="249" y="57" on="1"/>
        <pt x="317" y="57" on="0"/>
        <pt x="373" y="129" on="0"/>
      </contour>
    </TTGlyph>
    <TTGlyph name="emdash" xMin="0" yMin="196" xMax="824" yMax="247">
      <contour>
        <pt x="0" y="196" on="1"/>
        <pt x="0" y="247" on="1"/>
        <pt x="824" y="247" on="1"/>
        <pt x="824" y="196" on="1"/>
      </contour>
    </TTGlyph>
    <TTGlyph name="endash" xMin="0" yMin="196" xMax="465" yMax="247">
      <contour>
        <pt x="0" y="196" on="1"/>
        <pt x="0" y="247" on="1"/>
        <pt x="465" y="247" on="1"/>
        <pt x="465" y="196" on="1"/>
      </contour>
    </TTGlyph>
    <TTGlyph name="equal" xMin="55" yMin="111" xMax="520" yMax="333">
      <contour>
        <pt x="520" y="111" on="1"/>
        <pt x="55" y="111" on="1"/>
        <pt x="55" y="162" on="1"/>
        <pt x="520" y="162" on="1"/>
      </contour>
      <contour>
        <pt x="520" y="282" on="1"/>
        <pt x="55" y="282" on="1"/>
        <pt x="55" y="333" on="1"/>
        <pt x="520" y="333" on="1"/>
      </contour>
    </TTGlyph>
    <TTGlyph name="exclam" xMin="56" yMin="-15" xMax="174" yMax="813">
      <contour>
        <pt x="174" y="42" on="1"/>
        <pt x="174" y="19" on="0"/>
        <pt x="138" y="-15" on="0"/>
        <pt x="115" y="-15" on="1"/>
        <pt x="92" y="-15" on="0"/>
        <pt x="56" y="19" on="0"/>
        <pt x="56" y="42" on="1"/>
        <pt x="56" y="65" on="0"/>
        <pt x="92" y="99" on="0"/>
        <pt x="115" y="99" on="1"/>
        <pt x="138" y="99" on="0"/>
        <pt x="174" y="65" on="0"/>
      </contour>
      <contour>
        <pt x="115" y="813" on="1"/>
        <pt x="129" y="813" on="0"/>
        <pt x="148" y="789" on="0"/>
        <pt x="150" y="757" on="1"/>
        <pt x="151" y="746" on="0"/>
        <pt x="151" y="720" on="0"/>
        <pt x="151" y="706" on="1"/>
        <pt x="151" y="587" on="0"/>
        <pt x="142" y="372" on="0"/>
        <pt x="131" y="268" on="1"/>
        <pt x="128" y="238" on="0"/>
        <pt x="123" y="203" on="0"/>
        <pt x="120" y="185" on="0"/>
        <pt x="117" y="180" on="0"/>
        <pt x="115" y="180" on="1"/>
        <pt x="113" y="180" on="0"/>
        <pt x="110" y="185" on="0"/>
        <pt x="107" y="203" on="0"/>
        <pt x="102" y="238" on="0"/>
        <pt x="99" y="269" on="1"/>
        <pt x="88" y="372" on="0"/>
        <pt x="80" y="587" on="0"/>
        <pt x="80" y="706" on="1"/>
        <pt x="80" y="720" on="0"/>
        <pt x="80" y="746" on="0"/>
        <pt x="81" y="757" on="1"/>
        <pt x="83" y="789" on="0"/>
        <pt x="101" y="813" on="0"/>
      </contour>
    </TTGlyph>
    <TTGlyph name="f" xMin="9" yMin="0" xMax="294" yMax="651">
      <contour>
        <pt x="294" y="577" on="1"/>
        <pt x="283" y="582" on="0"/>
        <pt x="260" y="588" on="0"/>
        <pt x="246" y="588" on="1"/>
        <pt x="210" y="588" on="0"/>
        <pt x="178" y="553" on="0"/>
        <pt x="178" y="510" on="1"/>
        <pt x="178" y="445" on="1"/>
        <pt x="285" y="445" on="1"/>
        <pt x="285" y="387" on="1"/>
        <pt x="178" y="387" on="1"/>
        <pt x="178" y="0" on="1"/>
        <pt x="97" y="0" on="1"/>
        <pt x="97" y="387" on="1"/>
        <pt x="9" y="387" on="1"/>
        <pt x="9" y="445" on="1"/>
        <pt x="97" y="445" on="1"/>
        <pt x="97" y="513" on="1"/>
        <pt x="97" y="554" on="0"/>
        <pt x="115" y="608" on="0"/>
        <pt x="149" y="639" on="0"/>
        <pt x="198" y="651" on="0"/>
        <pt x="230" y="651" on="1"/>
        <pt x="246" y="651" on="0"/>
        <pt x="277" y="648" on="0"/>
        <pt x="294" y="643" on="1"/>
        <pt x="294" y="577" on="1"/>
      </contour>
    </TTGlyph>
    <TTGlyph name="five" xMin="46" yMin="-12" xMax="450" yMax="643">
      <contour>
        <pt x="450" y="210" on="1"/>
        <pt x="450" y="172" on="0"/>
        <pt x="421" y="93" on="0"/>
        <pt x="369" y="29" on="0"/>
        <pt x="299" y="-12" on="0"/>
        <pt x="258" y="-12" on="1"/>
        <pt x="158" y="-12" on="0"/>
        <pt x="46" y="77" on="0"/>
        <pt x="46" y="156" on="1"/>
        <pt x="141" y="156" on="1"/>
        <pt x="141" y="106" on="0"/>
        <pt x="201" y="58" on="0"/>
        <pt x="247" y="58" on="1"/>
        <pt x="268" y="58" on="0"/>
        <pt x="309" y="77" on="0"/>
        <pt x="340" y="115" on="0"/>
        <pt x="360" y="171" on="0"/>
        <pt x="360" y="208" on="1"/>
        <pt x="360" y="277" on="0"/>
        <pt x="314" y="361" on="0"/>
        <pt x="256" y="361" on="1"/>
        <pt x="211" y="361" on="0"/>
        <pt x="154" y="306" on="0"/>
        <pt x="136" y="268" on="1"/>
        <pt x="57" y="268" on="1"/>
        <pt x="69" y="643" on="1"/>
        <pt x="409" y="643" on="1"/>
        <pt x="409" y="568" on="1"/>
        <pt x="156" y="568" on="1"/>
        <pt x="145" y="367" on="1"/>
        <pt x="169" y="396" on="0"/>
        <pt x="224" y="427" on="0"/>
        <pt x="274" y="427" on="1"/>
        <pt x="317" y="427" on="0"/>
        <pt x="382" y="392" on="0"/>
        <pt x="427" y="332" on="0"/>
        <pt x="450" y="253" on="0"/>
      </contour>
    </TTGlyph>
    <TTGlyph name="four" xMin="25" yMin="0" xMax="471" yMax="643">
      <contour>
        <pt x="391" y="156" on="1"/>
        <pt x="391" y="0" on="1"/>
        <pt x="309" y="0" on="1"/>
        <pt x="309" y="156" on="1"/>
        <pt x="25" y="156" on="1"/>
        <pt x="25" y="249" on="1"/>
        <pt x="294" y="643" on="1"/>
        <pt x="391" y="643" on="1"/>
        <pt x="391" y="231" on="1"/>
        <pt x="471" y="231" on="1"/>
        <pt x="471" y="156" on="1"/>
      </contour>
      <contour>
        <pt x="309" y="544" on="1"/>
        <pt x="97" y="231" on="1"/>
        <pt x="309" y="231" on="1"/>
      </contour>
    </TTGlyph>
    <TTGlyph name="g" xMin="45" yMin="-177" xMax="463" yMax="456">
      <contour>
        <pt x="463" y="25" on="1"/>
        <pt x="463" y="-18" on="0"/>
        <pt x="435" y="-92" on="0"/>
        <pt x="380" y="-146" on="0"/>
        <pt x="299" y="-177" on="0"/>
        <pt x="246" y="-177" on="1"/>
        <pt x="191" y="-177" on="0"/>
        <pt x="121" y="-145" on="0"/>
        <pt x="82" y="-100" on="0"/>
        <pt x="67" y="-52" on="0"/>
        <pt x="67" y="-36" on="1"/>
        <pt x="150" y="-36" on="1"/>
        <pt x="150" y="-59" on="0"/>
        <pt x="169" y="-91" on="0"/>
        <pt x="201" y="-112" on="0"/>
        <pt x="241" y="-122" on="0"/>
        <pt x="261" y="-122" on="1"/>
        <pt x="292" y="-122" on="0"/>
        <pt x="337" y="-102" on="0"/>
        <pt x="367" y="-54" on="0"/>
        <pt x="382" y="24" on="0"/>
        <pt x="382" y="82" on="1"/>
        <pt x="373" y="66" on="0"/>
        <pt x="342" y="40" on="0"/>
        <pt x="304" y="22" on="0"/>
        <pt x="262" y="12" on="0"/>
        <pt x="241" y="12" on="1"/>
        <pt x="151" y="12" on="0"/>
        <pt x="45" y="121" on="0"/>
        <pt x="45" y="237" on="1"/>
        <pt x="45" y="284" on="0"/>
        <pt x="72" y="364" on="0"/>
        <pt x="122" y="423" on="0"/>
        <pt x="190" y="456" on="0"/>
        <pt x="232" y="456" on="1"/>
        <pt x="291" y="456" on="0"/>
        <pt x="363" y="429" on="0"/>
        <pt x="382" y="396" on="1"/>
        <pt x="382" y="445" on="1"/>
        <pt x="463" y="445" on="1"/>
      </contour>
      <contour>
        <pt x="381" y="235" on="1"/>
        <pt x="381" y="271" on="0"/>
        <pt x="366" y="331" on="0"/>
        <pt x="334" y="375" on="0"/>
        <pt x="283" y="400" on="0"/>
        <pt x="247" y="400" on="1"/>
        <pt x="212" y="400" on="0"/>
        <pt x="166" y="374" on="0"/>
        <pt x="138" y="330" on="0"/>
        <pt x="127" y="271" on="0"/>
        <pt x="127" y="237" on="1"/>
        <pt x="127" y="161" on="0"/>
        <pt x="189" y="69" on="0"/>
        <pt x="252" y="69" on="1"/>
        <pt x="287" y="69" on="0"/>
        <pt x="336" y="97" on="0"/>
        <pt x="367" y="143" on="0"/>
        <pt x="381" y="203" on="0"/>
      </contour>
    </TTGlyph>
    <TTGlyph name="grave" xMin="-23" yMin="534" xMax="156" yMax="687">
      <contour>
        <pt x="102" y="534" on="1"/>
        <pt x="-23" y="687" on="1"/>
        <pt x="67" y="687" on="1"/>
        <pt x="156" y="534" on="1"/>
      </contour>
    </TTGlyph>
    <TTGlyph name="greater" xMin="178" yMin="34" xMax="712" yMax="499">
      <contour>
        <pt x="712" y="238" on="1"/>
        <pt x="178" y="34" on="1"/>
        <pt x="178" y="90" on="1"/>
        <pt x="655" y="267" on="1"/>
        <pt x="178" y="444" on="1"/>
        <pt x="178" y="499" on="1"/>
        <pt x="712" y="295" on="1"/>
      </contour>
    </TTGlyph>
    <TTGlyph name="h" xMin="61" yMin="0" xMax="448" yMax="643">
      <contour>
        <pt x="367" y="0" on="1"/>
        <pt x="367" y="280" on="1"/>
        <pt x="367" y="343" on="0"/>
        <pt x="311" y="399" on="0"/>
        <pt x="274" y="399" on="1"/>
        <pt x="242" y="399" on="0"/>
        <pt x="193" y="380" on="0"/>
        <pt x="159" y="352" on="0"/>
        <pt x="142" y="318" on="0"/>
        <pt x="142" y="303" on="1"/>
        <pt x="142" y="0" on="1"/>
        <pt x="61" y="0" on="1"/>
        <pt x="61" y="643" on="1"/>
        <pt x="142" y="643" on="1"/>
        <pt x="142" y="388" on="1"/>
        <pt x="163" y="417" on="0"/>
        <pt x="230" y="456" on="0"/>
        <pt x="282" y="456" on="1"/>
        <pt x="371" y="456" on="0"/>
        <pt x="448" y="370" on="0"/>
        <pt x="448" y="276" on="1"/>
        <pt x="448" y="0" on="1"/>
      </contour>
    </TTGlyph>
    <TTGlyph name="hyphen" xMin="55" yMin="196" xMax="439" yMax="247">
      <contour>
        <pt x="439" y="196" on="1"/>
        <pt x="55" y="196" on="1"/>
        <pt x="55" y="247" on="1"/>
        <pt x="439" y="247" on="1"/>
      </contour>
    </TTGlyph>
    <TTGlyph name="i" xMin="58" yMin="0" xMax="145" yMax="643">
      <contour>
        <pt x="58" y="561" on="1"/>
        <pt x="58" y="643" on="1"/>
        <pt x="145" y="643" on="1"/>
        <pt x="145" y="561" on="1"/>
      </contour>
      <contour>
        <pt x="61" y="0" on="1"/>
        <pt x="61" y="445" on="1"/>
        <pt x="142" y="445" on="1"/>
        <pt x="142" y="0" on="1"/>
      </contour>
    </TTGlyph>
    <TTGlyph name="j" xMin="-27" yMin="-188" xMax="195" yMax="643">
      <contour>
        <pt x="111" y="561" on="1"/>
        <pt x="111" y="643" on="1"/>
        <pt x="195" y="643" on="1"/>
        <pt x="195" y="561" on="1"/>
      </contour>
      <contour>
        <pt x="193" y="-72" on="1"/>
        <pt x="193" y="-93" on="0"/>
        <pt x="184" y="-135" on="0"/>
        <pt x="160" y="-168" on="0"/>
        <pt x="120" y="-188" on="0"/>
        <pt x="90" y="-188" on="1"/>
        <pt x="77" y="-188" on="0"/>
        <pt x="45" y="-182" on="0"/>
        <pt x="14" y="-170" on="0"/>
        <pt x="-16" y="-152" on="0"/>
        <pt x="-27" y="-141" on="1"/>
        <pt x="24" y="-90" on="1"/>
        <pt x="34" y="-103" on="0"/>
        <pt x="63" y="-117" on="0"/>
        <pt x="78" y="-117" on="1"/>
        <pt x="99" y="-117" on="0"/>
        <pt x="112" y="-80" on="0"/>
        <pt x="112" y="-45" on="1"/>
        <pt x="112" y="445" on="1"/>
        <pt x="193" y="445" on="1"/>
      </contour>
    </TTGlyph>
    <TTGlyph name="k" xMin="61" yMin="0" xMax="426" yMax="643">
      <contour>
        <pt x="319" y="0" on="1"/>
        <pt x="142" y="237" on="1"/>
        <pt x="142" y="0" on="1"/>
        <pt x="61" y="0" on="1"/>
        <pt x="61" y="643" on="1"/>
        <pt x="142" y="643" on="1"/>
        <pt x="142" y="259" on="1"/>
        <pt x="312" y="445" on="1"/>
        <pt x="412" y="445" on="1"/>
        <pt x="234" y="252" on="1"/>
        <pt x="426" y="0" on="1"/>
      </contour>
    </TTGlyph>
    <TTGlyph name="l" xMin="61" yMin="0" xMax="142" yMax="643">
      <contour>
        <pt x="61" y="0" on="1"/>
        <pt x="61" y="643" on="1"/>
        <pt x="142" y="643" on="1"/>
        <pt x="142" y="0" on="1"/>
      </contour>
    </TTGlyph>
    <TTGlyph name="less" xMin="178" yMin="34" xMax="712" yMax="499">
      <contour>
        <pt x="712" y="34" on="1"/>
        <pt x="178" y="238" on="1"/>
        <pt x="178" y="295" on="1"/>
        <pt x="712" y="499" on="1"/>
        <pt x="712" y="444" on="1"/>
        <pt x="235" y="267" on="1"/>
        <pt x="712" y="90" on="1"/>
      </contour>
    </TTGlyph>
    <TTGlyph name="m" xMin="61" yMin="0" xMax="736" yMax="456">
      <contour>
        <pt x="655" y="0" on="1"/>
        <pt x="655" y="288" on="1"/>
        <pt x="655" y="339" on="0"/>
        <pt x="607" y="400" on="0"/>
        <pt x="555" y="400" on="1"/>
        <pt x="531" y="400" on="0"/>
        <pt x="489" y="378" on="0"/>
        <pt x="458" y="345" on="0"/>
        <pt x="441" y="306" on="0"/>
        <pt x="441" y="288" on="1"/>
        <pt x="441" y="0" on="1"/>
        <pt x="360" y="0" on="1"/>
        <pt x="360" y="288" on="1"/>
        <pt x="360" y="309" on="0"/>
        <pt x="346" y="350" on="0"/>
        <pt x="321" y="381" on="0"/>
        <pt x="284" y="400" on="0"/>
        <pt x="262" y="400" on="1"/>
        <pt x="236" y="400" on="0"/>
        <pt x="192" y="378" on="0"/>
        <pt x="160" y="345" on="0"/>
        <pt x="142" y="305" on="0"/>
        <pt x="142" y="288" on="1"/>
        <pt x="142" y="0" on="1"/>
        <pt x="61" y="0" on="1"/>
        <pt x="61" y="445" on="1"/>
        <pt x="142" y="445" on="1"/>
        <pt x="142" y="384" on="1"/>
        <pt x="166" y="416" on="0"/>
        <pt x="230" y="456" on="0"/>
        <pt x="274" y="456" on="1"/>
        <pt x="306" y="456" on="0"/>
        <pt x="353" y="446" on="0"/>
        <pt x="388" y="427" on="0"/>
        <pt x="414" y="397" on="0"/>
        <pt x="426" y="378" on="1"/>
        <pt x="456" y="420" on="0"/>
        <pt x="528" y="456" on="0"/>
        <pt x="570" y="456" on="1"/>
        <pt x="624" y="456" on="0"/>
        <pt x="690" y="424" on="0"/>
        <pt x="725" y="374" on="0"/>
        <pt x="736" y="315" on="0"/>
        <pt x="736" y="288" on="1"/>
        <pt x="736" y="0" on="1"/>
      </contour>
    </TTGlyph>
    <TTGlyph name="multiply" xMin="93" yMin="69" xMax="402" yMax="378">
      <contour>
        <pt x="364" y="69" on="1"/>
        <pt x="247" y="186" on="1"/>
        <pt x="130" y="69" on="1"/>
        <pt x="93" y="106" on="1"/>
        <pt x="210" y="223" on="1"/>
        <pt x="93" y="340" on="1"/>
        <pt x="129" y="376" on="1"/>
        <pt x="246" y="259" on="1"/>
        <pt x="364" y="378" on="1"/>
        <pt x="402" y="340" on="1"/>
        <pt x="283" y="222" on="1"/>
        <pt x="400" y="105" on="1"/>
      </contour>
    </TTGlyph>
    <TTGlyph name="n" xMin="61" yMin="0" xMax="448" yMax="456">
      <contour>
        <pt x="369" y="0" on="1"/>
        <pt x="369" y="295" on="1"/>
        <pt x="369" y="317" on="0"/>
        <pt x="351" y="357" on="0"/>
        <pt x="321" y="386" on="0"/>
        <pt x="281" y="403" on="0"/>
        <pt x="259" y="403" on="1"/>
        <pt x="235" y="403" on="0"/>
        <pt x="193" y="386" on="0"/>
        <pt x="161" y="355" on="0"/>
        <pt x="142" y="313" on="0"/>
        <pt x="142" y="288" on="1"/>
        <pt x="142" y="0" on="1"/>
        <pt x="61" y="0" on="1"/>
        <pt x="61" y="445" on="1"/>
        <pt x="142" y="445" on="1"/>
        <pt x="142" y="388" on="1"/>
        <pt x="162" y="416" on="0"/>
        <pt x="223" y="456" on="0"/>
        <pt x="277" y="456" on="1"/>
        <pt x="325" y="456" on="0"/>
        <pt x="390" y="431" on="0"/>
        <pt x="431" y="388" on="0"/>
        <pt x="448" y="328" on="0"/>
        <pt x="448" y="292" on="1"/>
        <pt x="448" y="0" on="1"/>
      </contour>
    </TTGlyph>
    <TTGlyph name="nine" xMin="42" yMin="-14" xMax="456" yMax="655">
      <contour>
        <pt x="456" y="337" on="1"/>
        <pt x="456" y="275" on="0"/>
        <pt x="440" y="149" on="0"/>
        <pt x="393" y="49" on="0"/>
        <pt x="307" y="-14" on="0"/>
        <pt x="238" y="-14" on="1"/>
        <pt x="150" y="-14" on="0"/>
        <pt x="69" y="70" on="0"/>
        <pt x="58" y="153" on="1"/>
        <pt x="145" y="153" on="1"/>
        <pt x="149" y="97" on="0"/>
        <pt x="199" y="55" on="0"/>
        <pt x="240" y="55" on="1"/>
        <pt x="284" y="55" on="0"/>
        <pt x="335" y="114" on="0"/>
        <pt x="362" y="200" on="0"/>
        <pt x="369" y="293" on="0"/>
        <pt x="369" y="328" on="1"/>
        <pt x="344" y="287" on="0"/>
        <pt x="283" y="246" on="0"/>
        <pt x="231" y="246" on="1"/>
        <pt x="168" y="246" on="0"/>
        <pt x="94" y="289" on="0"/>
        <pt x="54" y="352" on="0"/>
        <pt x="42" y="422" on="0"/>
        <pt x="42" y="450" on="1"/>
        <pt x="42" y="480" on="0"/>
        <pt x="58" y="551" on="0"/>
        <pt x="102" y="613" on="0"/>
        <pt x="180" y="655" on="0"/>
        <pt x="241" y="655" on="1"/>
        <pt x="315" y="655" on="0"/>
        <pt x="401" y="614" on="0"/>
        <pt x="444" y="533" on="0"/>
        <pt x="456" y="414" on="0"/>
      </contour>
      <contour>
        <pt x="357" y="450" on="1"/>
        <pt x="357" y="516" on="0"/>
        <pt x="307" y="586" on="0"/>
        <pt x="244" y="586" on="1"/>
        <pt x="182" y="586" on="0"/>
        <pt x="132" y="516" on="0"/>
        <pt x="132" y="450" on="1"/>
        <pt x="132" y="384" on="0"/>
        <pt x="182" y="313" on="0"/>
        <pt x="244" y="313" on="1"/>
        <pt x="307" y="313" on="0"/>
        <pt x="357" y="384" on="0"/>
      </contour>
    </TTGlyph>
    <TTGlyph name="notequal" xMin="52" yMin="-38" xMax="520" yMax="469">
      <contour>
        <pt x="219" y="111" on="1"/>
        <pt x="87" y="-38" on="1"/>
        <pt x="52" y="0" on="1"/>
        <pt x="150" y="111" on="1"/>
        <pt x="55" y="111" on="1"/>
        <pt x="55" y="162" on="1"/>
        <pt x="195" y="162" on="1"/>
        <pt x="301" y="282" on="1"/>
        <pt x="55" y="282" on="1"/>
        <pt x="55" y="333" on="1"/>
        <pt x="346" y="333" on="1"/>
        <pt x="468" y="469" on="1"/>
        <pt x="507" y="433" on="1"/>
        <pt x="417" y="333" on="1"/>
        <pt x="520" y="333" on="1"/>
        <pt x="520" y="282" on="1"/>
        <pt x="370" y="282" on="1"/>
        <pt x="264" y="162" on="1"/>
        <pt x="520" y="162" on="1"/>
        <pt x="520" y="111" on="1"/>
      </contour>
    </TTGlyph>
    <TTGlyph name="numbersign" xMin="55" yMin="-30" xMax="460" yMax="489">
      <contour>
        <pt x="354" y="111" on="1"/>
        <pt x="336" y="-30" on="1"/>
        <pt x="285" y="-30" on="1"/>
        <pt x="303" y="111" on="1"/>
        <pt x="183" y="111" on="1"/>
        <pt x="165" y="-30" on="1"/>
        <pt x="114" y="-30" on="1"/>
        <pt x="132" y="111" on="1"/>
        <pt x="55" y="111" on="1"/>
        <pt x="55" y="162" on="1"/>
        <pt x="138" y="162" on="1"/>
        <pt x="153" y="282" on="1"/>
        <pt x="55" y="282" on="1"/>
        <pt x="55" y="333" on="1"/>
        <pt x="160" y="333" on="1"/>
        <pt x="180" y="489" on="1"/>
        <pt x="231" y="489" on="1"/>
        <pt x="211" y="333" on="1"/>
        <pt x="331" y="333" on="1"/>
        <pt x="351" y="489" on="1"/>
        <pt x="402" y="489" on="1"/>
        <pt x="382" y="333" on="1"/>
        <pt x="460" y="333" on="1"/>
        <pt x="460" y="282" on="1"/>
        <pt x="375" y="282" on="1"/>
        <pt x="360" y="162" on="1"/>
        <pt x="460" y="162" on="1"/>
        <pt x="460" y="111" on="1"/>
      </contour>
      <contour>
        <pt x="204" y="282" on="1"/>
        <pt x="189" y="162" on="1"/>
        <pt x="309" y="162" on="1"/>
        <pt x="324" y="282" on="1"/>
      </contour>
    </TTGlyph>
    <TTGlyph name="o" xMin="45" yMin="-12" xMax="483" yMax="456">
      <contour>
        <pt x="483" y="222" on="1"/>
        <pt x="483" y="162" on="0"/>
        <pt x="448" y="74" on="0"/>
        <pt x="389" y="16" on="0"/>
        <pt x="309" y="-12" on="0"/>
        <pt x="264" y="-12" on="1"/>
        <pt x="218" y="-12" on="0"/>
        <pt x="138" y="16" on="0"/>
        <pt x="79" y="74" on="0"/>
        <pt x="45" y="162" on="0"/>
        <pt x="45" y="222" on="1"/>
        <pt x="45" y="282" on="0"/>
        <pt x="79" y="370" on="0"/>
        <pt x="138" y="428" on="0"/>
        <pt x="218" y="456" on="0"/>
        <pt x="264" y="456" on="1"/>
        <pt x="309" y="456" on="0"/>
        <pt x="389" y="428" on="0"/>
        <pt x="448" y="370" on="0"/>
        <pt x="483" y="282" on="0"/>
      </contour>
      <contour>
        <pt x="399" y="222" on="1"/>
        <pt x="399" y="253" on="0"/>
        <pt x="383" y="317" on="0"/>
        <pt x="350" y="368" on="0"/>
        <pt x="299" y="400" on="0"/>
        <pt x="264" y="400" on="1"/>
        <pt x="228" y="400" on="0"/>
        <pt x="176" y="368" on="0"/>
        <pt x="143" y="317" on="0"/>
        <pt x="127" y="253" on="0"/>
        <pt x="127" y="222" on="1"/>
        <pt x="127" y="190" on="0"/>
        <pt x="143" y="128" on="0"/>
        <pt x="176" y="77" on="0"/>
        <pt x="228" y="46" on="0"/>
        <pt x="264" y="46" on="1"/>
        <pt x="299" y="46" on="0"/>
        <pt x="350" y="77" on="0"/>
        <pt x="383" y="128" on="0"/>
        <pt x="399" y="190" on="0"/>
      </contour>
    </TTGlyph>
    <TTGlyph name="one" xMin="115" yMin="0" xMax="337" yMax="643">
      <contour>
        <pt x="255" y="0" on="1"/>
        <pt x="255" y="535" on="1"/>
        <pt x="225" y="509" on="0"/>
        <pt x="153" y="471" on="0"/>
        <pt x="115" y="462" on="1"/>
        <pt x="115" y="535" on="1"/>
        <pt x="157" y="549" on="0"/>
        <pt x="224" y="606" on="0"/>
        <pt x="247" y="643" on="1"/>
        <pt x="337" y="643" on="1"/>
        <pt x="337" y="0" on="1"/>
      </contour>
    </TTGlyph>
    <TTGlyph name="p" xMin="61" yMin="-177" xMax="489" yMax="456">
      <contour>
        <pt x="489" y="222" on="1"/>
        <pt x="489" y="173" on="0"/>
        <pt x="467" y="87" on="0"/>
        <pt x="417" y="23" on="0"/>
        <pt x="339" y="-14" on="0"/>
        <pt x="282" y="-14" on="1"/>
        <pt x="237" y="-14" on="0"/>
        <pt x="171" y="23" on="0"/>
        <pt x="142" y="46" on="1"/>
        <pt x="142" y="-177" on="1"/>
        <pt x="61" y="-177" on="1"/>
        <pt x="61" y="445" on="1"/>
        <pt x="142" y="445" on="1"/>
        <pt x="142" y="388" on="1"/>
        <pt x="174" y="417" on="0"/>
        <pt x="237" y="456" on="0"/>
        <pt x="282" y="456" on="1"/>
        <pt x="339" y="456" on="0"/>
        <pt x="417" y="419" on="0"/>
        <pt x="467" y="356" on="0"/>
        <pt x="489" y="271" on="0"/>
      </contour>
      <contour>
        <pt x="403" y="222" on="1"/>
        <pt x="403" y="256" on="0"/>
        <pt x="389" y="320" on="0"/>
        <pt x="357" y="370" on="0"/>
        <pt x="308" y="400" on="0"/>
        <pt x="273" y="400" on="1"/>
        <pt x="237" y="400" on="0"/>
        <pt x="188" y="370" on="0"/>
        <pt x="156" y="320" on="0"/>
        <pt x="142" y="256" on="0"/>
        <pt x="142" y="222" on="1"/>
        <pt x="142" y="187" on="0"/>
        <pt x="156" y="124" on="0"/>
        <pt x="188" y="74" on="0"/>
        <pt x="237" y="45" on="0"/>
        <pt x="273" y="45" on="1"/>
        <pt x="308" y="45" on="0"/>
        <pt x="357" y="74" on="0"/>
        <pt x="389" y="124" on="0"/>
        <pt x="403" y="187" on="0"/>
      </contour>
    </TTGlyph>
    <TTGlyph name="parenleft" xMin="75" yMin="-450" xMax="340" yMax="903">
      <contour>
        <pt x="289" y="-450" on="1"/>
        <pt x="230" y="-377" on="0"/>
        <pt x="149" y="-226" on="0"/>
        <pt x="98" y="-63" on="0"/>
        <pt x="75" y="113" on="0"/>
        <pt x="75" y="210" on="1"/>
        <pt x="75" y="312" on="0"/>
        <pt x="99" y="495" on="0"/>
        <pt x="151" y="664" on="0"/>
        <pt x="232" y="824" on="0"/>
        <pt x="289" y="903" on="1"/>
        <pt x="340" y="903" on="1"/>
        <pt x="285" y="828" on="0"/>
        <pt x="204" y="674" on="0"/>
        <pt x="152" y="506" on="0"/>
        <pt x="126" y="319" on="0"/>
        <pt x="126" y="210" on="1"/>
        <pt x="126" y="22" on="0"/>
        <pt x="226" y="-309" on="0"/>
        <pt x="340" y="-450" on="1"/>
      </contour>
    </TTGlyph>
    <TTGlyph name="parenright" xMin="55" yMin="-438" xMax="321" yMax="915">
      <contour>
        <pt x="321" y="222" on="1"/>
        <pt x="321" y="124" on="0"/>
        <pt x="298" y="-51" on="0"/>
        <pt x="247" y="-213" on="0"/>
        <pt x="165" y="-365" on="0"/>
        <pt x="106" y="-438" on="1"/>
        <pt x="55" y="-438" on="1"/>
        <pt x="169" y="-298" on="0"/>
        <pt x="270" y="35" on="0"/>
        <pt x="270" y="222" on="1"/>
        <pt x="270" y="331" on="0"/>
        <pt x="244" y="518" on="0"/>
        <pt x="191" y="686" on="0"/>
        <pt x="110" y="840" on="0"/>
        <pt x="55" y="915" on="1"/>
        <pt x="106" y="915" on="1"/>
        <pt x="163" y="836" on="0"/>
        <pt x="244" y="676" on="0"/>
        <pt x="297" y="507" on="0"/>
        <pt x="321" y="324" on="0"/>
      </contour>
    </TTGlyph>
    <TTGlyph name="percent" xMin="28" yMin="-68" xMax="595" yMax="495">
      <contour>
        <pt x="144" y="-68" on="1"/>
        <pt x="105" y="-35" on="1"/>
        <pt x="477" y="495" on="1"/>
        <pt x="519" y="463" on="1"/>
      </contour>
      <contour>
        <pt x="276" y="334" on="1"/>
        <pt x="276" y="310" on="0"/>
        <pt x="256" y="265" on="0"/>
        <pt x="222" y="231" on="0"/>
        <pt x="178" y="210" on="0"/>
        <pt x="153" y="210" on="1"/>
        <pt x="127" y="210" on="0"/>
        <pt x="82" y="231" on="0"/>
        <pt x="48" y="265" on="0"/>
        <pt x="28" y="310" on="0"/>
        <pt x="28" y="334" on="1"/>
        <pt x="28" y="359" on="0"/>
        <pt x="48" y="405" on="0"/>
        <pt x="82" y="439" on="0"/>
        <pt x="127" y="459" on="0"/>
        <pt x="153" y="459" on="1"/>
        <pt x="178" y="459" on="0"/>
        <pt x="222" y="439" on="0"/>
        <pt x="256" y="405" on="0"/>
        <pt x="276" y="359" on="0"/>
      </contour>
      <contour>
        <pt x="595" y="94" on="1"/>
        <pt x="595" y="70" on="0"/>
        <pt x="575" y="25" on="0"/>
        <pt x="541" y="-9" on="0"/>
        <pt x="497" y="-30" on="0"/>
        <pt x="472" y="-30" on="1"/>
        <pt x="447" y="-30" on="0"/>
        <pt x="402" y="-9" on="0"/>
        <pt x="368" y="25" on="0"/>
        <pt x="348" y="70" on="0"/>
        <pt x="348" y="94" on="1"/>
        <pt x="348" y="119" on="0"/>
        <pt x="368" y="165" on="0"/>
        <pt x="402" y="199" on="0"/>
        <pt x="447" y="219" on="0"/>
        <pt x="472" y="219" on="1"/>
        <pt x="497" y="219" on="0"/>
        <pt x="541" y="199" on="0"/>
        <pt x="575" y="165" on="0"/>
        <pt x="595" y="119" on="0"/>
      </contour>
      <contour>
        <pt x="226" y="334" on="1"/>
        <pt x="226" y="349" on="0"/>
        <pt x="214" y="377" on="0"/>
        <pt x="194" y="397" on="0"/>
        <pt x="168" y="409" on="0"/>
        <pt x="153" y="409" on="1"/>
        <pt x="121" y="409" on="0"/>
        <pt x="78" y="365" on="0"/>
        <pt x="78" y="334" on="1"/>
        <pt x="78" y="304" on="0"/>
        <pt x="121" y="259" on="0"/>
        <pt x="153" y="259" on="1"/>
        <pt x="168" y="259" on="0"/>
        <pt x="194" y="271" on="0"/>
        <pt x="214" y="292" on="0"/>
        <pt x="226" y="319" on="0"/>
      </contour>
      <contour>
        <pt x="546" y="94" on="1"/>
        <pt x="546" y="109" on="0"/>
        <pt x="534" y="137" on="0"/>
        <pt x="513" y="157" on="0"/>
        <pt x="487" y="169" on="0"/>
        <pt x="472" y="169" on="1"/>
        <pt x="440" y="169" on="0"/>
        <pt x="397" y="125" on="0"/>
        <pt x="397" y="94" on="1"/>
        <pt x="397" y="64" on="0"/>
        <pt x="440" y="19" on="0"/>
        <pt x="472" y="19" on="1"/>
        <pt x="487" y="19" on="0"/>
        <pt x="513" y="31" on="0"/>
        <pt x="534" y="52" on="0"/>
        <pt x="546" y="79" on="0"/>
      </contour>
    </TTGlyph>
    <TTGlyph name="period" xMin="40" yMin="-15" xMax="159" yMax="99">
      <contour>
        <pt x="159" y="42" on="1"/>
        <pt x="159" y="18" on="0"/>
        <pt x="123" y="-15" on="0"/>
        <pt x="100" y="-15" on="1"/>
        <pt x="77" y="-15" on="0"/>
        <pt x="40" y="18" on="0"/>
        <pt x="40" y="42" on="1"/>
        <pt x="40" y="65" on="0"/>
        <pt x="77" y="99" on="0"/>
        <pt x="100" y="99" on="1"/>
        <pt x="123" y="99" on="0"/>
        <pt x="159" y="65" on="0"/>
      </contour>
    </TTGlyph>
    <TTGlyph name="plus" xMin="93" yMin="31" xMax="477" yMax="415">
      <contour>
        <pt x="477" y="196" on="1"/>
        <pt x="310" y="196" on="1"/>
        <pt x="310" y="31" on="1"/>
        <pt x="259" y="31" on="1"/>
        <pt x="259" y="196" on="1"/>
        <pt x="93" y="196" on="1"/>
        <pt x="93" y="247" on="1"/>
        <pt x="259" y="247" on="1"/>
        <pt x="259" y="415" on="1"/>
        <pt x="310" y="415" on="1"/>
        <pt x="310" y="247" on="1"/>
        <pt x="477" y="247" on="1"/>
      </contour>
    </TTGlyph>
    <TTGlyph name="q" xMin="45" yMin="-177" xMax="471" yMax="456">
      <contour>
        <pt x="390" y="-177" on="1"/>
        <pt x="390" y="46" on="1"/>
        <pt x="361" y="23" on="0"/>
        <pt x="294" y="-14" on="0"/>
        <pt x="249" y="-14" on="1"/>
        <pt x="193" y="-14" on="0"/>
        <pt x="115" y="23" on="0"/>
        <pt x="67" y="87" on="0"/>
        <pt x="45" y="173" on="0"/>
        <pt x="45" y="222" on="1"/>
        <pt x="45" y="271" on="0"/>
        <pt x="67" y="356" on="0"/>
        <pt x="115" y="419" on="0"/>
        <pt x="193" y="456" on="0"/>
        <pt x="249" y="456" on="1"/>
        <pt x="294" y="456" on="0"/>
        <pt x="359" y="417" on="0"/>
        <pt x="390" y="388" on="1"/>
        <pt x="390" y="445" on="1"/>
        <pt x="471" y="445" on="1"/>
        <pt x="471" y="-177" on="1"/>
      </contour>
      <contour>
        <pt x="391" y="222" on="1"/>
        <pt x="391" y="256" on="0"/>
        <pt x="377" y="320" on="0"/>
        <pt x="345" y="370" on="0"/>
        <pt x="296" y="400" on="0"/>
        <pt x="261" y="400" on="1"/>
        <pt x="225" y="400" on="0"/>
        <pt x="175" y="370" on="0"/>
        <pt x="144" y="320" on="0"/>
        <pt x="129" y="256" on="0"/>
        <pt x="129" y="222" on="1"/>
        <pt x="129" y="187" on="0"/>
        <pt x="144" y="124" on="0"/>
        <pt x="175" y="74" on="0"/>
        <pt x="225" y="45" on="0"/>
        <pt x="261" y="45" on="1"/>
        <pt x="296" y="45" on="0"/>
        <pt x="345" y="74" on="0"/>
        <pt x="377" y="124" on="0"/>
        <pt x="391" y="187" on="0"/>
      </contour>
    </TTGlyph>
    <TTGlyph name="question" xMin="35" yMin="0" xMax="391" yMax="773">
      <contour>
        <pt x="268" y="55" on="1"/>
        <pt x="268" y="28" on="0"/>
        <pt x="232" y="0" on="0"/>
        <pt x="213" y="0" on="1"/>
        <pt x="193" y="0" on="0"/>
        <pt x="158" y="28" on="0"/>
        <pt x="158" y="55" on="1"/>
        <pt x="158" y="84" on="0"/>
        <pt x="193" y="111" on="0"/>
        <pt x="213" y="111" on="1"/>
        <pt x="232" y="111" on="0"/>
        <pt x="268" y="84" on="0"/>
      </contour>
      <contour>
        <pt x="391" y="590" on="1"/>
        <pt x="391" y="552" on="0"/>
        <pt x="368" y="503" on="0"/>
        <pt x="334" y="467" on="0"/>
        <pt x="295" y="440" on="0"/>
        <pt x="261" y="411" on="0"/>
        <pt x="238" y="373" on="0"/>
        <pt x="238" y="345" on="1"/>
        <pt x="238" y="200" on="1"/>
        <pt x="187" y="200" on="1"/>
        <pt x="187" y="359" on="1"/>
        <pt x="187" y="391" on="0"/>
        <pt x="210" y="436" on="0"/>
        <pt x="244" y="470" on="0"/>
        <pt x="283" y="497" on="0"/>
        <pt x="317" y="526" on="0"/>
        <pt x="340" y="563" on="0"/>
        <pt x="340" y="590" on="1"/>
        <pt x="340" y="614" on="0"/>
        <pt x="320" y="661" on="0"/>
        <pt x="285" y="699" on="0"/>
        <pt x="239" y="722" on="0"/>
        <pt x="213" y="722" on="1"/>
        <pt x="181" y="722" on="0"/>
        <pt x="134" y="692" on="0"/>
        <pt x="102" y="652" on="0"/>
        <pt x="86" y="611" on="0"/>
        <pt x="86" y="600" on="1"/>
        <pt x="86" y="548" on="1"/>
        <pt x="35" y="548" on="1"/>
        <pt x="35" y="600" on="1"/>
        <pt x="35" y="614" on="0"/>
        <pt x="53" y="671" on="0"/>
        <pt x="94" y="729" on="0"/>
        <pt x="162" y="773" on="0"/>
        <pt x="213" y="773" on="1"/>
        <pt x="253" y="773" on="0"/>
        <pt x="319" y="743" on="0"/>
        <pt x="366" y="692" on="0"/>
        <pt x="391" y="626" on="0"/>
      </contour>
    </TTGlyph>
    <TTGlyph name="quotedbl" xMin="61" yMin="387" xMax="340" yMax="643">
      <contour>
        <pt x="319" y="387" on="1"/>
        <pt x="265" y="387" on="1"/>
        <pt x="246" y="643" on="1"/>
        <pt x="340" y="643" on="1"/>
      </contour>
      <contour>
        <pt x="135" y="387" on="1"/>
        <pt x="82" y="387" on="1"/>
        <pt x="61" y="643" on="1"/>
        <pt x="156" y="643" on="1"/>
      </contour>
    </TTGlyph>
    <TTGlyph name="quotedblleft" xMin="40" yMin="599" xMax="424" yMax="883">
      <contour>
        <pt x="191" y="679" on="1"/>
        <pt x="191" y="661" on="0"/>
        <pt x="178" y="631" on="0"/>
        <pt x="156" y="610" on="0"/>
        <pt x="129" y="599" on="0"/>
        <pt x="115" y="599" on="1"/>
        <pt x="86" y="599" on="0"/>
        <pt x="40" y="640" on="0"/>
        <pt x="40" y="679" on="1"/>
        <pt x="40" y="717" on="0"/>
        <pt x="59" y="786" on="0"/>
        <pt x="89" y="840" on="0"/>
        <pt x="126" y="877" on="0"/>
        <pt x="143" y="883" on="1"/>
        <pt x="157" y="874" on="1"/>
        <pt x="127" y="853" on="0"/>
        <pt x="91" y="781" on="0"/>
        <pt x="91" y="736" on="1"/>
        <pt x="91" y="721" on="0"/>
        <pt x="92" y="710" on="0"/>
        <pt x="94" y="705" on="1"/>
        <pt x="97" y="708" on="0"/>
        <pt x="115" y="717" on="0"/>
        <pt x="136" y="726" on="0"/>
        <pt x="158" y="732" on="0"/>
        <pt x="166" y="732" on="1"/>
        <pt x="174" y="732" on="0"/>
        <pt x="184" y="721" on="0"/>
        <pt x="189" y="705" on="0"/>
        <pt x="191" y="686" on="0"/>
      </contour>
      <contour>
        <pt x="424" y="679" on="1"/>
        <pt x="424" y="661" on="0"/>
        <pt x="411" y="631" on="0"/>
        <pt x="389" y="610" on="0"/>
        <pt x="362" y="599" on="0"/>
        <pt x="348" y="599" on="1"/>
        <pt x="319" y="599" on="0"/>
        <pt x="273" y="640" on="0"/>
        <pt x="273" y="679" on="1"/>
        <pt x="273" y="717" on="0"/>
        <pt x="292" y="786" on="0"/>
        <pt x="322" y="840" on="0"/>
        <pt x="359" y="877" on="0"/>
        <pt x="376" y="883" on="1"/>
        <pt x="390" y="874" on="1"/>
        <pt x="360" y="853" on="0"/>
        <pt x="324" y="781" on="0"/>
        <pt x="324" y="736" on="1"/>
        <pt x="324" y="721" on="0"/>
        <pt x="325" y="710" on="0"/>
        <pt x="327" y="705" on="1"/>
        <pt x="330" y="708" on="0"/>
        <pt x="348" y="717" on="0"/>
        <pt x="369" y="726" on="0"/>
        <pt x="391" y="732" on="0"/>
        <pt x="399" y="732" on="1"/>
        <pt x="407" y="732" on="0"/>
        <pt x="417" y="721" on="0"/>
        <pt x="422" y="705" on="0"/>
        <pt x="424" y="686" on="0"/>
      </contour>
    </TTGlyph>
    <TTGlyph name="quotedblright" xMin="40" yMin="599" xMax="424" yMax="883">
      <contour>
        <pt x="424" y="803" on="1"/>
        <pt x="424" y="765" on="0"/>
        <pt x="405" y="696" on="0"/>
        <pt x="375" y="642" on="0"/>
        <pt x="338" y="605" on="0"/>
        <pt x="321" y="599" on="1"/>
        <pt x="307" y="608" on="1"/>
        <pt x="337" y="629" on="0"/>
        <pt x="373" y="701" on="0"/>
        <pt x="373" y="746" on="1"/>
        <pt x="373" y="761" on="0"/>
        <pt x="372" y="772" on="0"/>
        <pt x="370" y="777" on="1"/>
        <pt x="367" y="774" on="0"/>
        <pt x="349" y="765" on="0"/>
        <pt x="328" y="756" on="0"/>
        <pt x="306" y="750" on="0"/>
        <pt x="298" y="750" on="1"/>
        <pt x="290" y="750" on="0"/>
        <pt x="280" y="761" on="0"/>
        <pt x="275" y="777" on="0"/>
        <pt x="273" y="795" on="0"/>
        <pt x="273" y="803" on="1"/>
        <pt x="273" y="821" on="0"/>
        <pt x="286" y="850" on="0"/>
        <pt x="308" y="871" on="0"/>
        <pt x="335" y="883" on="0"/>
        <pt x="349" y="883" on="1"/>
        <pt x="378" y="883" on="0"/>
        <pt x="424" y="842" on="0"/>
      </contour>
      <contour>
        <pt x="191" y="803" on="1"/>
        <pt x="191" y="765" on="0"/>
        <pt x="172" y="696" on="0"/>
        <pt x="142" y="642" on="0"/>
        <pt x="105" y="605" on="0"/>
        <pt x="88" y="599" on="1"/>
        <pt x="74" y="608" on="1"/>
        <pt x="104" y="629" on="0"/>
        <pt x="140" y="701" on="0"/>
        <pt x="140" y="746" on="1"/>
        <pt x="140" y="761" on="0"/>
        <pt x="139" y="772" on="0"/>
        <pt x="137" y="777" on="1"/>
        <pt x="134" y="774" on="0"/>
        <pt x="116" y="765" on="0"/>
        <pt x="95" y="756" on="0"/>
        <pt x="73" y="750" on="0"/>
        <pt x="65" y="750" on="1"/>
        <pt x="57" y="750" on="0"/>
        <pt x="47" y="761" on="0"/>
        <pt x="42" y="777" on="0"/>
        <pt x="40" y="795" on="0"/>
        <pt x="40" y="803" on="1"/>
        <pt x="40" y="821" on="0"/>
        <pt x="53" y="850" on="0"/>
        <pt x="75" y="871" on="0"/>
        <pt x="102" y="883" on="0"/>
        <pt x="116" y="883" on="1"/>
        <pt x="145" y="883" on="0"/>
        <pt x="191" y="842" on="0"/>
      </contour>
    </TTGlyph>
    <TTGlyph name="quoteleft" xMin="40" yMin="599" xMax="191" yMax="883">
      <contour>
        <pt x="191" y="679" on="1"/>
        <pt x="191" y="661" on="0"/>
        <pt x="178" y="631" on="0"/>
        <pt x="156" y="610" on="0"/>
        <pt x="129" y="599" on="0"/>
        <pt x="115" y="599" on="1"/>
        <pt x="86" y="599" on="0"/>
        <pt x="40" y="640" on="0"/>
        <pt x="40" y="679" on="1"/>
        <pt x="40" y="717" on="0"/>
        <pt x="59" y="786" on="0"/>
        <pt x="89" y="840" on="0"/>
        <pt x="126" y="877" on="0"/>
        <pt x="143" y="883" on="1"/>
        <pt x="157" y="874" on="1"/>
        <pt x="127" y="853" on="0"/>
        <pt x="91" y="781" on="0"/>
        <pt x="91" y="736" on="1"/>
        <pt x="91" y="721" on="0"/>
        <pt x="92" y="710" on="0"/>
        <pt x="94" y="705" on="1"/>
        <pt x="97" y="708" on="0"/>
        <pt x="115" y="717" on="0"/>
        <pt x="136" y="726" on="0"/>
        <pt x="158" y="732" on="0"/>
        <pt x="166" y="732" on="1"/>
        <pt x="174" y="732" on="0"/>
        <pt x="184" y="721" on="0"/>
        <pt x="189" y="705" on="0"/>
        <pt x="191" y="686" on="0"/>
      </contour>
    </TTGlyph>
    <TTGlyph name="quoteright" xMin="40" yMin="599" xMax="191" yMax="883">
      <contour>
        <pt x="191" y="803" on="1"/>
        <pt x="191" y="765" on="0"/>
        <pt x="172" y="696" on="0"/>
        <pt x="142" y="642" on="0"/>
        <pt x="105" y="605" on="0"/>
        <pt x="88" y="599" on="1"/>
        <pt x="74" y="608" on="1"/>
        <pt x="104" y="629" on="0"/>
        <pt x="140" y="701" on="0"/>
        <pt x="140" y="746" on="1"/>
        <pt x="140" y="761" on="0"/>
        <pt x="139" y="772" on="0"/>
        <pt x="137" y="777" on="1"/>
        <pt x="134" y="774" on="0"/>
        <pt x="116" y="765" on="0"/>
        <pt x="95" y="756" on="0"/>
        <pt x="73" y="750" on="0"/>
        <pt x="65" y="750" on="1"/>
        <pt x="57" y="750" on="0"/>
        <pt x="47" y="761" on="0"/>
        <pt x="42" y="777" on="0"/>
        <pt x="40" y="795" on="0"/>
        <pt x="40" y="803" on="1"/>
        <pt x="40" y="821" on="0"/>
        <pt x="53" y="850" on="0"/>
        <pt x="75" y="871" on="0"/>
        <pt x="102" y="883" on="0"/>
        <pt x="116" y="883" on="1"/>
        <pt x="145" y="883" on="0"/>
        <pt x="191" y="842" on="0"/>
      </contour>
    </TTGlyph>
    <TTGlyph name="quotesingle" xMin="117" yMin="387" xMax="210" yMax="643">
      <contour>
        <pt x="190" y="387" on="1"/>
        <pt x="136" y="387" on="1"/>
        <pt x="117" y="643" on="1"/>
        <pt x="210" y="643" on="1"/>
      </contour>
    </TTGlyph>
    <TTGlyph name="r" xMin="61" yMin="0" xMax="306" yMax="445">
      <contour>
        <pt x="306" y="373" on="1"/>
        <pt x="219" y="373" on="0"/>
        <pt x="142" y="306" on="0"/>
        <pt x="142" y="249" on="1"/>
        <pt x="142" y="0" on="1"/>
        <pt x="61" y="0" on="1"/>
        <pt x="61" y="445" on="1"/>
        <pt x="142" y="445" on="1"/>
        <pt x="142" y="384" on="1"/>
        <pt x="151" y="399" on="0"/>
        <pt x="172" y="421" on="0"/>
        <pt x="208" y="437" on="0"/>
        <pt x="263" y="445" on="0"/>
        <pt x="306" y="445" on="1"/>
        <pt x="306" y="373" on="1"/>
      </contour>
    </TTGlyph>
    <TTGlyph name="s" xMin="45" yMin="-12" xMax="403" yMax="456">
      <contour>
        <pt x="403" y="130" on="1"/>
        <pt x="403" y="89" on="0"/>
        <pt x="369" y="35" on="0"/>
        <pt x="314" y="2" on="0"/>
        <pt x="244" y="-12" on="0"/>
        <pt x="208" y="-12" on="1"/>
        <pt x="174" y="-12" on="0"/>
        <pt x="115" y="3" on="0"/>
        <pt x="71" y="36" on="0"/>
        <pt x="45" y="90" on="0"/>
        <pt x="45" y="129" on="1"/>
        <pt x="126" y="129" on="1"/>
        <pt x="127" y="82" on="0"/>
        <pt x="179" y="46" on="0"/>
        <pt x="219" y="46" on="1"/>
        <pt x="237" y="46" on="0"/>
        <pt x="274" y="56" on="0"/>
        <pt x="303" y="75" on="0"/>
        <pt x="321" y="104" on="0"/>
        <pt x="321" y="124" on="1"/>
        <pt x="321" y="152" on="0"/>
        <pt x="282" y="179" on="0"/>
        <pt x="222" y="193" on="0"/>
        <pt x="154" y="205" on="0"/>
        <pt x="94" y="233" on="0"/>
        <pt x="55" y="286" on="0"/>
        <pt x="55" y="334" on="1"/>
        <pt x="55" y="356" on="0"/>
        <pt x="71" y="400" on="0"/>
        <pt x="110" y="434" on="0"/>
        <pt x="174" y="456" on="0"/>
        <pt x="222" y="456" on="1"/>
        <pt x="257" y="456" on="0"/>
        <pt x="319" y="445" on="0"/>
        <pt x="364" y="417" on="0"/>
        <pt x="390" y="365" on="0"/>
        <pt x="390" y="325" on="1"/>
        <pt x="309" y="325" on="1"/>
        <pt x="309" y="337" on="0"/>
        <pt x="303" y="363" on="0"/>
        <pt x="284" y="386" on="0"/>
        <pt x="249" y="400" on="0"/>
        <pt x="220" y="400" on="1"/>
        <pt x="186" y="400" on="0"/>
        <pt x="136" y="363" on="0"/>
        <pt x="136" y="334" on="1"/>
        <pt x="136" y="305" on="0"/>
        <pt x="176" y="278" on="0"/>
        <pt x="235" y="262" on="0"/>
        <pt x="304" y="249" on="0"/>
        <pt x="363" y="223" on="0"/>
        <pt x="403" y="174" on="0"/>
      </contour>
    </TTGlyph>
    <TTGlyph name="semicolon" xMin="40" yMin="-101" xMax="160" yMax="459">
      <contour>
        <pt x="159" y="402" on="1"/>
        <pt x="159" y="378" on="0"/>
        <pt x="123" y="343" on="0"/>
        <pt x="100" y="343" on="1"/>
        <pt x="77" y="343" on="0"/>
        <pt x="40" y="378" on="0"/>
        <pt x="40" y="402" on="1"/>
        <pt x="40" y="425" on="0"/>
        <pt x="77" y="459" on="0"/>
        <pt x="100" y="459" on="1"/>
        <pt x="123" y="459" on="0"/>
        <pt x="159" y="425" on="0"/>
      </contour>
      <contour>
        <pt x="160" y="33" on="1"/>
        <pt x="160" y="8" on="0"/>
        <pt x="146" y="-35" on="0"/>
        <pt x="125" y="-70" on="0"/>
        <pt x="100" y="-95" on="0"/>
        <pt x="90" y="-101" on="1"/>
        <pt x="82" y="-95" on="1"/>
        <pt x="102" y="-81" on="0"/>
        <pt x="124" y="-32" on="0"/>
        <pt x="124" y="6" on="1"/>
        <pt x="124" y="14" on="0"/>
        <pt x="123" y="18" on="1"/>
        <pt x="107" y="10" on="0"/>
        <pt x="70" y="-2" on="0"/>
        <pt x="61" y="-2" on="1"/>
        <pt x="51" y="-2" on="0"/>
        <pt x="40" y="24" on="0"/>
        <pt x="40" y="40" on="1"/>
        <pt x="40" y="64" on="0"/>
        <pt x="76" y="99" on="0"/>
        <pt x="97" y="99" on="1"/>
        <pt x="121" y="99" on="0"/>
        <pt x="160" y="62" on="0"/>
      </contour>
    </TTGlyph>
    <TTGlyph name="seven" xMin="51" yMin="0" xMax="447" yMax="643">
      <contour>
        <pt x="237" y="0" on="1"/>
        <pt x="139" y="0" on="1"/>
        <pt x="367" y="571" on="1"/>
        <pt x="51" y="571" on="1"/>
        <pt x="51" y="643" on="1"/>
        <pt x="447" y="643" on="1"/>
        <pt x="447" y="553" on="1"/>
      </contour>
    </TTGlyph>
    <TTGlyph name="six" xMin="42" yMin="-14" xMax="456" yMax="655">
      <contour>
        <pt x="456" y="192" on="1"/>
        <pt x="456" y="163" on="0"/>
        <pt x="440" y="91" on="0"/>
        <pt x="395" y="28" on="0"/>
        <pt x="317" y="-14" on="0"/>
        <pt x="256" y="-14" on="1"/>
        <pt x="182" y="-14" on="0"/>
        <pt x="97" y="28" on="0"/>
        <pt x="54" y="109" on="0"/>
        <pt x="42" y="228" on="0"/>
        <pt x="42" y="306" on="1"/>
        <pt x="42" y="368" on="0"/>
        <pt x="57" y="492" on="0"/>
        <pt x="104" y="592" on="0"/>
        <pt x="189" y="655" on="0"/>
        <pt x="259" y="655" on="1"/>
        <pt x="303" y="655" on="0"/>
        <pt x="366" y="634" on="0"/>
        <pt x="408" y="593" on="0"/>
        <pt x="432" y="531" on="0"/>
        <pt x="438" y="490" on="1"/>
        <pt x="352" y="490" on="1"/>
        <pt x="347" y="546" on="0"/>
        <pt x="299" y="586" on="0"/>
        <pt x="258" y="586" on="1"/>
        <pt x="228" y="586" on="0"/>
        <pt x="185" y="558" on="0"/>
        <pt x="156" y="511" on="0"/>
        <pt x="139" y="453" on="0"/>
        <pt x="131" y="392" on="0"/>
        <pt x="129" y="336" on="0"/>
        <pt x="129" y="315" on="1"/>
        <pt x="139" y="332" on="0"/>
        <pt x="163" y="361" on="0"/>
        <pt x="195" y="383" on="0"/>
        <pt x="237" y="396" on="0"/>
        <pt x="265" y="396" on="1"/>
        <pt x="328" y="396" on="0"/>
        <pt x="403" y="353" on="0"/>
        <pt x="443" y="290" on="0"/>
        <pt x="456" y="219" on="0"/>
      </contour>
      <contour>
        <pt x="366" y="192" on="1"/>
        <pt x="366" y="258" on="0"/>
        <pt x="314" y="328" on="0"/>
        <pt x="253" y="328" on="1"/>
        <pt x="191" y="328" on="0"/>
        <pt x="139" y="258" on="0"/>
        <pt x="139" y="192" on="1"/>
        <pt x="139" y="126" on="0"/>
        <pt x="191" y="55" on="0"/>
        <pt x="253" y="55" on="1"/>
        <pt x="314" y="55" on="0"/>
        <pt x="366" y="126" on="0"/>
      </contour>
    </TTGlyph>
    <TTGlyph name="slash" xMin="55" yMin="-212" xMax="439" yMax="813">
      <contour>
        <pt x="93" y="-212" on="1"/>
        <pt x="55" y="-174" on="1"/>
        <pt x="402" y="813" on="1"/>
        <pt x="439" y="775" on="1"/>
      </contour>
    </TTGlyph>
    <TTGlyph name="t" xMin="25" yMin="-12" xMax="285" yMax="567">
      <contour>
        <pt x="285" y="0" on="1"/>
        <pt x="250" y="-12" on="0"/>
        <pt x="219" y="-12" on="1"/>
        <pt x="159" y="-12" on="0"/>
        <pt x="106" y="42" on="0"/>
        <pt x="106" y="117" on="1"/>
        <pt x="106" y="388" on="1"/>
        <pt x="25" y="388" on="1"/>
        <pt x="25" y="445" on="1"/>
        <pt x="106" y="445" on="1"/>
        <pt x="106" y="534" on="1"/>
        <pt x="187" y="567" on="1"/>
        <pt x="187" y="445" on="1"/>
        <pt x="285" y="445" on="1"/>
        <pt x="285" y="388" on="1"/>
        <pt x="187" y="388" on="1"/>
        <pt x="187" y="117" on="1"/>
        <pt x="187" y="75" on="0"/>
        <pt x="212" y="49" on="0"/>
        <pt x="235" y="49" on="1"/>
        <pt x="261" y="49" on="0"/>
        <pt x="285" y="57" on="1"/>
        <pt x="285" y="0" on="1"/>
      </contour>
    </TTGlyph>
    <TTGlyph name="three" xMin="40" yMin="-14" xMax="456" yMax="655">
      <contour>
        <pt x="456" y="171" on="1"/>
        <pt x="456" y="132" on="0"/>
        <pt x="425" y="64" on="0"/>
        <pt x="369" y="15" on="0"/>
        <pt x="292" y="-14" on="0"/>
        <pt x="246" y="-14" on="1"/>
        <pt x="191" y="-14" on="0"/>
        <pt x="113" y="18" on="0"/>
        <pt x="63" y="71" on="0"/>
        <pt x="40" y="136" on="0"/>
        <pt x="40" y="169" on="1"/>
        <pt x="135" y="169" on="1"/>
        <pt x="137" y="149" on="0"/>
        <pt x="150" y="108" on="0"/>
        <pt x="175" y="75" on="0"/>
        <pt x="216" y="55" on="0"/>
        <pt x="247" y="55" on="1"/>
        <pt x="269" y="55" on="0"/>
        <pt x="313" y="73" on="0"/>
        <pt x="346" y="103" on="0"/>
        <pt x="367" y="143" on="0"/>
        <pt x="367" y="165" on="1"/>
        <pt x="367" y="240" on="0"/>
        <pt x="307" y="300" on="0"/>
        <pt x="237" y="300" on="1"/>
        <pt x="237" y="370" on="1"/>
        <pt x="304" y="370" on="0"/>
        <pt x="357" y="425" on="0"/>
        <pt x="357" y="492" on="1"/>
        <pt x="357" y="520" on="0"/>
        <pt x="334" y="557" on="0"/>
        <pt x="301" y="578" on="0"/>
        <pt x="262" y="586" on="0"/>
        <pt x="246" y="586" on="1"/>
        <pt x="203" y="586" on="0"/>
        <pt x="153" y="529" on="0"/>
        <pt x="144" y="475" on="1"/>
        <pt x="54" y="475" on="1"/>
        <pt x="65" y="563" on="0"/>
        <pt x="160" y="655" on="0"/>
        <pt x="243" y="655" on="1"/>
        <pt x="289" y="655" on="0"/>
        <pt x="364" y="629" on="0"/>
        <pt x="418" y="583" on="0"/>
        <pt x="447" y="521" on="0"/>
        <pt x="447" y="486" on="1"/>
        <pt x="447" y="453" on="0"/>
        <pt x="436" y="406" on="0"/>
        <pt x="418" y="371" on="0"/>
        <pt x="393" y="347" on="0"/>
        <pt x="379" y="337" on="1"/>
        <pt x="396" y="326" on="0"/>
        <pt x="425" y="301" on="0"/>
        <pt x="445" y="263" on="0"/>
        <pt x="456" y="210" on="0"/>
      </contour>
    </TTGlyph>
    <TTGlyph name="two" xMin="55" yMin="0" xMax="442" yMax="655">
      <contour>
        <pt x="55" y="0" on="1"/>
        <pt x="55" y="82" on="1"/>
        <pt x="166" y="167" on="0"/>
        <pt x="287" y="292" on="0"/>
        <pt x="343" y="382" on="0"/>
        <pt x="352" y="445" on="0"/>
        <pt x="352" y="468" on="1"/>
        <pt x="352" y="525" on="0"/>
        <pt x="310" y="580" on="0"/>
        <pt x="256" y="580" on="1"/>
        <pt x="208" y="580" on="0"/>
        <pt x="161" y="527" on="0"/>
        <pt x="154" y="468" on="1"/>
        <pt x="63" y="468" on="1"/>
        <pt x="66" y="508" on="0"/>
        <pt x="90" y="576" on="0"/>
        <pt x="136" y="626" on="0"/>
        <pt x="206" y="655" on="0"/>
        <pt x="256" y="655" on="1"/>
        <pt x="303" y="655" on="0"/>
        <pt x="373" y="623" on="0"/>
        <pt x="419" y="573" on="0"/>
        <pt x="442" y="511" on="0"/>
        <pt x="442" y="481" on="1"/>
        <pt x="442" y="457" on="0"/>
        <pt x="438" y="408" on="0"/>
        <pt x="420" y="353" on="0"/>
        <pt x="384" y="291" on="0"/>
        <pt x="320" y="216" on="0"/>
        <pt x="223" y="125" on="0"/>
        <pt x="153" y="69" on="1"/>
        <pt x="442" y="69" on="1"/>
        <pt x="442" y="0" on="1"/>
      </contour>
    </TTGlyph>
    <TTGlyph name="u" xMin="61" yMin="-12" xMax="448" yMax="445">
      <contour>
        <pt x="367" y="0" on="1"/>
        <pt x="367" y="57" on="1"/>
        <pt x="349" y="28" on="0"/>
        <pt x="286" y="-12" on="0"/>
        <pt x="232" y="-12" on="1"/>
        <pt x="141" y="-12" on="0"/>
        <pt x="61" y="73" on="0"/>
        <pt x="61" y="151" on="1"/>
        <pt x="61" y="445" on="1"/>
        <pt x="142" y="445" on="1"/>
        <pt x="142" y="150" on="1"/>
        <pt x="142" y="127" on="0"/>
        <pt x="160" y="87" on="0"/>
        <pt x="189" y="58" on="0"/>
        <pt x="228" y="42" on="0"/>
        <pt x="249" y="42" on="1"/>
        <pt x="273" y="42" on="0"/>
        <pt x="316" y="59" on="0"/>
        <pt x="348" y="89" on="0"/>
        <pt x="367" y="132" on="0"/>
        <pt x="367" y="159" on="1"/>
        <pt x="367" y="445" on="1"/>
        <pt x="448" y="445" on="1"/>
        <pt x="448" y="0" on="1"/>
      </contour>
    </TTGlyph>
    <TTGlyph name="u1000" xMin="55" yMin="-15" xMax="946" yMax="459">
      <contour>
        <pt x="946" y="222" on="1"/>
        <pt x="946" y="173" on="0"/>
        <pt x="909" y="87" on="0"/>
        <pt x="846" y="22" on="0"/>
        <pt x="761" y="-15" on="0"/>
        <pt x="714" y="-15" on="1"/>
        <pt x="696" y="-15" on="0"/>
        <pt x="660" y="-8" on="0"/>
        <pt x="643" y="0" on="1"/>
        <pt x="663" y="46" on="1"/>
        <pt x="686" y="36" on="0"/>
        <pt x="714" y="36" on="1"/>
        <pt x="751" y="36" on="0"/>
        <pt x="817" y="65" on="0"/>
        <pt x="867" y="116" on="0"/>
        <pt x="895" y="184" on="0"/>
        <pt x="895" y="222" on="1"/>
        <pt x="895" y="260" on="0"/>
        <pt x="867" y="328" on="0"/>
        <pt x="817" y="379" on="0"/>
        <pt x="751" y="408" on="0"/>
        <pt x="714" y="408" on="1"/>
        <pt x="677" y="408" on="0"/>
        <pt x="610" y="369" on="0"/>
        <pt x="559" y="307" on="0"/>
        <pt x="529" y="230" on="0"/>
        <pt x="529" y="192" on="1"/>
        <pt x="529" y="152" on="0"/>
        <pt x="514" y="89" on="0"/>
        <pt x="488" y="40" on="0"/>
        <pt x="453" y="1" on="0"/>
        <pt x="432" y="-15" on="1"/>
        <pt x="402" y="28" on="1"/>
        <pt x="437" y="60" on="0"/>
        <pt x="478" y="145" on="0"/>
        <pt x="478" y="202" on="1"/>
        <pt x="478" y="247" on="0"/>
        <pt x="449" y="322" on="0"/>
        <pt x="398" y="376" on="0"/>
        <pt x="330" y="406" on="0"/>
        <pt x="292" y="406" on="1"/>
        <pt x="254" y="406" on="0"/>
        <pt x="186" y="376" on="0"/>
        <pt x="135" y="322" on="0"/>
        <pt x="106" y="247" on="0"/>
        <pt x="106" y="202" on="1"/>
        <pt x="106" y="145" on="0"/>
        <pt x="148" y="60" on="0"/>
        <pt x="183" y="28" on="1"/>
        <pt x="153" y="-15" on="1"/>
        <pt x="132" y="2" on="0"/>
        <pt x="96" y="43" on="0"/>
        <pt x="70" y="95" on="0"/>
        <pt x="55" y="160" on="0"/>
        <pt x="55" y="202" on="1"/>
        <pt x="55" y="259" on="0"/>
        <pt x="92" y="353" on="0"/>
        <pt x="157" y="420" on="0"/>
        <pt x="243" y="457" on="0"/>
        <pt x="292" y="457" on="1"/>
        <pt x="364" y="457" on="0"/>
        <pt x="480" y="381" on="0"/>
        <pt x="508" y="313" on="1"/>
        <pt x="523" y="344" on="0"/>
        <pt x="567" y="398" on="0"/>
        <pt x="619" y="437" on="0"/>
        <pt x="681" y="459" on="0"/>
        <pt x="714" y="459" on="1"/>
        <pt x="761" y="459" on="0"/>
        <pt x="846" y="421" on="0"/>
        <pt x="909" y="357" on="0"/>
        <pt x="946" y="270" on="0"/>
      </contour>
    </TTGlyph>
    <TTGlyph name="u1000.kham" xMin="55" yMin="-15" xMax="946" yMax="459">
      <contour>
        <pt x="946" y="222" on="1"/>
        <pt x="946" y="173" on="0"/>
        <pt x="909" y="87" on="0"/>
        <pt x="846" y="22" on="0"/>
        <pt x="761" y="-15" on="0"/>
        <pt x="714" y="-15" on="1"/>
        <pt x="696" y="-15" on="0"/>
        <pt x="660" y="-8" on="0"/>
        <pt x="643" y="0" on="1"/>
        <pt x="663" y="46" on="1"/>
        <pt x="684" y="36" on="0"/>
        <pt x="714" y="36" on="1"/>
        <pt x="751" y="36" on="0"/>
        <pt x="817" y="65" on="0"/>
        <pt x="867" y="116" on="0"/>
        <pt x="895" y="184" on="0"/>
        <pt x="895" y="222" on="1"/>
        <pt x="895" y="260" on="0"/>
        <pt x="867" y="328" on="0"/>
        <pt x="817" y="379" on="0"/>
        <pt x="751" y="408" on="0"/>
        <pt x="714" y="408" on="1"/>
        <pt x="677" y="408" on="0"/>
        <pt x="610" y="369" on="0"/>
        <pt x="559" y="307" on="0"/>
        <pt x="529" y="230" on="0"/>
        <pt x="529" y="192" on="1"/>
        <pt x="529" y="152" on="0"/>
        <pt x="514" y="89" on="0"/>
        <pt x="488" y="40" on="0"/>
        <pt x="453" y="1" on="0"/>
        <pt x="432" y="-15" on="1"/>
        <pt x="402" y="28" on="1"/>
        <pt x="437" y="60" on="0"/>
        <pt x="478" y="145" on="0"/>
        <pt x="478" y="202" on="1"/>
        <pt x="478" y="247" on="0"/>
        <pt x="449" y="322" on="0"/>
        <pt x="398" y="376" on="0"/>
        <pt x="330" y="406" on="0"/>
        <pt x="292" y="406" on="1"/>
        <pt x="254" y="406" on="0"/>
        <pt x="186" y="376" on="0"/>
        <pt x="135" y="322" on="0"/>
        <pt x="106" y="247" on="0"/>
        <pt x="106" y="202" on="1"/>
        <pt x="106" y="154" on="0"/>
        <pt x="123" y="111" on="1"/>
        <pt x="134" y="122" on="0"/>
        <pt x="163" y="136" on="0"/>
        <pt x="180" y="136" on="1"/>
        <pt x="210" y="136" on="0"/>
        <pt x="255" y="92" on="0"/>
        <pt x="255" y="61" on="1"/>
        <pt x="255" y="31" on="0"/>
        <pt x="210" y="-15" on="0"/>
        <pt x="180" y="-15" on="1"/>
        <pt x="150" y="-15" on="0"/>
        <pt x="103" y="26" on="0"/>
        <pt x="71" y="89" on="0"/>
        <pt x="55" y="166" on="0"/>
        <pt x="55" y="202" on="1"/>
        <pt x="55" y="259" on="0"/>
        <pt x="92" y="353" on="0"/>
        <pt x="157" y="420" on="0"/>
        <pt x="243" y="457" on="0"/>
        <pt x="292" y="457" on="1"/>
        <pt x="364" y="457" on="0"/>
        <pt x="480" y="382" on="0"/>
        <pt x="508" y="313" on="1"/>
        <pt x="539" y="376" on="0"/>
        <pt x="647" y="459" on="0"/>
        <pt x="714" y="459" on="1"/>
        <pt x="761" y="459" on="0"/>
        <pt x="846" y="421" on="0"/>
        <pt x="909" y="357" on="0"/>
        <pt x="946" y="270" on="0"/>
      </contour>
    </TTGlyph>
    <TTGlyph name="u1000.med" xMin="-743" yMin="-450" xMax="-56" yMax="-86">
      <contour>
        <pt x="-56" y="-267" on="1"/>
        <pt x="-56" y="-305" on="0"/>
        <pt x="-85" y="-372" on="0"/>
        <pt x="-134" y="-422" on="0"/>
        <pt x="-199" y="-450" on="0"/>
        <pt x="-236" y="-450" on="1"/>
        <pt x="-250" y="-450" on="0"/>
        <pt x="-277" y="-445" on="0"/>
        <pt x="-290" y="-438" on="1"/>
        <pt x="-273" y="-402" on="1"/>
        <pt x="-264" y="-407" on="0"/>
        <pt x="-245" y="-410" on="0"/>
        <pt x="-236" y="-410" on="1"/>
        <pt x="-207" y="-410" on="0"/>
        <pt x="-156" y="-387" on="0"/>
        <pt x="-117" y="-348" on="0"/>
        <pt x="-95" y="-296" on="0"/>
        <pt x="-95" y="-267" on="1"/>
        <pt x="-95" y="-238" on="0"/>
        <pt x="-117" y="-186" on="0"/>
        <pt x="-156" y="-147" on="0"/>
        <pt x="-207" y="-125" on="0"/>
        <pt x="-236" y="-125" on="1"/>
        <pt x="-265" y="-125" on="0"/>
        <pt x="-316" y="-154" on="0"/>
        <pt x="-354" y="-201" on="0"/>
        <pt x="-377" y="-260" on="0"/>
        <pt x="-377" y="-290" on="1"/>
        <pt x="-377" y="-321" on="0"/>
        <pt x="-389" y="-369" on="0"/>
        <pt x="-409" y="-407" on="0"/>
        <pt x="-436" y="-437" on="0"/>
        <pt x="-452" y="-450" on="1"/>
        <pt x="-476" y="-417" on="1"/>
        <pt x="-449" y="-391" on="0"/>
        <pt x="-417" y="-327" on="0"/>
        <pt x="-417" y="-282" on="1"/>
        <pt x="-417" y="-246" on="0"/>
        <pt x="-440" y="-188" on="0"/>
        <pt x="-479" y="-147" on="0"/>
        <pt x="-531" y="-125" on="0"/>
        <pt x="-560" y="-125" on="1"/>
        <pt x="-590" y="-125" on="0"/>
        <pt x="-642" y="-147" on="0"/>
        <pt x="-681" y="-188" on="0"/>
        <pt x="-704" y="-246" on="0"/>
        <pt x="-704" y="-282" on="1"/>
        <pt x="-704" y="-327" on="0"/>
        <pt x="-670" y="-391" on="0"/>
        <pt x="-644" y="-417" on="1"/>
        <pt x="-668" y="-450" on="1"/>
        <pt x="-684" y="-437" on="0"/>
        <pt x="-712" y="-405" on="0"/>
        <pt x="-732" y="-365" on="0"/>
        <pt x="-743" y="-314" on="0"/>
        <pt x="-743" y="-282" on="1"/>
        <pt x="-743" y="-239" on="0"/>
        <pt x="-715" y="-167" on="0"/>
        <pt x="-665" y="-115" on="0"/>
        <pt x="-598" y="-86" on="0"/>
        <pt x="-560" y="-86" on="1"/>
        <pt x="-504" y="-86" on="0"/>
        <pt x="-415" y="-143" on="0"/>
        <pt x="-393" y="-197" on="1"/>
        <pt x="-370" y="-148" on="0"/>
        <pt x="-287" y="-86" on="0"/>
        <pt x="-236" y="-86" on="1"/>
        <pt x="-199" y="-86" on="0"/>
        <pt x="-134" y="-114" on="0"/>
        <pt x="-85" y="-163" on="0"/>
        <pt x="-56" y="-229" on="0"/>
      </contour>
    </TTGlyph>
    <TTGlyph name="u1000_u1001_u103B" xMin="55" yMin="-450" xMax="1092" yMax="459">
      <contour>
        <pt x="838" y="-384" on="1"/>
        <pt x="815" y="-408" on="0"/>
        <pt x="750" y="-435" on="0"/>
        <pt x="714" y="-435" on="1"/>
        <pt x="669" y="-435" on="0"/>
        <pt x="603" y="-405" on="0"/>
        <pt x="560" y="-363" on="0"/>
        <pt x="538" y="-319" on="0"/>
        <pt x="538" y="-305" on="1"/>
        <pt x="570" y="-285" on="0"/>
        <pt x="629" y="-264" on="0"/>
        <pt x="660" y="-264" on="1"/>
        <pt x="681" y="-264" on="0"/>
        <pt x="726" y="-278" on="0"/>
        <pt x="769" y="-302" on="0"/>
        <pt x="804" y="-335" on="0"/>
        <pt x="814" y="-353" on="1"/>
        <pt x="856" y="-311" on="0"/>
        <pt x="856" y="-252" on="1"/>
        <pt x="856" y="-223" on="0"/>
        <pt x="834" y="-171" on="0"/>
        <pt x="795" y="-132" on="0"/>
        <pt x="744" y="-110" on="0"/>
        <pt x="714" y="-110" on="1"/>
        <pt x="673" y="-110" on="0"/>
        <pt x="599" y="-153" on="0"/>
        <pt x="577" y="-195" on="1"/>
        <pt x="544" y="-174" on="1"/>
        <pt x="555" y="-149" on="0"/>
        <pt x="592" y="-110" on="0"/>
        <pt x="638" y="-83" on="0"/>
        <pt x="689" y="-69" on="0"/>
        <pt x="714" y="-69" on="1"/>
        <pt x="751" y="-69" on="0"/>
        <pt x="817" y="-98" on="0"/>
        <pt x="867" y="-147" on="0"/>
        <pt x="895" y="-214" on="0"/>
        <pt x="895" y="-252" on="1"/>
        <pt x="895" y="-302" on="0"/>
        <pt x="873" y="-339" on="1"/>
        <pt x="1041" y="-384" on="1"/>
        <pt x="1041" y="444" on="1"/>
        <pt x="1092" y="444" on="1"/>
        <pt x="1092" y="-450" on="1"/>
      </contour>
      <contour>
        <pt x="946" y="222" on="1"/>
        <pt x="946" y="173" on="0"/>
        <pt x="909" y="87" on="0"/>
        <pt x="846" y="22" on="0"/>
        <pt x="762" y="-15" on="0"/>
        <pt x="714" y="-15" on="1"/>
        <pt x="696" y="-15" on="0"/>
        <pt x="660" y="-6" on="0"/>
        <pt x="643" y="0" on="1"/>
        <pt x="663" y="46" on="1"/>
        <pt x="675" y="43" on="0"/>
        <pt x="701" y="36" on="0"/>
        <pt x="714" y="36" on="1"/>
        <pt x="751" y="36" on="0"/>
        <pt x="817" y="65" on="0"/>
        <pt x="867" y="116" on="0"/>
        <pt x="895" y="184" on="0"/>
        <pt x="895" y="222" on="1"/>
        <pt x="895" y="260" on="0"/>
        <pt x="867" y="328" on="0"/>
        <pt x="817" y="379" on="0"/>
        <pt x="751" y="408" on="0"/>
        <pt x="714" y="408" on="1"/>
        <pt x="677" y="408" on="0"/>
        <pt x="610" y="369" on="0"/>
        <pt x="559" y="307" on="0"/>
        <pt x="529" y="230" on="0"/>
        <pt x="529" y="192" on="1"/>
        <pt x="527" y="113" on="0"/>
        <pt x="474" y="17" on="0"/>
        <pt x="432" y="-15" on="1"/>
        <pt x="402" y="28" on="1"/>
        <pt x="436" y="60" on="0"/>
        <pt x="478" y="145" on="0"/>
        <pt x="478" y="202" on="1"/>
        <pt x="478" y="248" on="0"/>
        <pt x="449" y="323" on="0"/>
        <pt x="398" y="377" on="0"/>
        <pt x="330" y="406" on="0"/>
        <pt x="292" y="406" on="1"/>
        <pt x="254" y="406" on="0"/>
        <pt x="186" y="377" on="0"/>
        <pt x="135" y="323" on="0"/>
        <pt x="106" y="248" on="0"/>
        <pt x="106" y="202" on="1"/>
        <pt x="106" y="145" on="0"/>
        <pt x="149" y="60" on="0"/>
        <pt x="183" y="28" on="1"/>
        <pt x="153" y="-15" on="1"/>
        <pt x="132" y="2" on="0"/>
        <pt x="96" y="43" on="0"/>
        <pt x="70" y="95" on="0"/>
        <pt x="55" y="160" on="0"/>
        <pt x="55" y="202" on="1"/>
        <pt x="55" y="259" on="0"/>
        <pt x="92" y="353" on="0"/>
        <pt x="157" y="420" on="0"/>
        <pt x="243" y="457" on="0"/>
        <pt x="292" y="457" on="1"/>
        <pt x="364" y="457" on="0"/>
        <pt x="479" y="380" on="0"/>
        <pt x="508" y="313" on="1"/>
        <pt x="523" y="343" on="0"/>
        <pt x="567" y="397" on="0"/>
        <pt x="620" y="436" on="0"/>
        <pt x="681" y="459" on="0"/>
        <pt x="714" y="459" on="1"/>
        <pt x="762" y="459" on="0"/>
        <pt x="846" y="421" on="0"/>
        <pt x="909" y="357" on="0"/>
        <pt x="946" y="270" on="0"/>
      </contour>
      <contour>
        <pt x="787" y="-377" on="1"/>
        <pt x="768" y="-342" on="0"/>
        <pt x="699" y="-300" on="0"/>
        <pt x="657" y="-300" on="1"/>
        <pt x="637" y="-300" on="0"/>
        <pt x="600" y="-311" on="0"/>
        <pt x="582" y="-321" on="1"/>
        <pt x="599" y="-357" on="0"/>
        <pt x="674" y="-395" on="0"/>
        <pt x="714" y="-395" on="1"/>
        <pt x="733" y="-395" on="0"/>
        <pt x="770" y="-385" on="0"/>
      </contour>
    </TTGlyph>
    <TTGlyph name="u1000_u103B_u1015_u103A" xMin="55" yMin="-450" xMax="1660" yMax="903">
      <contour>
        <pt x="778" y="-369" on="1"/>
        <pt x="778" y="-6" on="1"/>
        <pt x="746" y="-15" on="0"/>
        <pt x="714" y="-15" on="1"/>
        <pt x="696" y="-15" on="0"/>
        <pt x="660" y="-8" on="0"/>
        <pt x="643" y="0" on="1"/>
        <pt x="663" y="46" on="1"/>
        <pt x="686" y="36" on="0"/>
        <pt x="714" y="36" on="1"/>
        <pt x="751" y="36" on="0"/>
        <pt x="817" y="65" on="0"/>
        <pt x="867" y="116" on="0"/>
        <pt x="895" y="184" on="0"/>
        <pt x="895" y="222" on="1"/>
        <pt x="895" y="260" on="0"/>
        <pt x="867" y="328" on="0"/>
        <pt x="817" y="379" on="0"/>
        <pt x="751" y="408" on="0"/>
        <pt x="714" y="408" on="1"/>
        <pt x="677" y="408" on="0"/>
        <pt x="610" y="369" on="0"/>
        <pt x="559" y="307" on="0"/>
        <pt x="529" y="230" on="0"/>
        <pt x="529" y="192" on="1"/>
        <pt x="529" y="152" on="0"/>
        <pt x="514" y="89" on="0"/>
        <pt x="488" y="40" on="0"/>
        <pt x="453" y="1" on="0"/>
        <pt x="432" y="-15" on="1"/>
        <pt x="402" y="28" on="1"/>
        <pt x="437" y="60" on="0"/>
        <pt x="478" y="145" on="0"/>
        <pt x="478" y="202" on="1"/>
        <pt x="478" y="247" on="0"/>
        <pt x="449" y="322" on="0"/>
        <pt x="398" y="376" on="0"/>
        <pt x="330" y="406" on="0"/>
        <pt x="292" y="406" on="1"/>
        <pt x="254" y="406" on="0"/>
        <pt x="186" y="376" on="0"/>
        <pt x="135" y="322" on="0"/>
        <pt x="106" y="247" on="0"/>
        <pt x="106" y="202" on="1"/>
        <pt x="106" y="145" on="0"/>
        <pt x="148" y="60" on="0"/>
        <pt x="183" y="28" on="1"/>
        <pt x="153" y="-15" on="1"/>
        <pt x="132" y="2" on="0"/>
        <pt x="96" y="43" on="0"/>
        <pt x="70" y="95" on="0"/>
        <pt x="55" y="160" on="0"/>
        <pt x="55" y="202" on="1"/>
        <pt x="55" y="259" on="0"/>
        <pt x="92" y="353" on="0"/>
        <pt x="157" y="420" on="0"/>
        <pt x="243" y="457" on="0"/>
        <pt x="292" y="457" on="1"/>
        <pt x="364" y="457" on="0"/>
        <pt x="478" y="381" on="0"/>
        <pt x="508" y="313" on="1"/>
        <pt x="523" y="344" on="0"/>
        <pt x="567" y="398" on="0"/>
        <pt x="619" y="437" on="0"/>
        <pt x="681" y="459" on="0"/>
        <pt x="714" y="459" on="1"/>
        <pt x="761" y="459" on="0"/>
        <pt x="846" y="421" on="0"/>
        <pt x="909" y="357" on="0"/>
        <pt x="946" y="270" on="0"/>
        <pt x="946" y="222" on="1"/>
        <pt x="946" y="154" on="0"/>
        <pt x="883" y="47" on="0"/>
        <pt x="829" y="16" on="1"/>
        <pt x="829" y="-329" on="1"/>
        <pt x="1041" y="-384" on="1"/>
        <pt x="1041" y="444" on="1"/>
        <pt x="1092" y="444" on="1"/>
        <pt x="1092" y="-450" on="1"/>
      </contour>
      <contour>
        <pt x="1660" y="240" on="1"/>
        <pt x="1660" y="183" on="0"/>
        <pt x="1623" y="89" on="0"/>
        <pt x="1558" y="22" on="0"/>
        <pt x="1472" y="-15" on="0"/>
        <pt x="1423" y="-15" on="1"/>
        <pt x="1374" y="-15" on="0"/>
        <pt x="1288" y="22" on="0"/>
        <pt x="1223" y="89" on="0"/>
        <pt x="1186" y="183" on="0"/>
        <pt x="1186" y="240" on="1"/>
        <pt x="1186" y="322" on="0"/>
        <pt x="1239" y="422" on="0"/>
        <pt x="1284" y="457" on="1"/>
        <pt x="1314" y="414" on="1"/>
        <pt x="1279" y="382" on="0"/>
        <pt x="1237" y="297" on="0"/>
        <pt x="1237" y="240" on="1"/>
        <pt x="1237" y="195" on="0"/>
        <pt x="1266" y="120" on="0"/>
        <pt x="1317" y="66" on="0"/>
        <pt x="1385" y="36" on="0"/>
        <pt x="1423" y="36" on="1"/>
        <pt x="1461" y="36" on="0"/>
        <pt x="1529" y="66" on="0"/>
        <pt x="1580" y="120" on="0"/>
        <pt x="1609" y="195" on="0"/>
        <pt x="1609" y="240" on="1"/>
        <pt x="1609" y="297" on="0"/>
        <pt x="1568" y="382" on="0"/>
        <pt x="1533" y="414" on="1"/>
        <pt x="1563" y="457" on="1"/>
        <pt x="1584" y="440" on="0"/>
        <pt x="1619" y="398" on="0"/>
        <pt x="1645" y="346" on="0"/>
        <pt x="1660" y="281" on="0"/>
      </contour>
      <contour>
        <pt x="1617" y="802" on="1"/>
        <pt x="1594" y="837" on="0"/>
        <pt x="1535" y="864" on="0"/>
        <pt x="1509" y="864" on="1"/>
        <pt x="1484" y="864" on="0"/>
        <pt x="1434" y="844" on="0"/>
        <pt x="1394" y="806" on="0"/>
        <pt x="1369" y="753" on="0"/>
        <pt x="1369" y="720" on="1"/>
        <pt x="1369" y="679" on="0"/>
        <pt x="1405" y="622" on="0"/>
        <pt x="1453" y="587" on="0"/>
        <pt x="1501" y="571" on="0"/>
        <pt x="1513" y="571" on="1"/>
        <pt x="1513" y="532" on="1"/>
        <pt x="1486" y="532" on="0"/>
        <pt x="1422" y="556" on="0"/>
        <pt x="1367" y="604" on="0"/>
        <pt x="1330" y="674" on="0"/>
        <pt x="1330" y="720" on="1"/>
        <pt x="1330" y="760" on="0"/>
        <pt x="1360" y="828" on="0"/>
        <pt x="1410" y="876" on="0"/>
        <pt x="1474" y="903" on="0"/>
        <pt x="1509" y="903" on="1"/>
        <pt x="1554" y="903" on="0"/>
        <pt x="1628" y="861" on="0"/>
        <pt x="1645" y="826" on="1"/>
      </contour>
    </TTGlyph>
    <TTGlyph name="u1001" xMin="55" yMin="-15" xMax="520" yMax="459">
      <contour>
        <pt x="520" y="222" on="1"/>
        <pt x="520" y="173" on="0"/>
        <pt x="483" y="87" on="0"/>
        <pt x="418" y="22" on="0"/>
        <pt x="332" y="-15" on="0"/>
        <pt x="283" y="-15" on="1"/>
        <pt x="240" y="-15" on="0"/>
        <pt x="163" y="10" on="0"/>
        <pt x="102" y="54" on="0"/>
        <pt x="61" y="116" on="0"/>
        <pt x="55" y="153" on="1"/>
        <pt x="100" y="178" on="0"/>
        <pt x="174" y="204" on="0"/>
        <pt x="210" y="204" on="1"/>
        <pt x="241" y="204" on="0"/>
        <pt x="305" y="185" on="0"/>
        <pt x="361" y="153" on="0"/>
        <pt x="405" y="112" on="0"/>
        <pt x="417" y="91" on="1"/>
        <pt x="441" y="117" on="0"/>
        <pt x="469" y="183" on="0"/>
        <pt x="469" y="222" on="1"/>
        <pt x="469" y="260" on="0"/>
        <pt x="440" y="327" on="0"/>
        <pt x="389" y="378" on="0"/>
        <pt x="322" y="408" on="0"/>
        <pt x="283" y="408" on="1"/>
        <pt x="231" y="408" on="0"/>
        <pt x="135" y="349" on="0"/>
        <pt x="106" y="297" on="1"/>
        <pt x="63" y="322" on="1"/>
        <pt x="76" y="355" on="0"/>
        <pt x="122" y="407" on="0"/>
        <pt x="181" y="441" on="0"/>
        <pt x="248" y="459" on="0"/>
        <pt x="283" y="459" on="1"/>
        <pt x="332" y="459" on="0"/>
        <pt x="418" y="421" on="0"/>
        <pt x="483" y="357" on="0"/>
        <pt x="520" y="270" on="0"/>
      </contour>
      <contour>
        <pt x="373" y="58" on="1"/>
        <pt x="362" y="79" on="0"/>
        <pt x="328" y="113" on="0"/>
        <pt x="285" y="139" on="0"/>
        <pt x="237" y="153" on="0"/>
        <pt x="213" y="153" on="1"/>
        <pt x="172" y="153" on="0"/>
        <pt x="115" y="127" on="1"/>
        <pt x="142" y="79" on="0"/>
        <pt x="232" y="36" on="0"/>
        <pt x="283" y="36" on="1"/>
        <pt x="309" y="36" on="0"/>
        <pt x="352" y="48" on="0"/>
      </contour>
    </TTGlyph>
    <TTGlyph name="u1001.med" xMin="-413" yMin="-450" xMax="-56" yMax="-84">
      <contour>
        <pt x="-56" y="-267" on="1"/>
        <pt x="-56" y="-305" on="0"/>
        <pt x="-84" y="-372" on="0"/>
        <pt x="-134" y="-422" on="0"/>
        <pt x="-200" y="-450" on="0"/>
        <pt x="-237" y="-450" on="1"/>
        <pt x="-279" y="-450" on="0"/>
        <pt x="-345" y="-422" on="0"/>
        <pt x="-390" y="-381" on="0"/>
        <pt x="-413" y="-337" on="0"/>
        <pt x="-413" y="-320" on="1"/>
        <pt x="-384" y="-302" on="0"/>
        <pt x="-324" y="-280" on="0"/>
        <pt x="-291" y="-280" on="1"/>
        <pt x="-270" y="-280" on="0"/>
        <pt x="-225" y="-293" on="0"/>
        <pt x="-184" y="-316" on="0"/>
        <pt x="-149" y="-348" on="0"/>
        <pt x="-137" y="-368" on="1"/>
        <pt x="-95" y="-326" on="0"/>
        <pt x="-95" y="-267" on="1"/>
        <pt x="-95" y="-238" on="0"/>
        <pt x="-117" y="-186" on="0"/>
        <pt x="-156" y="-147" on="0"/>
        <pt x="-207" y="-125" on="0"/>
        <pt x="-237" y="-125" on="1"/>
        <pt x="-278" y="-125" on="0"/>
        <pt x="-352" y="-168" on="0"/>
        <pt x="-374" y="-210" on="1"/>
        <pt x="-407" y="-189" on="1"/>
        <pt x="-396" y="-164" on="0"/>
        <pt x="-359" y="-125" on="0"/>
        <pt x="-313" y="-98" on="0"/>
        <pt x="-262" y="-84" on="0"/>
        <pt x="-237" y="-84" on="1"/>
        <pt x="-200" y="-84" on="0"/>
        <pt x="-134" y="-113" on="0"/>
        <pt x="-84" y="-162" on="0"/>
        <pt x="-56" y="-229" on="0"/>
      </contour>
      <contour>
        <pt x="-164" y="-392" on="1"/>
        <pt x="-183" y="-357" on="0"/>
        <pt x="-252" y="-315" on="0"/>
        <pt x="-294" y="-315" on="1"/>
        <pt x="-314" y="-315" on="0"/>
        <pt x="-351" y="-326" on="0"/>
        <pt x="-369" y="-336" on="1"/>
        <pt x="-352" y="-372" on="0"/>
        <pt x="-277" y="-410" on="0"/>
        <pt x="-237" y="-410" on="1"/>
        <pt x="-218" y="-410" on="0"/>
        <pt x="-181" y="-400" on="0"/>
      </contour>
    </TTGlyph>
    <TTGlyph name="u1002" xMin="55" yMin="-15" xMax="529" yMax="457">
      <contour>
        <pt x="529" y="202" on="1"/>
        <pt x="529" y="160" on="0"/>
        <pt x="515" y="95" on="0"/>
        <pt x="489" y="43" on="0"/>
        <pt x="454" y="2" on="0"/>
        <pt x="432" y="-15" on="1"/>
        <pt x="402" y="28" on="1"/>
        <pt x="437" y="60" on="0"/>
        <pt x="478" y="145" on="0"/>
        <pt x="478" y="202" on="1"/>
        <pt x="478" y="247" on="0"/>
        <pt x="449" y="322" on="0"/>
        <pt x="398" y="376" on="0"/>
        <pt x="330" y="406" on="0"/>
        <pt x="292" y="406" on="1"/>
        <pt x="254" y="406" on="0"/>
        <pt x="186" y="376" on="0"/>
        <pt x="135" y="322" on="0"/>
        <pt x="106" y="247" on="0"/>
        <pt x="106" y="202" on="1"/>
        <pt x="106" y="145" on="0"/>
        <pt x="148" y="60" on="0"/>
        <pt x="183" y="28" on="1"/>
        <pt x="153" y="-15" on="1"/>
        <pt x="132" y="2" on="0"/>
        <pt x="96" y="43" on="0"/>
        <pt x="70" y="95" on="0"/>
        <pt x="55" y="160" on="0"/>
        <pt x="55" y="202" on="1"/>
        <pt x="55" y="259" on="0"/>
        <pt x="92" y="353" on="0"/>
        <pt x="157" y="420" on="0"/>
        <pt x="243" y="457" on="0"/>
        <pt x="292" y="457" on="1"/>
        <pt x="341" y="457" on="0"/>
        <pt x="427" y="420" on="0"/>
        <pt x="492" y="353" on="0"/>
        <pt x="529" y="259" on="0"/>
      </contour>
    </TTGlyph>
    <TTGlyph name="u1002.kham" xMin="55" yMin="-15" xMax="529" yMax="457">
      <contour>
        <pt x="529" y="202" on="1"/>
        <pt x="529" y="120" on="0"/>
        <pt x="476" y="20" on="0"/>
        <pt x="432" y="-15" on="1"/>
        <pt x="402" y="28" on="1"/>
        <pt x="437" y="60" on="0"/>
        <pt x="478" y="145" on="0"/>
        <pt x="478" y="202" on="1"/>
        <pt x="478" y="247" on="0"/>
        <pt x="449" y="322" on="0"/>
        <pt x="398" y="376" on="0"/>
        <pt x="330" y="406" on="0"/>
        <pt x="292" y="406" on="1"/>
        <pt x="254" y="406" on="0"/>
        <pt x="186" y="376" on="0"/>
        <pt x="135" y="322" on="0"/>
        <pt x="106" y="247" on="0"/>
        <pt x="106" y="202" on="1"/>
        <pt x="106" y="154" on="0"/>
        <pt x="123" y="111" on="1"/>
        <pt x="134" y="123" on="0"/>
        <pt x="163" y="138" on="0"/>
        <pt x="180" y="138" on="1"/>
        <pt x="210" y="138" on="0"/>
        <pt x="255" y="92" on="0"/>
        <pt x="255" y="61" on="1"/>
        <pt x="255" y="31" on="0"/>
        <pt x="210" y="-14" on="0"/>
        <pt x="180" y="-14" on="1"/>
        <pt x="160" y="-14" on="0"/>
        <pt x="116" y="16" on="0"/>
        <pt x="79" y="73" on="0"/>
        <pt x="55" y="152" on="0"/>
        <pt x="55" y="202" on="1"/>
        <pt x="55" y="259" on="0"/>
        <pt x="92" y="353" on="0"/>
        <pt x="157" y="420" on="0"/>
        <pt x="243" y="457" on="0"/>
        <pt x="292" y="457" on="1"/>
        <pt x="341" y="457" on="0"/>
        <pt x="427" y="420" on="0"/>
        <pt x="492" y="353" on="0"/>
        <pt x="529" y="259" on="0"/>
      </contour>
    </TTGlyph>
    <TTGlyph name="u1002.med" xMin="-422" yMin="-450" xMax="-56" yMax="-86">
      <contour>
        <pt x="-56" y="-282" on="1"/>
        <pt x="-56" y="-347" on="0"/>
        <pt x="-98" y="-423" on="0"/>
        <pt x="-131" y="-450" on="1"/>
        <pt x="-155" y="-417" on="1"/>
        <pt x="-128" y="-392" on="0"/>
        <pt x="-96" y="-327" on="0"/>
        <pt x="-96" y="-282" on="1"/>
        <pt x="-96" y="-252" on="0"/>
        <pt x="-115" y="-195" on="0"/>
        <pt x="-152" y="-152" on="0"/>
        <pt x="-205" y="-125" on="0"/>
        <pt x="-239" y="-125" on="1"/>
        <pt x="-269" y="-125" on="0"/>
        <pt x="-321" y="-148" on="0"/>
        <pt x="-360" y="-189" on="0"/>
        <pt x="-382" y="-247" on="0"/>
        <pt x="-382" y="-281" on="1"/>
        <pt x="-382" y="-326" on="0"/>
        <pt x="-348" y="-392" on="0"/>
        <pt x="-323" y="-417" on="1"/>
        <pt x="-347" y="-450" on="1"/>
        <pt x="-380" y="-423" on="0"/>
        <pt x="-422" y="-347" on="0"/>
        <pt x="-422" y="-282" on="1"/>
        <pt x="-422" y="-239" on="0"/>
        <pt x="-394" y="-167" on="0"/>
        <pt x="-344" y="-115" on="0"/>
        <pt x="-277" y="-86" on="0"/>
        <pt x="-239" y="-86" on="1"/>
        <pt x="-201" y="-86" on="0"/>
        <pt x="-134" y="-115" on="0"/>
        <pt x="-85" y="-167" on="0"/>
        <pt x="-56" y="-239" on="0"/>
      </contour>
    </TTGlyph>
    <TTGlyph name="u1003" xMin="55" yMin="-15" xMax="943" yMax="459">
      <contour>
        <pt x="943" y="222" on="1"/>
        <pt x="943" y="173" on="0"/>
        <pt x="906" y="87" on="0"/>
        <pt x="843" y="22" on="0"/>
        <pt x="758" y="-15" on="0"/>
        <pt x="711" y="-15" on="1"/>
        <pt x="678" y="-15" on="0"/>
        <pt x="615" y="7" on="0"/>
        <pt x="561" y="45" on="0"/>
        <pt x="517" y="98" on="0"/>
        <pt x="501" y="130" on="1"/>
        <pt x="472" y="62" on="0"/>
        <pt x="357" y="-15" on="0"/>
        <pt x="285" y="-15" on="1"/>
        <pt x="232" y="-15" on="0"/>
        <pt x="147" y="20" on="0"/>
        <pt x="87" y="73" on="0"/>
        <pt x="55" y="138" on="0"/>
        <pt x="55" y="168" on="1"/>
        <pt x="55" y="199" on="0"/>
        <pt x="76" y="242" on="0"/>
        <pt x="107" y="271" on="0"/>
        <pt x="143" y="290" on="0"/>
        <pt x="174" y="307" on="0"/>
        <pt x="195" y="325" on="0"/>
        <pt x="195" y="339" on="1"/>
        <pt x="195" y="376" on="0"/>
        <pt x="160" y="405" on="0"/>
        <pt x="142" y="405" on="1"/>
        <pt x="133" y="405" on="0"/>
        <pt x="118" y="398" on="0"/>
        <pt x="106" y="388" on="0"/>
        <pt x="99" y="378" on="0"/>
        <pt x="99" y="375" on="1"/>
        <pt x="55" y="402" on="1"/>
        <pt x="57" y="409" on="0"/>
        <pt x="75" y="428" on="0"/>
        <pt x="100" y="445" on="0"/>
        <pt x="128" y="456" on="0"/>
        <pt x="142" y="456" on="1"/>
        <pt x="162" y="456" on="0"/>
        <pt x="200" y="441" on="0"/>
        <pt x="229" y="411" on="0"/>
        <pt x="246" y="367" on="0"/>
        <pt x="246" y="339" on="1"/>
        <pt x="246" y="315" on="0"/>
        <pt x="225" y="283" on="0"/>
        <pt x="194" y="260" on="0"/>
        <pt x="158" y="241" on="0"/>
        <pt x="127" y="219" on="0"/>
        <pt x="106" y="190" on="0"/>
        <pt x="106" y="168" on="1"/>
        <pt x="106" y="159" on="0"/>
        <pt x="126" y="115" on="0"/>
        <pt x="169" y="70" on="0"/>
        <pt x="237" y="36" on="0"/>
        <pt x="285" y="36" on="1"/>
        <pt x="329" y="36" on="0"/>
        <pt x="398" y="71" on="0"/>
        <pt x="446" y="130" on="0"/>
        <pt x="471" y="208" on="0"/>
        <pt x="471" y="252" on="1"/>
        <pt x="471" y="304" on="0"/>
        <pt x="424" y="388" on="0"/>
        <pt x="394" y="414" on="1"/>
        <pt x="424" y="457" on="1"/>
        <pt x="466" y="423" on="0"/>
        <pt x="522" y="320" on="0"/>
        <pt x="522" y="240" on="1"/>
        <pt x="522" y="205" on="0"/>
        <pt x="554" y="133" on="0"/>
        <pt x="607" y="74" on="0"/>
        <pt x="675" y="36" on="0"/>
        <pt x="711" y="36" on="1"/>
        <pt x="748" y="36" on="0"/>
        <pt x="814" y="65" on="0"/>
        <pt x="864" y="116" on="0"/>
        <pt x="892" y="184" on="0"/>
        <pt x="892" y="222" on="1"/>
        <pt x="892" y="260" on="0"/>
        <pt x="864" y="328" on="0"/>
        <pt x="814" y="379" on="0"/>
        <pt x="748" y="408" on="0"/>
        <pt x="711" y="408" on="1"/>
        <pt x="698" y="408" on="0"/>
        <pt x="672" y="403" on="0"/>
        <pt x="660" y="397" on="1"/>
        <pt x="640" y="444" on="1"/>
        <pt x="674" y="459" on="0"/>
        <pt x="711" y="459" on="1"/>
        <pt x="758" y="459" on="0"/>
        <pt x="843" y="421" on="0"/>
        <pt x="906" y="357" on="0"/>
        <pt x="943" y="270" on="0"/>
      </contour>
    </TTGlyph>
    <TTGlyph name="u1003.med" xMin="-740" yMin="-450" xMax="-56" yMax="-86">
      <contour>
        <pt x="-56" y="-267" on="1"/>
        <pt x="-56" y="-305" on="0"/>
        <pt x="-84" y="-372" on="0"/>
        <pt x="-133" y="-422" on="0"/>
        <pt x="-198" y="-450" on="0"/>
        <pt x="-234" y="-450" on="1"/>
        <pt x="-284" y="-450" on="0"/>
        <pt x="-370" y="-386" on="0"/>
        <pt x="-396" y="-338" on="1"/>
        <pt x="-418" y="-391" on="0"/>
        <pt x="-507" y="-450" on="0"/>
        <pt x="-563" y="-450" on="1"/>
        <pt x="-604" y="-450" on="0"/>
        <pt x="-669" y="-423" on="0"/>
        <pt x="-715" y="-381" on="0"/>
        <pt x="-740" y="-332" on="0"/>
        <pt x="-740" y="-309" on="1"/>
        <pt x="-740" y="-273" on="0"/>
        <pt x="-706" y="-235" on="0"/>
        <pt x="-666" y="-210" on="0"/>
        <pt x="-632" y="-190" on="0"/>
        <pt x="-632" y="-172" on="1"/>
        <pt x="-632" y="-146" on="0"/>
        <pt x="-658" y="-126" on="0"/>
        <pt x="-672" y="-126" on="1"/>
        <pt x="-687" y="-126" on="0"/>
        <pt x="-705" y="-141" on="0"/>
        <pt x="-707" y="-149" on="1"/>
        <pt x="-740" y="-129" on="1"/>
        <pt x="-738" y="-115" on="0"/>
        <pt x="-696" y="-87" on="0"/>
        <pt x="-672" y="-87" on="1"/>
        <pt x="-640" y="-87" on="0"/>
        <pt x="-593" y="-133" on="0"/>
        <pt x="-593" y="-177" on="1"/>
        <pt x="-593" y="-204" on="0"/>
        <pt x="-627" y="-233" on="0"/>
        <pt x="-667" y="-256" on="0"/>
        <pt x="-701" y="-283" on="0"/>
        <pt x="-701" y="-309" on="1"/>
        <pt x="-701" y="-317" on="0"/>
        <pt x="-686" y="-350" on="0"/>
        <pt x="-653" y="-384" on="0"/>
        <pt x="-601" y="-410" on="0"/>
        <pt x="-563" y="-410" on="1"/>
        <pt x="-529" y="-410" on="0"/>
        <pt x="-475" y="-384" on="0"/>
        <pt x="-439" y="-339" on="0"/>
        <pt x="-420" y="-279" on="0"/>
        <pt x="-420" y="-245" on="1"/>
        <pt x="-420" y="-227" on="0"/>
        <pt x="-431" y="-190" on="0"/>
        <pt x="-448" y="-157" on="0"/>
        <pt x="-469" y="-128" on="0"/>
        <pt x="-479" y="-119" on="1"/>
        <pt x="-455" y="-86" on="1"/>
        <pt x="-422" y="-113" on="0"/>
        <pt x="-378" y="-191" on="0"/>
        <pt x="-378" y="-254" on="1"/>
        <pt x="-378" y="-281" on="0"/>
        <pt x="-354" y="-337" on="0"/>
        <pt x="-314" y="-382" on="0"/>
        <pt x="-262" y="-410" on="0"/>
        <pt x="-234" y="-410" on="1"/>
        <pt x="-206" y="-410" on="0"/>
        <pt x="-155" y="-387" on="0"/>
        <pt x="-117" y="-348" on="0"/>
        <pt x="-95" y="-296" on="0"/>
        <pt x="-95" y="-267" on="1"/>
        <pt x="-95" y="-238" on="0"/>
        <pt x="-117" y="-186" on="0"/>
        <pt x="-155" y="-147" on="0"/>
        <pt x="-206" y="-125" on="0"/>
        <pt x="-234" y="-125" on="1"/>
        <pt x="-243" y="-125" on="0"/>
        <pt x="-263" y="-130" on="0"/>
        <pt x="-272" y="-135" on="1"/>
        <pt x="-288" y="-98" on="1"/>
        <pt x="-276" y="-90" on="0"/>
        <pt x="-249" y="-86" on="0"/>
        <pt x="-234" y="-86" on="1"/>
        <pt x="-198" y="-86" on="0"/>
        <pt x="-133" y="-114" on="0"/>
        <pt x="-84" y="-163" on="0"/>
        <pt x="-56" y="-229" on="0"/>
      </contour>
    </TTGlyph>
    <TTGlyph name="u1004" xMin="55" yMin="-15" xMax="513" yMax="459">
      <contour>
        <pt x="513" y="121" on="1"/>
        <pt x="499" y="87" on="0"/>
        <pt x="451" y="36" on="0"/>
        <pt x="392" y="2" on="0"/>
        <pt x="325" y="-15" on="0"/>
        <pt x="292" y="-15" on="1"/>
        <pt x="243" y="-15" on="0"/>
        <pt x="157" y="22" on="0"/>
        <pt x="92" y="87" on="0"/>
        <pt x="55" y="173" on="0"/>
        <pt x="55" y="222" on="1"/>
        <pt x="55" y="270" on="0"/>
        <pt x="92" y="357" on="0"/>
        <pt x="157" y="421" on="0"/>
        <pt x="243" y="459" on="0"/>
        <pt x="292" y="459" on="1"/>
        <pt x="325" y="459" on="0"/>
        <pt x="392" y="441" on="0"/>
        <pt x="451" y="407" on="0"/>
        <pt x="499" y="356" on="0"/>
        <pt x="513" y="322" on="1"/>
        <pt x="469" y="297" on="1"/>
        <pt x="441" y="350" on="0"/>
        <pt x="346" y="408" on="0"/>
        <pt x="292" y="408" on="1"/>
        <pt x="254" y="408" on="0"/>
        <pt x="186" y="379" on="0"/>
        <pt x="135" y="328" on="0"/>
        <pt x="106" y="260" on="0"/>
        <pt x="106" y="222" on="1"/>
        <pt x="106" y="184" on="0"/>
        <pt x="135" y="116" on="0"/>
        <pt x="186" y="65" on="0"/>
        <pt x="254" y="36" on="0"/>
        <pt x="292" y="36" on="1"/>
        <pt x="346" y="36" on="0"/>
        <pt x="441" y="93" on="0"/>
        <pt x="469" y="147" on="1"/>
        <pt x="513" y="121" on="1"/>
      </contour>
    </TTGlyph>
    <TTGlyph name="u1004.kham" xMin="55" yMin="-15" xMax="513" yMax="459">
      <contour>
        <pt x="513" y="121" on="1"/>
        <pt x="499" y="87" on="0"/>
        <pt x="451" y="36" on="0"/>
        <pt x="392" y="2" on="0"/>
        <pt x="325" y="-15" on="0"/>
        <pt x="292" y="-15" on="1"/>
        <pt x="243" y="-15" on="0"/>
        <pt x="157" y="22" on="0"/>
        <pt x="92" y="87" on="0"/>
        <pt x="55" y="173" on="0"/>
        <pt x="55" y="222" on="1"/>
        <pt x="55" y="270" on="0"/>
        <pt x="92" y="357" on="0"/>
        <pt x="157" y="421" on="0"/>
        <pt x="243" y="459" on="0"/>
        <pt x="292" y="459" on="1"/>
        <pt x="341" y="459" on="0"/>
        <pt x="422" y="428" on="0"/>
        <pt x="479" y="382" on="0"/>
        <pt x="511" y="330" on="0"/>
        <pt x="511" y="309" on="1"/>
        <pt x="511" y="278" on="0"/>
        <pt x="467" y="232" on="0"/>
        <pt x="436" y="232" on="1"/>
        <pt x="406" y="232" on="0"/>
        <pt x="361" y="278" on="0"/>
        <pt x="361" y="309" on="1"/>
        <pt x="361" y="329" on="0"/>
        <pt x="382" y="364" on="0"/>
        <pt x="399" y="373" on="1"/>
        <pt x="349" y="408" on="0"/>
        <pt x="292" y="408" on="1"/>
        <pt x="254" y="408" on="0"/>
        <pt x="186" y="379" on="0"/>
        <pt x="135" y="328" on="0"/>
        <pt x="106" y="260" on="0"/>
        <pt x="106" y="222" on="1"/>
        <pt x="106" y="184" on="0"/>
        <pt x="135" y="116" on="0"/>
        <pt x="186" y="65" on="0"/>
        <pt x="254" y="36" on="0"/>
        <pt x="292" y="36" on="1"/>
        <pt x="346" y="36" on="0"/>
        <pt x="441" y="93" on="0"/>
        <pt x="469" y="147" on="1"/>
        <pt x="513" y="121" on="1"/>
      </contour>
    </TTGlyph>
    <TTGlyph name="u1004.kinzi" xMin="-192" yMin="534" xMax="0" yMax="904">
      <contour>
        <pt x="0" y="586" on="1"/>
        <pt x="-28" y="534" on="0"/>
        <pt x="-92" y="534" on="1"/>
        <pt x="-112" y="534" on="0"/>
        <pt x="-148" y="551" on="0"/>
        <pt x="-175" y="578" on="0"/>
        <pt x="-192" y="614" on="0"/>
        <pt x="-192" y="634" on="1"/>
        <pt x="-192" y="665" on="0"/>
        <pt x="-166" y="705" on="0"/>
        <pt x="-146" y="718" on="1"/>
        <pt x="-167" y="733" on="0"/>
        <pt x="-192" y="772" on="0"/>
        <pt x="-192" y="804" on="1"/>
        <pt x="-192" y="823" on="0"/>
        <pt x="-177" y="860" on="0"/>
        <pt x="-150" y="887" on="0"/>
        <pt x="-114" y="904" on="0"/>
        <pt x="-93" y="904" on="1"/>
        <pt x="-58" y="904" on="0"/>
        <pt x="-21" y="875" on="0"/>
        <pt x="-11" y="853" on="1"/>
        <pt x="-42" y="831" on="1"/>
        <pt x="-51" y="848" on="0"/>
        <pt x="-73" y="865" on="0"/>
        <pt x="-93" y="865" on="1"/>
        <pt x="-117" y="865" on="0"/>
        <pt x="-153" y="830" on="0"/>
        <pt x="-153" y="804" on="1"/>
        <pt x="-153" y="790" on="0"/>
        <pt x="-142" y="766" on="0"/>
        <pt x="-125" y="746" on="0"/>
        <pt x="-104" y="735" on="0"/>
        <pt x="-93" y="735" on="1"/>
        <pt x="-61" y="735" on="0"/>
        <pt x="-14" y="705" on="0"/>
        <pt x="0" y="682" on="1"/>
        <pt x="-33" y="664" on="1"/>
        <pt x="-46" y="679" on="0"/>
        <pt x="-72" y="697" on="0"/>
        <pt x="-92" y="697" on="1"/>
        <pt x="-103" y="697" on="0"/>
        <pt x="-124" y="687" on="0"/>
        <pt x="-142" y="670" on="0"/>
        <pt x="-153" y="647" on="0"/>
        <pt x="-153" y="634" on="1"/>
        <pt x="-153" y="608" on="0"/>
        <pt x="-113" y="573" on="0"/>
        <pt x="-92" y="573" on="1"/>
        <pt x="-72" y="573" on="0"/>
        <pt x="-46" y="590" on="0"/>
        <pt x="-33" y="604" on="1"/>
        <pt x="0" y="586" on="1"/>
      </contour>
    </TTGlyph>
    <TTGlyph name="u1004.kinzi_u102D" xMin="-587" yMin="534" xMax="0" yMax="904">
      <contour>
        <pt x="0" y="720" on="1"/>
        <pt x="0" y="682" on="0"/>
        <pt x="-28" y="615" on="0"/>
        <pt x="-77" y="566" on="0"/>
        <pt x="-142" y="537" on="0"/>
        <pt x="-179" y="537" on="1"/>
        <pt x="-215" y="537" on="0"/>
        <pt x="-280" y="566" on="0"/>
        <pt x="-329" y="615" on="0"/>
        <pt x="-357" y="682" on="0"/>
        <pt x="-357" y="720" on="1"/>
        <pt x="-357" y="757" on="0"/>
        <pt x="-329" y="824" on="0"/>
        <pt x="-280" y="874" on="0"/>
        <pt x="-215" y="903" on="0"/>
        <pt x="-179" y="903" on="1"/>
        <pt x="-142" y="903" on="0"/>
        <pt x="-77" y="874" on="0"/>
        <pt x="-28" y="824" on="0"/>
        <pt x="0" y="757" on="0"/>
      </contour>
      <contour>
        <pt x="-39" y="720" on="1"/>
        <pt x="-39" y="749" on="0"/>
        <pt x="-61" y="801" on="0"/>
        <pt x="-99" y="840" on="0"/>
        <pt x="-150" y="862" on="0"/>
        <pt x="-179" y="862" on="1"/>
        <pt x="-208" y="862" on="0"/>
        <pt x="-258" y="840" on="0"/>
        <pt x="-296" y="801" on="0"/>
        <pt x="-318" y="749" on="0"/>
        <pt x="-318" y="720" on="1"/>
        <pt x="-318" y="691" on="0"/>
        <pt x="-296" y="639" on="0"/>
        <pt x="-258" y="600" on="0"/>
        <pt x="-208" y="577" on="0"/>
        <pt x="-179" y="577" on="1"/>
        <pt x="-150" y="577" on="0"/>
        <pt x="-99" y="600" on="0"/>
        <pt x="-61" y="639" on="0"/>
        <pt x="-39" y="691" on="0"/>
      </contour>
      <contour>
        <pt x="-395" y="586" on="1"/>
        <pt x="-423" y="534" on="0"/>
        <pt x="-487" y="534" on="1"/>
        <pt x="-507" y="534" on="0"/>
        <pt x="-543" y="551" on="0"/>
        <pt x="-570" y="578" on="0"/>
        <pt x="-587" y="614" on="0"/>
        <pt x="-587" y="634" on="1"/>
        <pt x="-587" y="665" on="0"/>
        <pt x="-561" y="705" on="0"/>
        <pt x="-541" y="718" on="1"/>
        <pt x="-562" y="733" on="0"/>
        <pt x="-587" y="772" on="0"/>
        <pt x="-587" y="804" on="1"/>
        <pt x="-587" y="823" on="0"/>
        <pt x="-572" y="860" on="0"/>
        <pt x="-545" y="887" on="0"/>
        <pt x="-509" y="904" on="0"/>
        <pt x="-488" y="904" on="1"/>
        <pt x="-453" y="904" on="0"/>
        <pt x="-416" y="875" on="0"/>
        <pt x="-406" y="853" on="1"/>
        <pt x="-437" y="831" on="1"/>
        <pt x="-446" y="848" on="0"/>
        <pt x="-468" y="865" on="0"/>
        <pt x="-488" y="865" on="1"/>
        <pt x="-512" y="865" on="0"/>
        <pt x="-548" y="830" on="0"/>
        <pt x="-548" y="804" on="1"/>
        <pt x="-548" y="790" on="0"/>
        <pt x="-537" y="766" on="0"/>
        <pt x="-520" y="746" on="0"/>
        <pt x="-499" y="735" on="0"/>
        <pt x="-488" y="735" on="1"/>
        <pt x="-456" y="735" on="0"/>
        <pt x="-409" y="705" on="0"/>
        <pt x="-395" y="682" on="1"/>
        <pt x="-428" y="664" on="1"/>
        <pt x="-441" y="679" on="0"/>
        <pt x="-467" y="697" on="0"/>
        <pt x="-487" y="697" on="1"/>
        <pt x="-498" y="697" on="0"/>
        <pt x="-519" y="687" on="0"/>
        <pt x="-537" y="670" on="0"/>
        <pt x="-548" y="647" on="0"/>
        <pt x="-548" y="634" on="1"/>
        <pt x="-548" y="608" on="0"/>
        <pt x="-508" y="573" on="0"/>
        <pt x="-487" y="573" on="1"/>
        <pt x="-467" y="573" on="0"/>
        <pt x="-441" y="590" on="0"/>
        <pt x="-428" y="604" on="1"/>
      </contour>
    </TTGlyph>
    <TTGlyph name="u1004.kinzi_u102D_u1036" xMin="-752" yMin="534" xMax="0" yMax="904">
      <contour>
        <pt x="-165" y="720" on="1"/>
        <pt x="-165" y="682" on="0"/>
        <pt x="-193" y="615" on="0"/>
        <pt x="-242" y="566" on="0"/>
        <pt x="-307" y="537" on="0"/>
        <pt x="-344" y="537" on="1"/>
        <pt x="-380" y="537" on="0"/>
        <pt x="-445" y="566" on="0"/>
        <pt x="-494" y="615" on="0"/>
        <pt x="-522" y="682" on="0"/>
        <pt x="-522" y="720" on="1"/>
        <pt x="-522" y="757" on="0"/>
        <pt x="-494" y="824" on="0"/>
        <pt x="-445" y="874" on="0"/>
        <pt x="-380" y="903" on="0"/>
        <pt x="-344" y="903" on="1"/>
        <pt x="-307" y="903" on="0"/>
        <pt x="-242" y="874" on="0"/>
        <pt x="-193" y="824" on="0"/>
        <pt x="-165" y="757" on="0"/>
      </contour>
      <contour>
        <pt x="-204" y="720" on="1"/>
        <pt x="-204" y="749" on="0"/>
        <pt x="-226" y="801" on="0"/>
        <pt x="-264" y="840" on="0"/>
        <pt x="-315" y="862" on="0"/>
        <pt x="-344" y="862" on="1"/>
        <pt x="-373" y="862" on="0"/>
        <pt x="-423" y="840" on="0"/>
        <pt x="-461" y="801" on="0"/>
        <pt x="-483" y="749" on="0"/>
        <pt x="-483" y="720" on="1"/>
        <pt x="-483" y="691" on="0"/>
        <pt x="-461" y="639" on="0"/>
        <pt x="-423" y="600" on="0"/>
        <pt x="-373" y="577" on="0"/>
        <pt x="-344" y="577" on="1"/>
        <pt x="-315" y="577" on="0"/>
        <pt x="-264" y="600" on="0"/>
        <pt x="-226" y="639" on="0"/>
        <pt x="-204" y="691" on="0"/>
      </contour>
      <contour>
        <pt x="0" y="630" on="1"/>
        <pt x="0" y="598" on="0"/>
        <pt x="-45" y="553" on="0"/>
        <pt x="-75" y="553" on="1"/>
        <pt x="-106" y="553" on="0"/>
        <pt x="-150" y="598" on="0"/>
        <pt x="-150" y="630" on="1"/>
        <pt x="-150" y="660" on="0"/>
        <pt x="-106" y="705" on="0"/>
        <pt x="-75" y="705" on="1"/>
        <pt x="-45" y="705" on="0"/>
        <pt x="0" y="660" on="0"/>
      </contour>
      <contour>
        <pt x="-29" y="630" on="1"/>
        <pt x="-29" y="649" on="0"/>
        <pt x="-56" y="675" on="0"/>
        <pt x="-75" y="675" on="1"/>
        <pt x="-95" y="675" on="0"/>
        <pt x="-122" y="649" on="0"/>
        <pt x="-122" y="630" on="1"/>
        <pt x="-122" y="608" on="0"/>
        <pt x="-95" y="582" on="0"/>
        <pt x="-75" y="582" on="1"/>
        <pt x="-56" y="582" on="0"/>
        <pt x="-29" y="608" on="0"/>
      </contour>
      <contour>
        <pt x="-560" y="586" on="1"/>
        <pt x="-588" y="534" on="0"/>
        <pt x="-652" y="534" on="1"/>
        <pt x="-672" y="534" on="0"/>
        <pt x="-708" y="551" on="0"/>
        <pt x="-735" y="578" on="0"/>
        <pt x="-752" y="614" on="0"/>
        <pt x="-752" y="634" on="1"/>
        <pt x="-752" y="665" on="0"/>
        <pt x="-726" y="705" on="0"/>
        <pt x="-706" y="718" on="1"/>
        <pt x="-727" y="733" on="0"/>
        <pt x="-752" y="772" on="0"/>
        <pt x="-752" y="804" on="1"/>
        <pt x="-752" y="823" on="0"/>
        <pt x="-737" y="860" on="0"/>
        <pt x="-710" y="887" on="0"/>
        <pt x="-674" y="904" on="0"/>
        <pt x="-653" y="904" on="1"/>
        <pt x="-618" y="904" on="0"/>
        <pt x="-581" y="875" on="0"/>
        <pt x="-571" y="853" on="1"/>
        <pt x="-602" y="831" on="1"/>
        <pt x="-611" y="848" on="0"/>
        <pt x="-633" y="865" on="0"/>
        <pt x="-653" y="865" on="1"/>
        <pt x="-677" y="865" on="0"/>
        <pt x="-713" y="830" on="0"/>
        <pt x="-713" y="804" on="1"/>
        <pt x="-713" y="790" on="0"/>
        <pt x="-702" y="765" on="0"/>
        <pt x="-684" y="746" on="0"/>
        <pt x="-662" y="735" on="0"/>
        <pt x="-652" y="735" on="1"/>
        <pt x="-620" y="735" on="0"/>
        <pt x="-574" y="705" on="0"/>
        <pt x="-560" y="682" on="1"/>
        <pt x="-593" y="664" on="1"/>
        <pt x="-606" y="679" on="0"/>
        <pt x="-632" y="697" on="0"/>
        <pt x="-652" y="697" on="1"/>
        <pt x="-663" y="697" on="0"/>
        <pt x="-684" y="687" on="0"/>
        <pt x="-702" y="670" on="0"/>
        <pt x="-713" y="647" on="0"/>
        <pt x="-713" y="634" on="1"/>
        <pt x="-713" y="608" on="0"/>
        <pt x="-673" y="573" on="0"/>
        <pt x="-652" y="573" on="1"/>
        <pt x="-632" y="573" on="0"/>
        <pt x="-606" y="590" on="0"/>
        <pt x="-593" y="604" on="1"/>
      </contour>
    </TTGlyph>
    <TTGlyph name="u1004.kinzi_u102E" xMin="-587" yMin="534" xMax="0" yMax="904">
      <contour>
        <pt x="0" y="717" on="1"/>
        <pt x="0" y="679" on="0"/>
        <pt x="-28" y="613" on="0"/>
        <pt x="-77" y="565" on="0"/>
        <pt x="-142" y="537" on="0"/>
        <pt x="-179" y="537" on="1"/>
        <pt x="-215" y="537" on="0"/>
        <pt x="-280" y="565" on="0"/>
        <pt x="-329" y="615" on="0"/>
        <pt x="-357" y="682" on="0"/>
        <pt x="-357" y="720" on="1"/>
        <pt x="-357" y="758" on="0"/>
        <pt x="-329" y="825" on="0"/>
        <pt x="-280" y="874" on="0"/>
        <pt x="-215" y="903" on="0"/>
        <pt x="-179" y="903" on="1"/>
        <pt x="-142" y="903" on="0"/>
        <pt x="-77" y="873" on="0"/>
        <pt x="-28" y="822" on="0"/>
        <pt x="0" y="754" on="0"/>
      </contour>
      <contour>
        <pt x="-48" y="667" on="1"/>
        <pt x="-39" y="692" on="0"/>
        <pt x="-39" y="720" on="1"/>
        <pt x="-39" y="749" on="0"/>
        <pt x="-61" y="801" on="0"/>
        <pt x="-99" y="840" on="0"/>
        <pt x="-150" y="862" on="0"/>
        <pt x="-179" y="862" on="1"/>
        <pt x="-208" y="862" on="0"/>
        <pt x="-258" y="840" on="0"/>
        <pt x="-296" y="801" on="0"/>
        <pt x="-318" y="749" on="0"/>
        <pt x="-318" y="720" on="1"/>
        <pt x="-318" y="696" on="0"/>
        <pt x="-308" y="667" on="1"/>
        <pt x="-277" y="698" on="0"/>
        <pt x="-211" y="720" on="0"/>
        <pt x="-179" y="720" on="1"/>
        <pt x="-147" y="720" on="0"/>
        <pt x="-77" y="698" on="0"/>
      </contour>
      <contour>
        <pt x="-65" y="634" on="1"/>
        <pt x="-79" y="650" on="0"/>
        <pt x="-111" y="670" on="0"/>
        <pt x="-143" y="681" on="0"/>
        <pt x="-170" y="685" on="0"/>
        <pt x="-179" y="685" on="1"/>
        <pt x="-197" y="685" on="0"/>
        <pt x="-259" y="666" on="0"/>
        <pt x="-290" y="634" on="1"/>
        <pt x="-273" y="611" on="0"/>
        <pt x="-211" y="577" on="0"/>
        <pt x="-179" y="577" on="1"/>
        <pt x="-144" y="577" on="0"/>
        <pt x="-84" y="606" on="0"/>
      </contour>
      <contour>
        <pt x="-395" y="586" on="1"/>
        <pt x="-423" y="534" on="0"/>
        <pt x="-487" y="534" on="1"/>
        <pt x="-507" y="534" on="0"/>
        <pt x="-543" y="551" on="0"/>
        <pt x="-570" y="578" on="0"/>
        <pt x="-587" y="614" on="0"/>
        <pt x="-587" y="634" on="1"/>
        <pt x="-587" y="665" on="0"/>
        <pt x="-561" y="705" on="0"/>
        <pt x="-541" y="718" on="1"/>
        <pt x="-562" y="733" on="0"/>
        <pt x="-587" y="772" on="0"/>
        <pt x="-587" y="804" on="1"/>
        <pt x="-587" y="823" on="0"/>
        <pt x="-572" y="860" on="0"/>
        <pt x="-545" y="887" on="0"/>
        <pt x="-509" y="904" on="0"/>
        <pt x="-488" y="904" on="1"/>
        <pt x="-453" y="904" on="0"/>
        <pt x="-416" y="875" on="0"/>
        <pt x="-406" y="853" on="1"/>
        <pt x="-437" y="831" on="1"/>
        <pt x="-446" y="848" on="0"/>
        <pt x="-468" y="865" on="0"/>
        <pt x="-488" y="865" on="1"/>
        <pt x="-512" y="865" on="0"/>
        <pt x="-548" y="830" on="0"/>
        <pt x="-548" y="804" on="1"/>
        <pt x="-548" y="790" on="0"/>
        <pt x="-537" y="766" on="0"/>
        <pt x="-519" y="746" on="0"/>
        <pt x="-498" y="735" on="0"/>
        <pt x="-488" y="735" on="1"/>
        <pt x="-456" y="735" on="0"/>
        <pt x="-409" y="705" on="0"/>
        <pt x="-395" y="682" on="1"/>
        <pt x="-428" y="664" on="1"/>
        <pt x="-441" y="679" on="0"/>
        <pt x="-467" y="697" on="0"/>
        <pt x="-487" y="697" on="1"/>
        <pt x="-498" y="697" on="0"/>
        <pt x="-519" y="687" on="0"/>
        <pt x="-537" y="670" on="0"/>
        <pt x="-548" y="647" on="0"/>
        <pt x="-548" y="634" on="1"/>
        <pt x="-548" y="608" on="0"/>
        <pt x="-508" y="573" on="0"/>
        <pt x="-487" y="573" on="1"/>
        <pt x="-467" y="573" on="0"/>
        <pt x="-441" y="590" on="0"/>
        <pt x="-428" y="604" on="1"/>
      </contour>
    </TTGlyph>
    <TTGlyph name="u1004.kinzi_u1032" xMin="-587" yMin="534" xMax="0" yMax="904">
      <contour>
        <pt x="-23" y="610" on="1"/>
        <pt x="-321" y="847" on="1"/>
        <pt x="-299" y="880" on="1"/>
        <pt x="0" y="643" on="1"/>
      </contour>
      <contour>
        <pt x="-395" y="586" on="1"/>
        <pt x="-423" y="534" on="0"/>
        <pt x="-487" y="534" on="1"/>
        <pt x="-507" y="534" on="0"/>
        <pt x="-543" y="551" on="0"/>
        <pt x="-570" y="578" on="0"/>
        <pt x="-587" y="614" on="0"/>
        <pt x="-587" y="634" on="1"/>
        <pt x="-587" y="665" on="0"/>
        <pt x="-561" y="705" on="0"/>
        <pt x="-541" y="718" on="1"/>
        <pt x="-562" y="733" on="0"/>
        <pt x="-587" y="772" on="0"/>
        <pt x="-587" y="804" on="1"/>
        <pt x="-587" y="823" on="0"/>
        <pt x="-572" y="860" on="0"/>
        <pt x="-545" y="887" on="0"/>
        <pt x="-509" y="904" on="0"/>
        <pt x="-488" y="904" on="1"/>
        <pt x="-453" y="904" on="0"/>
        <pt x="-416" y="875" on="0"/>
        <pt x="-406" y="853" on="1"/>
        <pt x="-437" y="831" on="1"/>
        <pt x="-446" y="848" on="0"/>
        <pt x="-468" y="865" on="0"/>
        <pt x="-488" y="865" on="1"/>
        <pt x="-512" y="865" on="0"/>
        <pt x="-548" y="830" on="0"/>
        <pt x="-548" y="804" on="1"/>
        <pt x="-548" y="790" on="0"/>
        <pt x="-536" y="766" on="0"/>
        <pt x="-518" y="746" on="0"/>
        <pt x="-497" y="735" on="0"/>
        <pt x="-488" y="735" on="1"/>
        <pt x="-456" y="735" on="0"/>
        <pt x="-409" y="705" on="0"/>
        <pt x="-395" y="682" on="1"/>
        <pt x="-428" y="664" on="1"/>
        <pt x="-441" y="679" on="0"/>
        <pt x="-467" y="697" on="0"/>
        <pt x="-487" y="697" on="1"/>
        <pt x="-498" y="697" on="0"/>
        <pt x="-519" y="687" on="0"/>
        <pt x="-537" y="670" on="0"/>
        <pt x="-548" y="647" on="0"/>
        <pt x="-548" y="634" on="1"/>
        <pt x="-548" y="608" on="0"/>
        <pt x="-508" y="573" on="0"/>
        <pt x="-487" y="573" on="1"/>
        <pt x="-467" y="573" on="0"/>
        <pt x="-441" y="590" on="0"/>
        <pt x="-428" y="604" on="1"/>
      </contour>
    </TTGlyph>
    <TTGlyph name="u1004.kinzi_u1033" xMin="-587" yMin="534" xMax="0" yMax="904">
      <contour>
        <pt x="0" y="720" on="1"/>
        <pt x="0" y="682" on="0"/>
        <pt x="-28" y="615" on="0"/>
        <pt x="-76" y="566" on="0"/>
        <pt x="-140" y="537" on="0"/>
        <pt x="-177" y="537" on="1"/>
        <pt x="-215" y="537" on="0"/>
        <pt x="-281" y="566" on="0"/>
        <pt x="-330" y="615" on="0"/>
        <pt x="-358" y="682" on="0"/>
        <pt x="-358" y="720" on="1"/>
        <pt x="-358" y="757" on="0"/>
        <pt x="-330" y="823" on="0"/>
        <pt x="-282" y="873" on="0"/>
        <pt x="-217" y="902" on="0"/>
        <pt x="-180" y="902" on="1"/>
        <pt x="-142" y="902" on="0"/>
        <pt x="-76" y="873" on="0"/>
        <pt x="-28" y="823" on="0"/>
        <pt x="0" y="757" on="0"/>
      </contour>
      <contour>
        <pt x="-39" y="720" on="1"/>
        <pt x="-39" y="749" on="0"/>
        <pt x="-61" y="801" on="0"/>
        <pt x="-98" y="840" on="0"/>
        <pt x="-149" y="863" on="0"/>
        <pt x="-177" y="863" on="1"/>
        <pt x="-207" y="863" on="0"/>
        <pt x="-258" y="840" on="0"/>
        <pt x="-296" y="801" on="0"/>
        <pt x="-318" y="749" on="0"/>
        <pt x="-318" y="720" on="1"/>
        <pt x="-318" y="690" on="0"/>
        <pt x="-296" y="638" on="0"/>
        <pt x="-259" y="599" on="0"/>
        <pt x="-209" y="577" on="0"/>
        <pt x="-180" y="577" on="1"/>
        <pt x="-150" y="577" on="0"/>
        <pt x="-99" y="599" on="0"/>
        <pt x="-61" y="638" on="0"/>
        <pt x="-39" y="690" on="0"/>
      </contour>
      <contour>
        <pt x="-83" y="720" on="1"/>
        <pt x="-83" y="702" on="0"/>
        <pt x="-96" y="666" on="0"/>
        <pt x="-120" y="639" on="0"/>
        <pt x="-155" y="622" on="0"/>
        <pt x="-177" y="622" on="1"/>
        <pt x="-193" y="622" on="0"/>
        <pt x="-226" y="635" on="0"/>
        <pt x="-254" y="659" on="0"/>
        <pt x="-272" y="696" on="0"/>
        <pt x="-272" y="720" on="1"/>
        <pt x="-272" y="743" on="0"/>
        <pt x="-254" y="779" on="0"/>
        <pt x="-226" y="804" on="0"/>
        <pt x="-193" y="817" on="0"/>
        <pt x="-177" y="817" on="1"/>
        <pt x="-161" y="817" on="0"/>
        <pt x="-127" y="804" on="0"/>
        <pt x="-100" y="779" on="0"/>
        <pt x="-83" y="743" on="0"/>
      </contour>
      <contour>
        <pt x="-122" y="720" on="1"/>
        <pt x="-122" y="744" on="0"/>
        <pt x="-154" y="778" on="0"/>
        <pt x="-177" y="778" on="1"/>
        <pt x="-201" y="778" on="0"/>
        <pt x="-233" y="744" on="0"/>
        <pt x="-233" y="720" on="1"/>
        <pt x="-233" y="694" on="0"/>
        <pt x="-201" y="661" on="0"/>
        <pt x="-177" y="661" on="1"/>
        <pt x="-154" y="661" on="0"/>
        <pt x="-122" y="694" on="0"/>
      </contour>
      <contour>
        <pt x="-395" y="586" on="1"/>
        <pt x="-423" y="534" on="0"/>
        <pt x="-487" y="534" on="1"/>
        <pt x="-507" y="534" on="0"/>
        <pt x="-543" y="551" on="0"/>
        <pt x="-570" y="578" on="0"/>
        <pt x="-587" y="614" on="0"/>
        <pt x="-587" y="634" on="1"/>
        <pt x="-587" y="665" on="0"/>
        <pt x="-561" y="705" on="0"/>
        <pt x="-541" y="718" on="1"/>
        <pt x="-562" y="733" on="0"/>
        <pt x="-587" y="772" on="0"/>
        <pt x="-587" y="804" on="1"/>
        <pt x="-587" y="823" on="0"/>
        <pt x="-572" y="860" on="0"/>
        <pt x="-545" y="887" on="0"/>
        <pt x="-509" y="904" on="0"/>
        <pt x="-488" y="904" on="1"/>
        <pt x="-453" y="904" on="0"/>
        <pt x="-416" y="875" on="0"/>
        <pt x="-406" y="853" on="1"/>
        <pt x="-437" y="831" on="1"/>
        <pt x="-446" y="848" on="0"/>
        <pt x="-468" y="865" on="0"/>
        <pt x="-488" y="865" on="1"/>
        <pt x="-512" y="865" on="0"/>
        <pt x="-548" y="830" on="0"/>
        <pt x="-548" y="804" on="1"/>
        <pt x="-548" y="790" on="0"/>
        <pt x="-537" y="766" on="0"/>
        <pt x="-519" y="746" on="0"/>
        <pt x="-498" y="735" on="0"/>
        <pt x="-488" y="735" on="1"/>
        <pt x="-456" y="735" on="0"/>
        <pt x="-409" y="705" on="0"/>
        <pt x="-395" y="682" on="1"/>
        <pt x="-428" y="664" on="1"/>
        <pt x="-441" y="679" on="0"/>
        <pt x="-467" y="697" on="0"/>
        <pt x="-487" y="697" on="1"/>
        <pt x="-498" y="697" on="0"/>
        <pt x="-519" y="687" on="0"/>
        <pt x="-537" y="670" on="0"/>
        <pt x="-548" y="647" on="0"/>
        <pt x="-548" y="634" on="1"/>
        <pt x="-548" y="608" on="0"/>
        <pt x="-508" y="573" on="0"/>
        <pt x="-487" y="573" on="1"/>
        <pt x="-467" y="573" on="0"/>
        <pt x="-441" y="590" on="0"/>
        <pt x="-428" y="604" on="1"/>
      </contour>
    </TTGlyph>
    <TTGlyph name="u1004.kinzi_u1036" xMin="-357" yMin="534" xMax="0" yMax="904">
      <contour>
        <pt x="0" y="675" on="1"/>
        <pt x="0" y="643" on="0"/>
        <pt x="-45" y="598" on="0"/>
        <pt x="-75" y="598" on="1"/>
        <pt x="-106" y="598" on="0"/>
        <pt x="-150" y="643" on="0"/>
        <pt x="-150" y="675" on="1"/>
        <pt x="-150" y="705" on="0"/>
        <pt x="-106" y="750" on="0"/>
        <pt x="-75" y="750" on="1"/>
        <pt x="-45" y="750" on="0"/>
        <pt x="0" y="705" on="0"/>
      </contour>
      <contour>
        <pt x="-29" y="675" on="1"/>
        <pt x="-29" y="694" on="0"/>
        <pt x="-56" y="720" on="0"/>
        <pt x="-75" y="720" on="1"/>
        <pt x="-95" y="720" on="0"/>
        <pt x="-122" y="694" on="0"/>
        <pt x="-122" y="675" on="1"/>
        <pt x="-122" y="653" on="0"/>
        <pt x="-95" y="627" on="0"/>
        <pt x="-75" y="627" on="1"/>
        <pt x="-56" y="627" on="0"/>
        <pt x="-29" y="653" on="0"/>
      </contour>
      <contour>
        <pt x="-165" y="586" on="1"/>
        <pt x="-193" y="534" on="0"/>
        <pt x="-257" y="534" on="1"/>
        <pt x="-277" y="534" on="0"/>
        <pt x="-313" y="551" on="0"/>
        <pt x="-340" y="578" on="0"/>
        <pt x="-357" y="614" on="0"/>
        <pt x="-357" y="634" on="1"/>
        <pt x="-357" y="665" on="0"/>
        <pt x="-331" y="705" on="0"/>
        <pt x="-311" y="718" on="1"/>
        <pt x="-332" y="733" on="0"/>
        <pt x="-357" y="772" on="0"/>
        <pt x="-357" y="804" on="1"/>
        <pt x="-357" y="823" on="0"/>
        <pt x="-342" y="860" on="0"/>
        <pt x="-315" y="887" on="0"/>
        <pt x="-279" y="904" on="0"/>
        <pt x="-258" y="904" on="1"/>
        <pt x="-223" y="904" on="0"/>
        <pt x="-186" y="875" on="0"/>
        <pt x="-176" y="853" on="1"/>
        <pt x="-207" y="831" on="1"/>
        <pt x="-216" y="848" on="0"/>
        <pt x="-238" y="865" on="0"/>
        <pt x="-258" y="865" on="1"/>
        <pt x="-282" y="865" on="0"/>
        <pt x="-318" y="830" on="0"/>
        <pt x="-318" y="804" on="1"/>
        <pt x="-318" y="790" on="0"/>
        <pt x="-307" y="766" on="0"/>
        <pt x="-290" y="746" on="0"/>
        <pt x="-269" y="735" on="0"/>
        <pt x="-258" y="735" on="1"/>
        <pt x="-226" y="735" on="0"/>
        <pt x="-179" y="705" on="0"/>
        <pt x="-165" y="682" on="1"/>
        <pt x="-198" y="664" on="1"/>
        <pt x="-211" y="679" on="0"/>
        <pt x="-237" y="697" on="0"/>
        <pt x="-257" y="697" on="1"/>
        <pt x="-268" y="697" on="0"/>
        <pt x="-289" y="687" on="0"/>
        <pt x="-307" y="670" on="0"/>
        <pt x="-318" y="647" on="0"/>
        <pt x="-318" y="634" on="1"/>
        <pt x="-318" y="608" on="0"/>
        <pt x="-278" y="573" on="0"/>
        <pt x="-257" y="573" on="1"/>
        <pt x="-237" y="573" on="0"/>
        <pt x="-211" y="590" on="0"/>
        <pt x="-198" y="604" on="1"/>
      </contour>
    </TTGlyph>
    <TTGlyph name="u1004.kinzi_u103A" xMin="-587" yMin="532" xMax="0" yMax="904">
      <contour>
        <pt x="-29" y="802" on="1"/>
        <pt x="-50" y="837" on="0"/>
        <pt x="-111" y="864" on="0"/>
        <pt x="-137" y="864" on="1"/>
        <pt x="-162" y="864" on="0"/>
        <pt x="-212" y="844" on="0"/>
        <pt x="-251" y="807" on="0"/>
        <pt x="-276" y="753" on="0"/>
        <pt x="-276" y="720" on="1"/>
        <pt x="-276" y="679" on="0"/>
        <pt x="-241" y="622" on="0"/>
        <pt x="-194" y="587" on="0"/>
        <pt x="-146" y="571" on="0"/>
        <pt x="-132" y="571" on="1"/>
        <pt x="-132" y="532" on="1"/>
        <pt x="-159" y="532" on="0"/>
        <pt x="-223" y="556" on="0"/>
        <pt x="-278" y="604" on="0"/>
        <pt x="-315" y="674" on="0"/>
        <pt x="-315" y="720" on="1"/>
        <pt x="-315" y="760" on="0"/>
        <pt x="-285" y="828" on="0"/>
        <pt x="-236" y="876" on="0"/>
        <pt x="-172" y="903" on="0"/>
        <pt x="-138" y="903" on="1"/>
        <pt x="-92" y="903" on="0"/>
        <pt x="-17" y="861" on="0"/>
        <pt x="0" y="826" on="1"/>
      </contour>
      <contour>
        <pt x="-395" y="586" on="1"/>
        <pt x="-423" y="534" on="0"/>
        <pt x="-487" y="534" on="1"/>
        <pt x="-507" y="534" on="0"/>
        <pt x="-543" y="551" on="0"/>
        <pt x="-570" y="578" on="0"/>
        <pt x="-587" y="614" on="0"/>
        <pt x="-587" y="634" on="1"/>
        <pt x="-587" y="665" on="0"/>
        <pt x="-561" y="705" on="0"/>
        <pt x="-541" y="718" on="1"/>
        <pt x="-562" y="733" on="0"/>
        <pt x="-587" y="772" on="0"/>
        <pt x="-587" y="804" on="1"/>
        <pt x="-587" y="823" on="0"/>
        <pt x="-572" y="860" on="0"/>
        <pt x="-545" y="887" on="0"/>
        <pt x="-509" y="904" on="0"/>
        <pt x="-488" y="904" on="1"/>
        <pt x="-453" y="904" on="0"/>
        <pt x="-416" y="875" on="0"/>
        <pt x="-406" y="853" on="1"/>
        <pt x="-437" y="831" on="1"/>
        <pt x="-446" y="848" on="0"/>
        <pt x="-468" y="865" on="0"/>
        <pt x="-488" y="865" on="1"/>
        <pt x="-512" y="865" on="0"/>
        <pt x="-548" y="830" on="0"/>
        <pt x="-548" y="804" on="1"/>
        <pt x="-548" y="790" on="0"/>
        <pt x="-537" y="766" on="0"/>
        <pt x="-520" y="746" on="0"/>
        <pt x="-499" y="735" on="0"/>
        <pt x="-488" y="735" on="1"/>
        <pt x="-456" y="735" on="0"/>
        <pt x="-409" y="705" on="0"/>
        <pt x="-395" y="682" on="1"/>
        <pt x="-428" y="664" on="1"/>
        <pt x="-441" y="679" on="0"/>
        <pt x="-467" y="697" on="0"/>
        <pt x="-487" y="697" on="1"/>
        <pt x="-498" y="697" on="0"/>
        <pt x="-519" y="687" on="0"/>
        <pt x="-537" y="670" on="0"/>
        <pt x="-548" y="647" on="0"/>
        <pt x="-548" y="634" on="1"/>
        <pt x="-548" y="608" on="0"/>
        <pt x="-508" y="573" on="0"/>
        <pt x="-487" y="573" on="1"/>
        <pt x="-467" y="573" on="0"/>
        <pt x="-441" y="590" on="0"/>
        <pt x="-428" y="604" on="1"/>
      </contour>
    </TTGlyph>
    <TTGlyph name="u1004.med" xMin="-399" yMin="-450" xMax="-46" yMax="-85">
      <contour>
        <pt x="-46" y="-345" on="1"/>
        <pt x="-57" y="-371" on="0"/>
        <pt x="-94" y="-410" on="0"/>
        <pt x="-139" y="-437" on="0"/>
        <pt x="-191" y="-450" on="0"/>
        <pt x="-216" y="-450" on="1"/>
        <pt x="-254" y="-450" on="0"/>
        <pt x="-320" y="-421" on="0"/>
        <pt x="-370" y="-371" on="0"/>
        <pt x="-399" y="-305" on="0"/>
        <pt x="-399" y="-267" on="1"/>
        <pt x="-399" y="-230" on="0"/>
        <pt x="-370" y="-163" on="0"/>
        <pt x="-320" y="-114" on="0"/>
        <pt x="-254" y="-85" on="0"/>
        <pt x="-216" y="-85" on="1"/>
        <pt x="-191" y="-85" on="0"/>
        <pt x="-139" y="-98" on="0"/>
        <pt x="-94" y="-125" on="0"/>
        <pt x="-57" y="-164" on="0"/>
        <pt x="-46" y="-190" on="1"/>
        <pt x="-80" y="-209" on="1"/>
        <pt x="-101" y="-169" on="0"/>
        <pt x="-174" y="-124" on="0"/>
        <pt x="-216" y="-124" on="1"/>
        <pt x="-246" y="-124" on="0"/>
        <pt x="-298" y="-146" on="0"/>
        <pt x="-337" y="-185" on="0"/>
        <pt x="-359" y="-237" on="0"/>
        <pt x="-359" y="-267" on="1"/>
        <pt x="-359" y="-297" on="0"/>
        <pt x="-337" y="-349" on="0"/>
        <pt x="-298" y="-388" on="0"/>
        <pt x="-246" y="-410" on="0"/>
        <pt x="-216" y="-410" on="1"/>
        <pt x="-174" y="-410" on="0"/>
        <pt x="-101" y="-367" on="0"/>
        <pt x="-80" y="-325" on="1"/>
        <pt x="-46" y="-345" on="1"/>
      </contour>
    </TTGlyph>
    <TTGlyph name="u1005" xMin="55" yMin="-15" xMax="520" yMax="459">
      <contour>
        <pt x="520" y="222" on="1"/>
        <pt x="520" y="173" on="0"/>
        <pt x="484" y="87" on="0"/>
        <pt x="421" y="22" on="0"/>
        <pt x="337" y="-15" on="0"/>
        <pt x="289" y="-15" on="1"/>
        <pt x="239" y="-15" on="0"/>
        <pt x="154" y="22" on="0"/>
        <pt x="91" y="87" on="0"/>
        <pt x="55" y="173" on="0"/>
        <pt x="55" y="222" on="1"/>
        <pt x="55" y="270" on="0"/>
        <pt x="91" y="357" on="0"/>
        <pt x="154" y="421" on="0"/>
        <pt x="238" y="459" on="0"/>
        <pt x="286" y="459" on="1"/>
        <pt x="335" y="459" on="0"/>
        <pt x="421" y="421" on="0"/>
        <pt x="484" y="357" on="0"/>
        <pt x="520" y="270" on="0"/>
      </contour>
      <contour>
        <pt x="469" y="222" on="1"/>
        <pt x="469" y="260" on="0"/>
        <pt x="441" y="327" on="0"/>
        <pt x="392" y="378" on="0"/>
        <pt x="326" y="408" on="0"/>
        <pt x="289" y="408" on="1"/>
        <pt x="254" y="408" on="0"/>
        <pt x="220" y="394" on="1"/>
        <pt x="262" y="354" on="0"/>
        <pt x="292" y="264" on="0"/>
        <pt x="292" y="222" on="1"/>
        <pt x="292" y="180" on="0"/>
        <pt x="262" y="91" on="0"/>
        <pt x="220" y="49" on="1"/>
        <pt x="257" y="36" on="0"/>
        <pt x="286" y="36" on="1"/>
        <pt x="324" y="36" on="0"/>
        <pt x="391" y="65" on="0"/>
        <pt x="440" y="116" on="0"/>
        <pt x="469" y="183" on="0"/>
      </contour>
      <contour>
        <pt x="241" y="222" on="1"/>
        <pt x="241" y="247" on="0"/>
        <pt x="214" y="328" on="0"/>
        <pt x="175" y="367" on="1"/>
        <pt x="144" y="342" on="0"/>
        <pt x="106" y="265" on="0"/>
        <pt x="106" y="222" on="1"/>
        <pt x="106" y="177" on="0"/>
        <pt x="142" y="103" on="0"/>
        <pt x="174" y="78" on="1"/>
        <pt x="213" y="117" on="0"/>
        <pt x="241" y="196" on="0"/>
      </contour>
    </TTGlyph>
    <TTGlyph name="u1005.med" xMin="-413" yMin="-450" xMax="-56" yMax="-84">
      <contour>
        <pt x="-56" y="-267" on="1"/>
        <pt x="-56" y="-305" on="0"/>
        <pt x="-84" y="-372" on="0"/>
        <pt x="-133" y="-422" on="0"/>
        <pt x="-198" y="-450" on="0"/>
        <pt x="-234" y="-450" on="1"/>
        <pt x="-271" y="-450" on="0"/>
        <pt x="-336" y="-422" on="0"/>
        <pt x="-385" y="-372" on="0"/>
        <pt x="-413" y="-305" on="0"/>
        <pt x="-413" y="-267" on="1"/>
        <pt x="-413" y="-229" on="0"/>
        <pt x="-385" y="-162" on="0"/>
        <pt x="-336" y="-113" on="0"/>
        <pt x="-271" y="-84" on="0"/>
        <pt x="-234" y="-84" on="1"/>
        <pt x="-198" y="-84" on="0"/>
        <pt x="-133" y="-113" on="0"/>
        <pt x="-84" y="-162" on="0"/>
        <pt x="-56" y="-229" on="0"/>
      </contour>
      <contour>
        <pt x="-95" y="-267" on="1"/>
        <pt x="-95" y="-238" on="0"/>
        <pt x="-117" y="-186" on="0"/>
        <pt x="-155" y="-147" on="0"/>
        <pt x="-206" y="-125" on="0"/>
        <pt x="-234" y="-125" on="1"/>
        <pt x="-263" y="-125" on="0"/>
        <pt x="-285" y="-134" on="1"/>
        <pt x="-253" y="-166" on="0"/>
        <pt x="-231" y="-235" on="0"/>
        <pt x="-231" y="-267" on="1"/>
        <pt x="-231" y="-300" on="0"/>
        <pt x="-256" y="-370" on="0"/>
        <pt x="-287" y="-401" on="1"/>
        <pt x="-262" y="-410" on="0"/>
        <pt x="-234" y="-410" on="1"/>
        <pt x="-206" y="-410" on="0"/>
        <pt x="-155" y="-387" on="0"/>
        <pt x="-117" y="-348" on="0"/>
        <pt x="-95" y="-296" on="0"/>
      </contour>
      <contour>
        <pt x="-266" y="-267" on="1"/>
        <pt x="-266" y="-248" on="0"/>
        <pt x="-286" y="-184" on="0"/>
        <pt x="-317" y="-153" on="1"/>
        <pt x="-343" y="-171" on="0"/>
        <pt x="-374" y="-232" on="0"/>
        <pt x="-374" y="-267" on="1"/>
        <pt x="-374" y="-302" on="0"/>
        <pt x="-344" y="-363" on="0"/>
        <pt x="-318" y="-380" on="1"/>
        <pt x="-288" y="-349" on="0"/>
        <pt x="-266" y="-289" on="0"/>
      </contour>
    </TTGlyph>
    <TTGlyph name="u1006" xMin="55" yMin="-15" xMax="934" yMax="459">
      <contour>
        <pt x="934" y="222" on="1"/>
        <pt x="934" y="173" on="0"/>
        <pt x="897" y="87" on="0"/>
        <pt x="834" y="22" on="0"/>
        <pt x="749" y="-15" on="0"/>
        <pt x="702" y="-15" on="1"/>
        <pt x="633" y="-15" on="0"/>
        <pt x="523" y="57" on="0"/>
        <pt x="495" y="114" on="1"/>
        <pt x="465" y="57" on="0"/>
        <pt x="352" y="-15" on="0"/>
        <pt x="283" y="-15" on="1"/>
        <pt x="244" y="-15" on="0"/>
        <pt x="166" y="9" on="0"/>
        <pt x="103" y="54" on="0"/>
        <pt x="60" y="115" on="0"/>
        <pt x="55" y="153" on="1"/>
        <pt x="97" y="175" on="0"/>
        <pt x="168" y="204" on="0"/>
        <pt x="210" y="204" on="1"/>
        <pt x="271" y="204" on="0"/>
        <pt x="380" y="142" on="0"/>
        <pt x="417" y="91" on="1"/>
        <pt x="441" y="117" on="0"/>
        <pt x="469" y="183" on="0"/>
        <pt x="469" y="222" on="1"/>
        <pt x="469" y="260" on="0"/>
        <pt x="440" y="327" on="0"/>
        <pt x="389" y="378" on="0"/>
        <pt x="322" y="408" on="0"/>
        <pt x="283" y="408" on="1"/>
        <pt x="231" y="408" on="0"/>
        <pt x="135" y="349" on="0"/>
        <pt x="106" y="297" on="1"/>
        <pt x="63" y="322" on="1"/>
        <pt x="76" y="354" on="0"/>
        <pt x="122" y="405" on="0"/>
        <pt x="180" y="440" on="0"/>
        <pt x="248" y="459" on="0"/>
        <pt x="283" y="459" on="1"/>
        <pt x="352" y="459" on="0"/>
        <pt x="465" y="387" on="0"/>
        <pt x="495" y="330" on="1"/>
        <pt x="523" y="387" on="0"/>
        <pt x="633" y="459" on="0"/>
        <pt x="702" y="459" on="1"/>
        <pt x="749" y="459" on="0"/>
        <pt x="834" y="421" on="0"/>
        <pt x="897" y="357" on="0"/>
        <pt x="934" y="270" on="0"/>
      </contour>
      <contour>
        <pt x="883" y="222" on="1"/>
        <pt x="883" y="260" on="0"/>
        <pt x="855" y="327" on="0"/>
        <pt x="805" y="378" on="0"/>
        <pt x="739" y="408" on="0"/>
        <pt x="702" y="408" on="1"/>
        <pt x="664" y="408" on="0"/>
        <pt x="598" y="378" on="0"/>
        <pt x="549" y="327" on="0"/>
        <pt x="520" y="260" on="0"/>
        <pt x="520" y="222" on="1"/>
        <pt x="520" y="183" on="0"/>
        <pt x="549" y="116" on="0"/>
        <pt x="598" y="65" on="0"/>
        <pt x="664" y="36" on="0"/>
        <pt x="702" y="36" on="1"/>
        <pt x="739" y="36" on="0"/>
        <pt x="805" y="65" on="0"/>
        <pt x="855" y="116" on="0"/>
        <pt x="883" y="183" on="0"/>
      </contour>
      <contour>
        <pt x="373" y="58" on="1"/>
        <pt x="349" y="100" on="0"/>
        <pt x="265" y="153" on="0"/>
        <pt x="214" y="153" on="1"/>
        <pt x="189" y="153" on="0"/>
        <pt x="141" y="138" on="0"/>
        <pt x="115" y="126" on="1"/>
        <pt x="142" y="78" on="0"/>
        <pt x="232" y="36" on="0"/>
        <pt x="283" y="36" on="1"/>
        <pt x="309" y="36" on="0"/>
        <pt x="352" y="48" on="0"/>
      </contour>
    </TTGlyph>
    <TTGlyph name="u1006.med" xMin="-734" yMin="-450" xMax="-56" yMax="-84">
      <contour>
        <pt x="-56" y="-267" on="1"/>
        <pt x="-56" y="-305" on="0"/>
        <pt x="-85" y="-372" on="0"/>
        <pt x="-134" y="-422" on="0"/>
        <pt x="-199" y="-450" on="0"/>
        <pt x="-236" y="-450" on="1"/>
        <pt x="-289" y="-450" on="0"/>
        <pt x="-372" y="-394" on="0"/>
        <pt x="-395" y="-350" on="1"/>
        <pt x="-418" y="-394" on="0"/>
        <pt x="-505" y="-450" on="0"/>
        <pt x="-558" y="-450" on="1"/>
        <pt x="-588" y="-450" on="0"/>
        <pt x="-648" y="-431" on="0"/>
        <pt x="-696" y="-396" on="0"/>
        <pt x="-730" y="-349" on="0"/>
        <pt x="-734" y="-320" on="1"/>
        <pt x="-701" y="-303" on="0"/>
        <pt x="-644" y="-279" on="0"/>
        <pt x="-614" y="-279" on="1"/>
        <pt x="-592" y="-279" on="0"/>
        <pt x="-544" y="-293" on="0"/>
        <pt x="-502" y="-317" on="0"/>
        <pt x="-467" y="-349" on="0"/>
        <pt x="-456" y="-368" on="1"/>
        <pt x="-414" y="-325" on="0"/>
        <pt x="-414" y="-267" on="1"/>
        <pt x="-414" y="-238" on="0"/>
        <pt x="-437" y="-186" on="0"/>
        <pt x="-476" y="-147" on="0"/>
        <pt x="-528" y="-125" on="0"/>
        <pt x="-558" y="-125" on="1"/>
        <pt x="-599" y="-125" on="0"/>
        <pt x="-670" y="-168" on="0"/>
        <pt x="-692" y="-210" on="1"/>
        <pt x="-728" y="-189" on="1"/>
        <pt x="-717" y="-164" on="0"/>
        <pt x="-680" y="-125" on="0"/>
        <pt x="-634" y="-98" on="0"/>
        <pt x="-583" y="-84" on="0"/>
        <pt x="-558" y="-84" on="1"/>
        <pt x="-505" y="-84" on="0"/>
        <pt x="-418" y="-140" on="0"/>
        <pt x="-395" y="-185" on="1"/>
        <pt x="-372" y="-140" on="0"/>
        <pt x="-289" y="-84" on="0"/>
        <pt x="-236" y="-84" on="1"/>
        <pt x="-199" y="-84" on="0"/>
        <pt x="-134" y="-113" on="0"/>
        <pt x="-85" y="-162" on="0"/>
        <pt x="-56" y="-229" on="0"/>
      </contour>
      <contour>
        <pt x="-95" y="-267" on="1"/>
        <pt x="-95" y="-238" on="0"/>
        <pt x="-117" y="-186" on="0"/>
        <pt x="-156" y="-147" on="0"/>
        <pt x="-207" y="-125" on="0"/>
        <pt x="-236" y="-125" on="1"/>
        <pt x="-265" y="-125" on="0"/>
        <pt x="-316" y="-147" on="0"/>
        <pt x="-354" y="-186" on="0"/>
        <pt x="-375" y="-238" on="0"/>
        <pt x="-375" y="-267" on="1"/>
        <pt x="-375" y="-296" on="0"/>
        <pt x="-354" y="-348" on="0"/>
        <pt x="-316" y="-387" on="0"/>
        <pt x="-265" y="-410" on="0"/>
        <pt x="-236" y="-410" on="1"/>
        <pt x="-207" y="-410" on="0"/>
        <pt x="-156" y="-387" on="0"/>
        <pt x="-117" y="-348" on="0"/>
        <pt x="-95" y="-296" on="0"/>
      </contour>
      <contour>
        <pt x="-483" y="-392" on="1"/>
        <pt x="-500" y="-359" on="0"/>
        <pt x="-572" y="-315" on="0"/>
        <pt x="-614" y="-315" on="1"/>
        <pt x="-633" y="-315" on="0"/>
        <pt x="-671" y="-326" on="0"/>
        <pt x="-689" y="-336" on="1"/>
        <pt x="-680" y="-354" on="0"/>
        <pt x="-652" y="-382" on="0"/>
        <pt x="-616" y="-401" on="0"/>
        <pt x="-577" y="-410" on="0"/>
        <pt x="-557" y="-410" on="1"/>
        <pt x="-537" y="-410" on="0"/>
        <pt x="-500" y="-400" on="0"/>
      </contour>
    </TTGlyph>
    <TTGlyph name="u1007" xMin="55" yMin="-15" xMax="568" yMax="459">
      <contour>
        <pt x="528" y="127" on="1"/>
        <pt x="515" y="147" on="0"/>
        <pt x="488" y="193" on="0"/>
        <pt x="474" y="214" on="1"/>
        <pt x="457" y="184" on="0"/>
        <pt x="394" y="153" on="0"/>
        <pt x="361" y="153" on="1"/>
        <pt x="341" y="153" on="0"/>
        <pt x="304" y="164" on="0"/>
        <pt x="276" y="185" on="0"/>
        <pt x="259" y="218" on="0"/>
        <pt x="259" y="240" on="1"/>
        <pt x="259" y="284" on="0"/>
        <pt x="313" y="340" on="0"/>
        <pt x="361" y="340" on="1"/>
        <pt x="376" y="340" on="0"/>
        <pt x="407" y="333" on="0"/>
        <pt x="424" y="325" on="1"/>
        <pt x="418" y="341" on="0"/>
        <pt x="396" y="371" on="0"/>
        <pt x="363" y="394" on="0"/>
        <pt x="318" y="408" on="0"/>
        <pt x="289" y="408" on="1"/>
        <pt x="250" y="408" on="0"/>
        <pt x="183" y="377" on="0"/>
        <pt x="134" y="326" on="0"/>
        <pt x="106" y="258" on="0"/>
        <pt x="106" y="222" on="1"/>
        <pt x="106" y="182" on="0"/>
        <pt x="134" y="114" on="0"/>
        <pt x="182" y="64" on="0"/>
        <pt x="248" y="36" on="0"/>
        <pt x="286" y="36" on="1"/>
        <pt x="330" y="36" on="0"/>
        <pt x="394" y="65" on="0"/>
        <pt x="429" y="97" on="1"/>
        <pt x="462" y="57" on="1"/>
        <pt x="442" y="39" on="0"/>
        <pt x="403" y="12" on="0"/>
        <pt x="362" y="-6" on="0"/>
        <pt x="315" y="-15" on="0"/>
        <pt x="286" y="-15" on="1"/>
        <pt x="235" y="-15" on="0"/>
        <pt x="151" y="22" on="0"/>
        <pt x="89" y="87" on="0"/>
        <pt x="55" y="173" on="0"/>
        <pt x="55" y="222" on="1"/>
        <pt x="55" y="270" on="0"/>
        <pt x="91" y="356" on="0"/>
        <pt x="154" y="421" on="0"/>
        <pt x="238" y="459" on="0"/>
        <pt x="286" y="459" on="1"/>
        <pt x="332" y="459" on="0"/>
        <pt x="405" y="430" on="0"/>
        <pt x="457" y="381" on="0"/>
        <pt x="485" y="313" on="0"/>
        <pt x="487" y="274" on="1"/>
        <pt x="513" y="246" on="0"/>
        <pt x="551" y="183" on="0"/>
        <pt x="568" y="156" on="1"/>
      </contour>
      <contour>
        <pt x="436" y="261" on="1"/>
        <pt x="419" y="275" on="0"/>
        <pt x="384" y="289" on="0"/>
        <pt x="361" y="289" on="1"/>
        <pt x="338" y="289" on="0"/>
        <pt x="310" y="266" on="0"/>
        <pt x="310" y="240" on="1"/>
        <pt x="310" y="223" on="0"/>
        <pt x="340" y="204" on="0"/>
        <pt x="361" y="204" on="1"/>
        <pt x="373" y="204" on="0"/>
        <pt x="398" y="209" on="0"/>
        <pt x="420" y="223" on="0"/>
        <pt x="434" y="244" on="0"/>
      </contour>
    </TTGlyph>
    <TTGlyph name="u1007.med" xMin="-452" yMin="-450" xMax="-56" yMax="-84">
      <contour>
        <pt x="-87" y="-341" on="1"/>
        <pt x="-95" y="-327" on="0"/>
        <pt x="-121" y="-286" on="0"/>
        <pt x="-129" y="-273" on="1"/>
        <pt x="-143" y="-296" on="0"/>
        <pt x="-190" y="-320" on="0"/>
        <pt x="-216" y="-320" on="1"/>
        <pt x="-247" y="-320" on="0"/>
        <pt x="-294" y="-289" on="0"/>
        <pt x="-294" y="-254" on="1"/>
        <pt x="-294" y="-219" on="0"/>
        <pt x="-254" y="-176" on="0"/>
        <pt x="-216" y="-176" on="1"/>
        <pt x="-191" y="-176" on="0"/>
        <pt x="-167" y="-188" on="1"/>
        <pt x="-176" y="-164" on="0"/>
        <pt x="-225" y="-125" on="0"/>
        <pt x="-272" y="-125" on="1"/>
        <pt x="-302" y="-125" on="0"/>
        <pt x="-354" y="-148" on="0"/>
        <pt x="-392" y="-187" on="0"/>
        <pt x="-413" y="-239" on="0"/>
        <pt x="-413" y="-267" on="1"/>
        <pt x="-413" y="-298" on="0"/>
        <pt x="-392" y="-351" on="0"/>
        <pt x="-354" y="-389" on="0"/>
        <pt x="-303" y="-410" on="0"/>
        <pt x="-273" y="-410" on="1"/>
        <pt x="-238" y="-410" on="0"/>
        <pt x="-191" y="-388" on="0"/>
        <pt x="-164" y="-365" on="1"/>
        <pt x="-138" y="-395" on="1"/>
        <pt x="-169" y="-422" on="0"/>
        <pt x="-229" y="-450" on="0"/>
        <pt x="-273" y="-450" on="1"/>
        <pt x="-312" y="-450" on="0"/>
        <pt x="-378" y="-422" on="0"/>
        <pt x="-425" y="-372" on="0"/>
        <pt x="-452" y="-305" on="0"/>
        <pt x="-452" y="-267" on="1"/>
        <pt x="-452" y="-230" on="0"/>
        <pt x="-424" y="-163" on="0"/>
        <pt x="-375" y="-113" on="0"/>
        <pt x="-309" y="-84" on="0"/>
        <pt x="-272" y="-84" on="1"/>
        <pt x="-236" y="-84" on="0"/>
        <pt x="-180" y="-106" on="0"/>
        <pt x="-141" y="-144" on="0"/>
        <pt x="-119" y="-195" on="0"/>
        <pt x="-119" y="-225" on="1"/>
        <pt x="-99" y="-247" on="0"/>
        <pt x="-68" y="-297" on="0"/>
        <pt x="-56" y="-318" on="1"/>
      </contour>
      <contour>
        <pt x="-159" y="-237" on="1"/>
        <pt x="-172" y="-225" on="0"/>
        <pt x="-199" y="-215" on="0"/>
        <pt x="-216" y="-215" on="1"/>
        <pt x="-255" y="-215" on="0"/>
        <pt x="-255" y="-254" on="1"/>
        <pt x="-255" y="-266" on="0"/>
        <pt x="-233" y="-281" on="0"/>
        <pt x="-216" y="-281" on="1"/>
        <pt x="-198" y="-281" on="0"/>
        <pt x="-163" y="-261" on="0"/>
      </contour>
    </TTGlyph>
    <TTGlyph name="u1008" xMin="55" yMin="-450" xMax="666" yMax="459">
      <contour>
        <pt x="351" y="-369" on="1"/>
        <pt x="351" y="-6" on="1"/>
        <pt x="321" y="-15" on="0"/>
        <pt x="289" y="-15" on="1"/>
        <pt x="239" y="-15" on="0"/>
        <pt x="154" y="22" on="0"/>
        <pt x="91" y="87" on="0"/>
        <pt x="55" y="173" on="0"/>
        <pt x="55" y="222" on="1"/>
        <pt x="55" y="270" on="0"/>
        <pt x="91" y="357" on="0"/>
        <pt x="154" y="421" on="0"/>
        <pt x="238" y="459" on="0"/>
        <pt x="286" y="459" on="1"/>
        <pt x="335" y="459" on="0"/>
        <pt x="421" y="421" on="0"/>
        <pt x="484" y="357" on="0"/>
        <pt x="520" y="270" on="0"/>
        <pt x="520" y="222" on="1"/>
        <pt x="520" y="154" on="0"/>
        <pt x="457" y="45" on="0"/>
        <pt x="403" y="15" on="1"/>
        <pt x="403" y="-329" on="1"/>
        <pt x="615" y="-384" on="1"/>
        <pt x="615" y="444" on="1"/>
        <pt x="666" y="444" on="1"/>
        <pt x="666" y="-450" on="1"/>
      </contour>
      <contour>
        <pt x="469" y="222" on="1"/>
        <pt x="469" y="260" on="0"/>
        <pt x="441" y="328" on="0"/>
        <pt x="392" y="379" on="0"/>
        <pt x="326" y="408" on="0"/>
        <pt x="289" y="408" on="1"/>
        <pt x="271" y="408" on="0"/>
        <pt x="239" y="400" on="0"/>
        <pt x="222" y="394" on="1"/>
        <pt x="261" y="353" on="0"/>
        <pt x="292" y="263" on="0"/>
        <pt x="292" y="222" on="1"/>
        <pt x="292" y="180" on="0"/>
        <pt x="261" y="90" on="0"/>
        <pt x="220" y="49" on="1"/>
        <pt x="249" y="36" on="0"/>
        <pt x="286" y="36" on="1"/>
        <pt x="324" y="36" on="0"/>
        <pt x="391" y="65" on="0"/>
        <pt x="440" y="116" on="0"/>
        <pt x="469" y="184" on="0"/>
      </contour>
      <contour>
        <pt x="241" y="222" on="1"/>
        <pt x="241" y="235" on="0"/>
        <pt x="236" y="269" on="0"/>
        <pt x="221" y="307" on="0"/>
        <pt x="195" y="347" on="0"/>
        <pt x="175" y="367" on="1"/>
        <pt x="143" y="341" on="0"/>
        <pt x="106" y="266" on="0"/>
        <pt x="106" y="222" on="1"/>
        <pt x="106" y="177" on="0"/>
        <pt x="142" y="104" on="0"/>
        <pt x="172" y="78" on="1"/>
        <pt x="213" y="117" on="0"/>
        <pt x="241" y="196" on="0"/>
      </contour>
    </TTGlyph>
    <TTGlyph name="u1008.med" xMin="-396" yMin="-450" xMax="106" yMax="444">
      <contour>
        <pt x="-107" y="-395" on="1"/>
        <pt x="-130" y="-413" on="0"/>
        <pt x="-186" y="-435" on="0"/>
        <pt x="-218" y="-435" on="1"/>
        <pt x="-255" y="-435" on="0"/>
        <pt x="-320" y="-406" on="0"/>
        <pt x="-368" y="-356" on="0"/>
        <pt x="-396" y="-289" on="0"/>
        <pt x="-396" y="-252" on="1"/>
        <pt x="-396" y="-214" on="0"/>
        <pt x="-368" y="-147" on="0"/>
        <pt x="-320" y="-98" on="0"/>
        <pt x="-255" y="-69" on="0"/>
        <pt x="-218" y="-69" on="1"/>
        <pt x="-181" y="-69" on="0"/>
        <pt x="-116" y="-98" on="0"/>
        <pt x="-67" y="-147" on="0"/>
        <pt x="-39" y="-214" on="0"/>
        <pt x="-39" y="-252" on="1"/>
        <pt x="-39" y="-308" on="0"/>
        <pt x="-68" y="-351" on="1"/>
        <pt x="55" y="-384" on="1"/>
        <pt x="55" y="444" on="1"/>
        <pt x="106" y="444" on="1"/>
        <pt x="106" y="-450" on="1"/>
      </contour>
      <contour>
        <pt x="-78" y="-252" on="1"/>
        <pt x="-78" y="-223" on="0"/>
        <pt x="-100" y="-171" on="0"/>
        <pt x="-138" y="-132" on="0"/>
        <pt x="-189" y="-110" on="0"/>
        <pt x="-218" y="-110" on="1"/>
        <pt x="-247" y="-110" on="0"/>
        <pt x="-269" y="-119" on="1"/>
        <pt x="-237" y="-149" on="0"/>
        <pt x="-215" y="-220" on="0"/>
        <pt x="-215" y="-252" on="1"/>
        <pt x="-215" y="-285" on="0"/>
        <pt x="-238" y="-354" on="0"/>
        <pt x="-270" y="-386" on="1"/>
        <pt x="-248" y="-395" on="0"/>
        <pt x="-218" y="-395" on="1"/>
        <pt x="-189" y="-395" on="0"/>
        <pt x="-138" y="-372" on="0"/>
        <pt x="-100" y="-333" on="0"/>
        <pt x="-78" y="-281" on="0"/>
      </contour>
      <contour>
        <pt x="-249" y="-252" on="1"/>
        <pt x="-249" y="-233" on="0"/>
        <pt x="-270" y="-169" on="0"/>
        <pt x="-300" y="-138" on="1"/>
        <pt x="-327" y="-158" on="0"/>
        <pt x="-357" y="-217" on="0"/>
        <pt x="-357" y="-252" on="1"/>
        <pt x="-357" y="-287" on="0"/>
        <pt x="-328" y="-348" on="0"/>
        <pt x="-302" y="-365" on="1"/>
        <pt x="-271" y="-334" on="0"/>
        <pt x="-249" y="-272" on="0"/>
      </contour>
    </TTGlyph>
</ttFont>
